<svg width="706" height="281" viewBox="0 0 706 281" fill="none" xmlns="http://www.w3.org/2000/svg">
<g opacity="0.12">
<path d="M452.247 110.477C445.573 108.487 442.586 118.662 449.119 120.993C456.579 123.477 460.061 112.118 452.247 110.477Z" fill="#739BFE"/>
<path d="M389.019 14.6574C380.343 12.0707 376.46 25.3004 384.954 28.3302C394.651 31.5577 399.178 16.7902 389.019 14.6574Z" fill="#739BFE"/>
<path d="M33.3652 250.686C26.692 248.696 23.7049 258.872 30.238 261.203C37.6979 263.686 41.1799 252.327 33.3652 250.686Z" fill="#F84F9B"/>
<path d="M634.916 230.141C628.244 228.151 625.255 238.327 631.789 240.659C639.248 243.14 642.732 231.781 634.916 230.141Z" fill="#31B7DE"/>
<path d="M28.1185 103.32C19.444 100.733 15.5601 113.963 24.0537 116.992C33.7509 120.22 38.2786 105.453 28.1185 103.32Z" fill="#739BFE"/>
<path d="M629.548 94.7922C620.874 92.2054 616.989 105.435 625.483 108.465C635.182 111.691 639.708 96.9249 629.548 94.7922Z" fill="#31B7DE"/>
<path d="M173.279 94.0746C166.606 92.0849 163.618 102.261 170.152 104.592C177.612 107.074 181.094 95.7147 173.279 94.0746Z" fill="#739BFE"/>
<path d="M575.875 11.3101C571.109 9.88857 568.975 17.1571 573.642 18.822C578.97 20.5952 581.458 12.4813 575.875 11.3101Z" fill="white"/>
<path d="M657.214 171.008C653.403 169.87 651.695 175.685 655.428 177.017C659.691 178.436 661.682 171.945 657.214 171.008Z" fill="white"/>
<path d="M3.86917 174.186C0.0582494 173.048 -1.65027 178.863 2.08268 180.196C6.34447 181.615 8.33691 175.123 3.86917 174.186Z" fill="white"/>
<path d="M78.4768 3.36085C73.7102 1.93933 71.5768 9.20885 76.2435 10.8728C81.572 12.6459 84.0593 4.53204 78.4768 3.36085Z" fill="white"/>
<path d="M440.056 0.146549C436.243 -0.990867 434.534 4.82435 438.267 6.15548C442.532 7.57501 444.521 1.0843 440.056 0.146549Z" fill="white"/>
<path d="M117.676 214.541C114.778 213.676 113.479 218.096 116.316 219.108C119.558 220.187 121.07 215.254 117.676 214.541Z" fill="white"/>
<path d="M555.29 154.167C551 152.887 549.079 159.429 553.279 160.927C558.076 162.523 560.314 155.221 555.29 154.167Z" fill="white"/>
<path d="M682.355 31.1753C677.588 29.7538 675.455 37.0233 680.121 38.6872C685.449 40.4604 687.937 32.3465 682.355 31.1753Z" fill="white"/>
<path d="M7.86905 51.803C4.05613 50.6646 2.34661 56.4799 6.08055 57.813C10.3443 59.2315 12.3348 52.7418 7.86905 51.803Z" fill="white"/>
<path d="M639.196 66.4397C636.298 65.5744 635 69.995 637.837 71.0062C641.078 72.085 642.589 67.1509 639.196 66.4397Z" fill="white"/>
<path d="M207.496 7.71585C203.207 6.43539 201.285 12.9778 205.485 14.4758C210.281 16.0721 212.52 8.76883 207.496 7.71585Z" fill="white"/>
<path d="M507.566 89.6484C504.67 88.7842 503.371 93.2037 506.208 94.216C509.447 95.2948 510.961 90.3617 507.566 89.6484Z" fill="white"/>
<path d="M371.211 54.0195C368.313 53.1553 367.015 57.5748 369.852 58.5871C373.093 59.6659 374.606 54.7328 371.211 54.0195Z" fill="white"/>
<path d="M132.234 95.6875C129.337 94.8233 128.039 99.2428 130.876 100.255C134.116 101.334 135.63 96.4007 132.234 95.6875Z" fill="white"/>
<path d="M35.1895 154.174C38.1886 158.147 41.1878 161.127 44.1869 164.108" stroke="#4C73EA" stroke-width="8" stroke-miterlimit="10"/>
<path d="M403.867 79.6699C400.868 82.65 398.869 86.6236 396.869 90.5971" stroke="#F84F9B" stroke-width="8" stroke-miterlimit="10"/>
<path d="M564.04 191.922C568.038 195.895 572.037 200.862 575.036 206.823" stroke="#F57C00" stroke-width="8" stroke-miterlimit="10"/>
<path d="M677.008 75.6973C674.008 82.6509 670.01 88.6112 666.011 94.5714" stroke="#F84F9B" stroke-width="8" stroke-miterlimit="10"/>
<path d="M497.059 7.1543C501.057 10.1344 504.057 14.1079 507.056 18.0814" stroke="#4C73EA" stroke-width="8" stroke-miterlimit="10"/>
<path d="M267.624 97.9902C264.624 102.957 262.625 106.931 260.625 111.897" stroke="#739BFE" stroke-width="8" stroke-miterlimit="10"/>
<path d="M136.161 15.0996C140.16 20.0665 144.158 24.04 148.157 28.0135" stroke="#31B7DE" stroke-width="8" stroke-miterlimit="10"/>
<path d="M125.164 247.551C122.165 253.511 119.165 258.478 117.166 264.438" stroke="#739BFE" stroke-width="8" stroke-miterlimit="10"/>
<path d="M689.004 174.041C694.003 180.001 697.002 185.962 701.001 191.922" stroke="#31B7DE" stroke-width="8" stroke-miterlimit="10"/>
<path d="M68.18 46.8887C64.1812 53.8423 57.1832 57.8158 52.1846 62.7827" stroke="#739BFE" stroke-width="8" stroke-miterlimit="10"/>
<path d="M601.029 30.002C607.028 31.9887 612.026 33.9755 617.025 34.9688" stroke="#739BFE" stroke-width="8" stroke-miterlimit="10"/>
<path d="M270.123 53.8418C272.122 55.8285 273.122 56.8219 275.121 58.8087" stroke="#F57C00" stroke-width="6" stroke-miterlimit="10"/>
<path d="M693.004 124.371C692.004 126.358 692.004 127.351 691.004 129.338" stroke="#739BFE" stroke-width="6" stroke-miterlimit="10"/>
<path d="M87.1744 176.027C85.1749 180.001 84.1752 180.001 82.1758 182.981" stroke="#739BFE" stroke-width="6" stroke-miterlimit="10"/>
<path d="M510.055 117.418C511.054 119.405 513.054 121.391 514.054 122.385" stroke="#F84F9B" stroke-width="6" stroke-miterlimit="10"/>
<path d="M5.19922 229.67C5.19922 232.65 4.19922 234.637 2.19922 236.624" stroke="#31B7DE" stroke-width="6" stroke-miterlimit="10"/>
<path d="M144.158 61.7891C146.158 62.7824 147.157 64.7692 149.157 66.7559" stroke="#739BFE" stroke-width="6" stroke-miterlimit="10"/>
<path d="M375.593 113.445C375.593 116.425 375.593 119.406 374.593 121.392" stroke="#31B7DE" stroke-width="6" stroke-miterlimit="10"/>
<path d="M590.032 64.7695C591.032 65.7629 593.031 66.7563 594.031 67.7497" stroke="#739BFE" stroke-width="6" stroke-miterlimit="10"/>
<path d="M506.057 54.834C505.39 56.1591 505.39 57.4833 504.724 58.8075" stroke="#739BFE" stroke-width="3" stroke-miterlimit="10"/>
<path d="M68.1807 123.047C67.5137 126.358 66.8467 129.007 65.5137 132.318" stroke="#31B7DE" stroke-width="3" stroke-miterlimit="10"/>
<path d="M704.001 252.85C703.334 255.498 702.667 257.485 701.334 260.133" stroke="#739BFE" stroke-width="3" stroke-miterlimit="10"/>
<path d="M31.5234 17.748C32.8571 19.0722 34.8565 21.059 36.1891 23.0457" stroke="#739BFE" stroke-width="3" stroke-miterlimit="10"/>
<path d="M625.355 272.717C624.023 275.365 622.689 277.352 621.356 280" stroke="#F57C00" stroke-width="3" stroke-miterlimit="10"/>
<path d="M645.35 7.81445C646.682 10.4638 648.016 13.7747 649.348 17.0856" stroke="#F57C00" stroke-width="3" stroke-miterlimit="10"/>
<path d="M279.454 17.0859C278.787 19.7353 278.121 21.722 276.787 23.7088" stroke="#4C73EA" stroke-width="3" stroke-miterlimit="10"/>
<path d="M638.685 137.617C642.018 138.941 645.35 140.928 648.016 142.915" stroke="#4C73EA" stroke-width="3" stroke-miterlimit="10"/>
<path d="M166.152 146.887C168.152 149.536 169.484 152.184 171.484 154.834" stroke="#4C73EA" stroke-width="3" stroke-miterlimit="10"/>
<path d="M166.152 234.969C163.486 236.292 161.486 238.279 160.154 240.265" stroke="#31B7DE" stroke-width="3" stroke-miterlimit="10"/>
<path d="M111.052 61.5866C103.776 66.4135 98.5833 74.3237 94.4814 81.8237C90.1396 89.7638 86.5467 99.1402 87.6763 108.315C88.6211 115.994 94.4454 122.843 102.061 124.387C109.772 125.95 117.471 120.805 125.035 120.161C128.3 119.883 131.479 121.886 130.844 125.36C130.218 128.784 127.084 131.847 124.82 134.298C119.625 139.918 112.698 145.027 109.511 152.16C106.775 158.285 109.528 164.296 115.072 167.637C120.719 171.041 128.473 169.738 134.314 167.701C140.352 165.595 148.212 158.59 139.746 153.632C130.616 148.287 120.339 153.805 116.37 162.853C111.495 173.967 116.535 187.159 126.86 193.365C131.327 196.05 136.366 197.266 141.318 198.741C147.936 200.711 150.621 203.868 150.424 210.945C150.36 213.278 155.797 215.893 155.888 212.63C156.117 204.382 151.927 198.443 144.224 195.475C134.9 191.882 125.855 191.43 121.244 181.142C117.22 172.162 121.939 160.681 130.904 156.84C132.796 156.031 139.367 155.233 137.653 158.313C136.205 160.914 132.714 162.319 130.082 163.323C124.906 165.299 113.2 167.077 113.854 158.465C114.396 151.323 123.141 144.834 127.772 140.146C131.578 136.293 138.256 130.112 136.086 123.971C133.778 117.441 126.457 114.794 120.076 115.631C113.897 116.443 108.197 119.791 101.878 119.8C93.7796 119.814 92.449 109.311 93.2078 103.295C94.2015 95.4161 97.9184 87.8883 102.006 81.18C105.427 75.5654 109.72 69.6539 115.284 65.9625C117.663 64.384 113.068 60.2486 111.052 61.5866Z" fill="#F57C00"/>
<path d="M542.735 63.2161C534.76 73.581 531.299 90.4585 537.982 102.253C541.79 108.971 549.913 110.783 557.058 111.13C567.135 111.619 577.156 108.848 584.57 117.574C590.066 124.044 588.894 132.754 589.121 140.595C589.336 147.996 590.944 155.835 592.882 162.971C597.057 178.34 607.973 187.063 623.294 190.636C625.866 191.236 631.521 188.357 626.754 187.245C610.967 183.563 602.666 173.082 599.259 157.835C597.74 151.03 596.619 143.957 596.52 136.988C596.41 129.292 596.495 122.367 591.67 115.928C587.13 109.868 579.872 107.878 572.644 107.414C564.285 106.878 555.581 109.357 548.178 104.294C542.476 100.394 541.822 91.3992 542.11 85.2561C542.449 78.0283 544.899 70.128 549.356 64.3347C551.383 61.6972 544.097 61.4449 542.735 63.2161Z" fill="#739BFE"/>
<path d="M234.035 18.292C233.785 31.4493 223.821 36.4629 213.81 42.5612C203.9 48.598 199.172 56.8589 201.049 68.5469C201.466 71.1416 205.751 72.1479 205.235 68.9383C204.25 62.7983 204.918 57.2006 209.144 52.4185C212.461 48.6655 217.263 46.2774 221.531 43.7791C230.987 38.245 238.012 31.3937 238.231 19.8556C238.277 17.4089 234.093 15.1977 234.035 18.292Z" fill="#F84F9B"/>
<path d="M439.336 41.1882C436.748 46.9647 435.487 53.1147 438.428 58.9994C441.074 64.2882 445.673 68.2974 450.699 71.2964C459.481 76.5375 476.13 79.3636 477.363 91.3497C477.549 93.1567 483.011 98.1802 482.766 95.797C481.483 83.3242 469.692 76.1391 459.372 71.2895C454.209 68.8627 448.648 66.7368 444.245 63.0295C439.759 59.2517 442.931 50.8259 444.814 46.622C445.588 44.8925 440.069 39.5531 439.336 41.1882Z" fill="#31B7DE"/>
<path d="M29.185 203.081C29.6028 217.627 43.9978 214.648 54.3938 214.946C69.7325 215.386 71.8269 234.698 85.7779 238.162C87.2415 238.526 92.569 235.578 90.5706 235.083C77.4313 231.821 75.7628 214.508 61.7727 212.096C51.4217 210.312 35.6451 216.296 35.1953 200.627C35.1703 199.745 29.129 201.165 29.185 203.081Z" fill="#739BFE"/>
<path d="M533.316 215.13C531.83 223.569 533.82 229.478 542.137 232.412C545.335 233.54 548.707 234.184 551.553 236.116C555.15 238.558 555.587 242.952 555.31 246.919C555.238 247.953 562.656 247.863 562.773 246.192C563.349 237.929 559.155 234.194 551.718 231.869C548.491 230.86 545.237 229.981 542.758 227.562C539.366 224.256 540.045 218.563 540.778 214.404C540.919 213.605 533.635 213.319 533.316 215.13Z" fill="#F84F9B"/>
<path d="M220.285 98.4041C214.285 99.0488 211.037 102.795 208.189 107.73C204.802 113.599 201.691 118.038 194.292 118.272C191.995 118.344 195.586 124.583 197.994 124.507C204.371 124.305 208.355 121.167 211.572 115.918C214.798 110.654 217.101 105.381 223.987 104.639C226.404 104.38 222.653 98.1498 220.285 98.4041Z" fill="#31B7DE"/>
</g>
</svg>
