<svg width="190" height="216" viewBox="0 0 190 216" fill="none" xmlns="http://www.w3.org/2000/svg">
<circle cx="95" cy="95" r="95" fill="#E3EAF4"/>
<g filter="url(#filter0_d)">
<mask id="path-2-inside-1" fill="white">
<path fill-rule="evenodd" clip-rule="evenodd" d="M129.002 11H41C36.5817 11 33 14.5817 33 19V171C33 175.418 36.5817 179 41 179H160C164.418 179 168 175.418 168 171V49.998L129.002 11Z"/>
</mask>
<path fill-rule="evenodd" clip-rule="evenodd" d="M129.002 11H41C36.5817 11 33 14.5817 33 19V171C33 175.418 36.5817 179 41 179H160C164.418 179 168 175.418 168 171V49.998L129.002 11Z" fill="white"/>
<path d="M129.002 11L129.709 10.2929L129.416 10H129.002V11ZM168 49.998H169V49.5838L168.707 49.2909L168 49.998ZM41 12H129.002V10H41V12ZM34 19C34 15.134 37.134 12 41 12V10C36.0294 10 32 14.0294 32 19H34ZM34 171V19H32V171H34ZM41 178C37.134 178 34 174.866 34 171H32C32 175.971 36.0294 180 41 180V178ZM160 178H41V180H160V178ZM167 171C167 174.866 163.866 178 160 178V180C164.971 180 169 175.971 169 171H167ZM167 49.998V171H169V49.998H167ZM168.707 49.2909L129.709 10.2929L128.295 11.7071L167.293 50.7052L168.707 49.2909Z" fill="#F5F6F8" mask="url(#path-2-inside-1)"/>
<path fill-rule="evenodd" clip-rule="evenodd" d="M129.002 11L168 49.998H137.002C132.584 49.998 129.002 46.4163 129.002 41.998V11Z" fill="#CFD8DC"/>
</g>
<path d="M52.5 31H111.5M52.5 46H78" stroke="#D5D6D8" stroke-width="3" stroke-linecap="round"/>
<path d="M87.5 63.5H121.5M132 63.5H146.5M87.5 79.5H111M119.5 79.5H146.5M87.5 94H121.5M132 94H146.5M52.5 110.5H99M111 110.5H146.5M52.5 123.5H67M73.5 123.5H146.5M54 152H79M85.5 152H92" stroke="#D5D6D8" stroke-width="3" stroke-linecap="round"/>
<path d="M71.868 88.1481H59.636L57.612 94.0001H51.144L62.188 63.2441H69.36L80.404 94.0001H73.892L71.868 88.1481ZM70.196 83.2201L65.752 70.3721L61.308 83.2201H70.196Z" fill="#EE4E90"/>
<g filter="url(#filter1_d)">
<circle cx="142" cy="166" r="32" fill="url(#paint0_linear)"/>
</g>
<g opacity="0.64" clip-path="url(#clip0)">
<path d="M128.938 180.661L129.365 178.955L128.187 178.49L127.378 179.823C127.378 179.823 127.824 181.033 127.329 182C127.329 182 127.949 180.945 128.938 180.661ZM128.147 179.878C128.292 179.819 128.459 179.887 128.519 180.029C128.579 180.171 128.51 180.335 128.365 180.395C128.22 180.454 128.053 180.386 127.993 180.244C127.932 180.101 128.001 179.937 128.147 179.878Z" fill="white"/>
<path d="M141.293 160.875C137.902 163.657 133.462 169.386 129.697 176.079L129.695 176.077L129.036 177.238L129.738 177.508L130.109 176.531C132.118 172.91 137.568 163.454 147.532 157.171C147.532 157.171 151.242 154.962 154.897 151.906C154.007 152.65 152.251 153.582 151.299 154.184C148.801 155.763 145.718 157.246 141.293 160.875Z" fill="white"/>
<path d="M129.206 170.8C128.435 173.526 128.479 175.602 128.778 176.172H129.244C130.532 173.504 136.736 163.84 140.598 160.814C144.598 157.68 147.684 155.856 150.28 154.526C151.191 154.059 152.126 153.427 152.97 152.793C153.993 151.985 155.031 151.121 155.94 150.276L153.306 152.004L154.48 150.207L152.238 152.488L153.697 150C150.245 150.311 147.041 152.039 147.041 152.039C145.759 153.559 144.727 155.977 144.727 155.977C144.691 154.768 145.51 152.937 145.51 152.937C144.905 153.213 142.606 154.527 142.606 154.527C141.481 155.46 141.132 157.913 141.132 157.913C140.918 156.945 141.665 155.08 141.665 155.08C138.426 156.946 136.112 160.124 136.112 160.124C134.51 163.268 135.827 165.721 135.329 165.134C134.83 164.547 134.937 162.405 134.937 162.405C131.555 165.653 131.2 167.207 131.2 167.207C130.63 168.589 130.132 172.286 130.132 172.286C129.811 171.94 130.132 170.006 130.132 170.006C129.313 171.733 129.705 173.357 129.705 173.357C129.313 173.219 129.206 170.8 129.206 170.8Z" fill="white"/>
<path d="M155.941 151.371C155.941 151.371 154.638 152.633 152.97 153.887C150.354 155.95 147.836 157.636 147.836 157.636C137.97 163.466 132.473 172.98 130.656 176.242H131.622C131.963 175.968 132.476 175.762 134.617 175.142C137.323 174.359 138.936 172.724 138.936 172.724C138.936 172.724 136.468 174.106 135.305 173.968C134.142 173.83 132.58 174.267 132.58 174.267C132.58 174.267 131.983 173.991 134.926 173.553C137.869 173.116 142.71 169.822 142.71 169.822C142.71 169.822 140.859 170.582 140.004 170.513C139.15 170.443 137.038 170.513 137.038 170.513C138.438 170.19 139.743 170.374 141.879 169.568C144.015 168.762 143.896 168.831 143.896 168.831C146.317 168.025 147.322 165.514 147.322 165.514C146.904 165.676 143.706 166.067 142.38 165.676C141.053 165.284 138.794 165.676 138.794 165.676C140.93 164.962 141.404 165.284 141.926 165.261C142.448 165.238 144.133 165.376 147.48 164.225C150.826 163.073 151.775 161.645 151.775 161.645L149.518 161.947C150.992 161.699 152.653 160.724 152.653 160.724C151.632 161 150.042 161.138 150.042 161.138C151.917 160.724 152.961 160.148 152.961 160.148C154.717 158.812 155.121 156.831 155.121 156.831C152.629 157.683 150.659 157.292 150.659 157.292C154.077 157.062 155.026 156.186 155.5 155.979C155.975 155.772 156.171 154.914 156.171 154.914C154.444 155.536 152.486 155.639 152.486 155.639C154.604 155.311 156.419 154.24 156.419 154.24V153.168C155.6 153.634 154.159 153.997 154.159 153.997L156.402 152.546C156.528 151.82 155.941 151.371 155.941 151.371Z" fill="white"/>
<path d="M128.274 178.065L129.608 178.599L129.857 178.009L128.523 177.475L128.274 178.065Z" fill="white"/>
<path d="M143.098 177.569C138.691 179.688 134.458 181.132 128.827 181.321C128.302 181.339 128.299 181.864 128.827 181.846C133.864 181.677 138.055 180.594 142.097 178.7C146.599 176.589 150.734 174.821 156.374 174.22C156.894 174.164 156.673 173.658 156.156 173.713C151.162 174.246 147.104 175.643 143.098 177.569Z" fill="white"/>
</g>
<defs>
<filter id="filter0_d" x="25" y="7" width="151" height="184" filterUnits="userSpaceOnUse" color-interpolation-filters="sRGB">
<feFlood flood-opacity="0" result="BackgroundImageFix"/>
<feColorMatrix in="SourceAlpha" type="matrix" values="0 0 0 0 0 0 0 0 0 0 0 0 0 0 0 0 0 0 127 0" result="hardAlpha"/>
<feOffset dy="4"/>
<feGaussianBlur stdDeviation="4"/>
<feComposite in2="hardAlpha" operator="out"/>
<feColorMatrix type="matrix" values="0 0 0 0 0.129412 0 0 0 0 0.129412 0 0 0 0 0.129412 0 0 0 0.12 0"/>
<feBlend mode="normal" in2="BackgroundImageFix" result="effect1_dropShadow"/>
<feBlend mode="normal" in="SourceGraphic" in2="effect1_dropShadow" result="shape"/>
</filter>
<filter id="filter1_d" x="98" y="128" width="88" height="88" filterUnits="userSpaceOnUse" color-interpolation-filters="sRGB">
<feFlood flood-opacity="0" result="BackgroundImageFix"/>
<feColorMatrix in="SourceAlpha" type="matrix" values="0 0 0 0 0 0 0 0 0 0 0 0 0 0 0 0 0 0 127 0" result="hardAlpha"/>
<feOffset dy="6"/>
<feGaussianBlur stdDeviation="6"/>
<feComposite in2="hardAlpha" operator="out"/>
<feColorMatrix type="matrix" values="0 0 0 0 0.109804 0 0 0 0 0.109804 0 0 0 0 0.109804 0 0 0 0.12 0"/>
<feBlend mode="normal" in2="BackgroundImageFix" result="effect1_dropShadow"/>
<feBlend mode="normal" in="SourceGraphic" in2="effect1_dropShadow" result="shape"/>
</filter>
<linearGradient id="paint0_linear" x1="121.429" y1="144.057" x2="168.514" y2="185.657" gradientUnits="userSpaceOnUse">
<stop stop-color="#769EFF"/>
<stop offset="1" stop-color="#395FE0"/>
</linearGradient>
<clipPath id="clip0">
<rect width="32" height="32" fill="white" transform="translate(126 150)"/>
</clipPath>
</defs>
</svg>
