<svg width="323" height="231" viewBox="0 0 323 231" fill="none" xmlns="http://www.w3.org/2000/svg">
<circle cx="169" cy="127" r="95" fill="#E3EAF4"/>
<g filter="url(#filter0_d)">
<mask id="path-2-inside-1" fill="white">
<path fill-rule="evenodd" clip-rule="evenodd" d="M202.965 43.2266H177.644C179.982 43.2266 181.585 45.4153 180.75 47.4477L172.433 68.2405H179.982C182.554 68.2405 184.157 70.8357 182.855 72.9306L165.518 100.759C164.65 102.134 162.411 101.572 162.411 99.977V77.6207H155.731C153.896 77.6207 152.394 76.217 152.39 74.5H116C115.172 74.5 114.5 73.8284 114.5 73C114.5 72.1716 115.172 71.5 116 71.5H152.39V46.3533C152.39 44.6336 153.894 43.2266 155.731 43.2266H114C109.582 43.2266 106 46.8083 106 51.2266V202.998C106 207.417 109.582 210.998 114 210.998H232.753C237.171 210.998 240.753 207.417 240.753 202.998V78.2254L202.965 43.2266ZM116 86.5C115.172 86.5 114.5 87.1716 114.5 88C114.5 88.8284 115.172 89.5 116 89.5H141.5C142.328 89.5 143 88.8284 143 88C143 87.1716 142.328 86.5 141.5 86.5H116Z"/>
</mask>
<path fill-rule="evenodd" clip-rule="evenodd" d="M202.965 43.2266H177.644C179.982 43.2266 181.585 45.4153 180.75 47.4477L172.433 68.2405H179.982C182.554 68.2405 184.157 70.8357 182.855 72.9306L165.518 100.759C164.65 102.134 162.411 101.572 162.411 99.977V77.6207H155.731C153.896 77.6207 152.394 76.217 152.39 74.5H116C115.172 74.5 114.5 73.8284 114.5 73C114.5 72.1716 115.172 71.5 116 71.5H152.39V46.3533C152.39 44.6336 153.894 43.2266 155.731 43.2266H114C109.582 43.2266 106 46.8083 106 51.2266V202.998C106 207.417 109.582 210.998 114 210.998H232.753C237.171 210.998 240.753 207.417 240.753 202.998V78.2254L202.965 43.2266ZM116 86.5C115.172 86.5 114.5 87.1716 114.5 88C114.5 88.8284 115.172 89.5 116 89.5H141.5C142.328 89.5 143 88.8284 143 88C143 87.1716 142.328 86.5 141.5 86.5H116Z" fill="white"/>
<path d="M202.965 43.2266L203.644 42.4929L203.357 42.2266H202.965V43.2266ZM180.75 47.4477L179.825 47.0676L179.822 47.0763L180.75 47.4477ZM172.433 68.2405L171.504 67.8691L170.956 69.2405H172.433V68.2405ZM182.855 72.9306L183.703 73.4594L183.704 73.4587L182.855 72.9306ZM165.518 100.759L166.364 101.292L166.367 101.287L165.518 100.759ZM162.411 77.6207H163.411V76.6207H162.411V77.6207ZM152.39 74.5L153.39 74.498L153.388 73.5H152.39V74.5ZM152.39 71.5V72.5H153.39V71.5H152.39ZM240.753 78.2254H241.753V77.7886L241.432 77.4918L240.753 78.2254ZM177.644 44.2266H202.965V42.2266H177.644V44.2266ZM181.675 47.8277C182.819 45.0429 180.588 42.2266 177.644 42.2266V44.2266C179.375 44.2266 180.351 45.7877 179.825 47.0676L181.675 47.8277ZM173.361 68.6119L181.679 47.8191L179.822 47.0763L171.504 67.8691L173.361 68.6119ZM179.982 67.2405H172.433V69.2405H179.982V67.2405ZM183.704 73.4587C185.483 70.597 183.217 67.2405 179.982 67.2405V69.2405C181.891 69.2405 182.831 71.0744 182.005 72.4025L183.704 73.4587ZM166.367 101.287L183.703 73.4594L182.006 72.4019L164.669 100.23L166.367 101.287ZM161.411 99.977C161.411 101.324 162.378 102.196 163.395 102.451C164.408 102.706 165.66 102.407 166.364 101.292L164.672 100.225C164.507 100.486 164.206 100.593 163.883 100.512C163.564 100.432 163.411 100.224 163.411 99.977H161.411ZM161.411 77.6207V99.977H163.411V77.6207H161.411ZM155.731 78.6207H162.411V76.6207H155.731V78.6207ZM151.39 74.502C151.395 76.8314 153.407 78.6207 155.731 78.6207V76.6207C154.384 76.6207 153.393 75.6025 153.39 74.498L151.39 74.502ZM152.39 73.5H116V75.5H152.39V73.5ZM116 73.5C115.724 73.5 115.5 73.2761 115.5 73H113.5C113.5 74.3807 114.619 75.5 116 75.5V73.5ZM115.5 73C115.5 72.7239 115.724 72.5 116 72.5V70.5C114.619 70.5 113.5 71.6193 113.5 73H115.5ZM116 72.5H152.39V70.5H116V72.5ZM151.39 46.3533V71.5H153.39V46.3533H151.39ZM155.731 42.2266C153.405 42.2266 151.39 44.0201 151.39 46.3533H153.39C153.39 45.2471 154.383 44.2266 155.731 44.2266V42.2266ZM114 44.2266H155.731V42.2266H114V44.2266ZM107 51.2266C107 47.3606 110.134 44.2266 114 44.2266V42.2266C109.029 42.2266 105 46.256 105 51.2266H107ZM107 202.998V51.2266H105V202.998H107ZM114 209.998C110.134 209.998 107 206.864 107 202.998H105C105 207.969 109.029 211.998 114 211.998V209.998ZM232.753 209.998H114V211.998H232.753V209.998ZM239.753 202.998C239.753 206.864 236.619 209.998 232.753 209.998V211.998C237.724 211.998 241.753 207.969 241.753 202.998H239.753ZM239.753 78.2254V202.998H241.753V78.2254H239.753ZM202.285 43.9602L240.073 78.9591L241.432 77.4918L203.644 42.4929L202.285 43.9602ZM115.5 88C115.5 87.7239 115.724 87.5 116 87.5V85.5C114.619 85.5 113.5 86.6193 113.5 88H115.5ZM116 88.5C115.724 88.5 115.5 88.2761 115.5 88H113.5C113.5 89.3807 114.619 90.5 116 90.5V88.5ZM141.5 88.5H116V90.5H141.5V88.5ZM142 88C142 88.2761 141.776 88.5 141.5 88.5V90.5C142.881 90.5 144 89.3807 144 88H142ZM141.5 87.5C141.776 87.5 142 87.7239 142 88H144C144 86.6193 142.881 85.5 141.5 85.5V87.5ZM116 87.5H141.5V85.5H116V87.5Z" fill="#F5F6F8" mask="url(#path-2-inside-1)"/>
</g>
<path fill-rule="evenodd" clip-rule="evenodd" d="M202.716 43.4599L241 77.9961L212.049 78.3492C207.169 78.4087 203.162 74.7931 203.097 70.2736L202.716 43.4599Z" fill="#CFD8DC"/>
<path d="M148 177C156.113 167.945 177.872 155.267 200 177" stroke="#B0BEC5" stroke-width="6" stroke-linecap="round"/>
<path d="M190 139L204 125M190 125L204 139" stroke="#B0BEC5" stroke-width="5" stroke-linecap="round"/>
<path d="M143 139L157 125M143 125L157 139" stroke="#B0BEC5" stroke-width="5" stroke-linecap="round"/>
<path d="M259 194.322C259 181.994 249.006 172 236.677 172C224.349 172 214.355 181.994 214.355 194.322V210.292C214.355 214.402 217.687 217.733 221.796 217.733H236.133C248.762 217.733 259 207.495 259 194.867V194.322Z" fill="url(#paint0_linear)"/>
<path d="M244.844 202.096L229.513 187.244L210 206.147L225.331 220.999L244.844 202.096Z" fill="url(#paint1_linear)"/>
<path d="M242.666 189.424L230.689 201.402M230.689 189.424L242.666 201.402" stroke="url(#paint2_linear)" stroke-width="2.69874" stroke-linecap="round"/>
<path d="M59.95 70C50.6407 76.2062 40.7711 76.4648 37 75.8183C47.8608 91.5924 64.1521 85.1923 70.9401 80.0204C67.5785 78.9861 62.2127 72.9092 59.95 70Z" fill="#DFE8F1"/>
<path d="M44.4343 82.9287C52.8386 87.7773 58.0104 85.5146 58.9801 85.1914C54.584 85.1914 51.5456 82.6055 50.5759 81.3125C48.7657 82.6055 45.7273 83.0364 44.4343 82.9287Z" fill="#CFD7E2"/>
<path d="M272.95 16C263.641 22.2062 253.771 22.4648 250 21.8183C260.861 37.5924 277.152 31.1923 283.94 26.0204C280.578 24.9861 275.213 18.9092 272.95 16Z" fill="#DFE8F1"/>
<path d="M257.434 28.9287C265.839 33.7773 271.01 31.5146 271.98 31.1914C267.584 31.1914 264.546 28.6055 263.576 27.3125C261.766 28.6055 258.727 29.0364 257.434 28.9287Z" fill="#CFD7E2"/>
<path d="M307.985 178C295.417 186.379 282.091 186.728 277 185.855C291.663 207.152 313.659 198.511 322.823 191.529C318.285 190.132 311.04 181.928 307.985 178Z" fill="#DFE8F1"/>
<path d="M287.037 195.456C298.384 202.002 305.367 198.947 306.676 198.51C300.741 198.51 296.638 195.019 295.329 193.273C292.885 195.019 288.783 195.601 287.037 195.456Z" fill="#CFD7E2"/>
<path d="M30.9854 156C18.4167 164.379 5.09149 164.728 0 163.855C14.6635 185.152 36.6587 176.511 45.8234 169.529C41.2847 168.132 34.0403 159.928 30.9854 156Z" fill="#DFE8F1"/>
<path d="M10.0374 173.456C21.3841 180.002 28.3667 176.947 29.676 176.51C23.7407 176.51 19.6385 173.019 18.3292 171.273C15.8853 173.019 11.783 173.601 10.0374 173.456Z" fill="#CFD7E2"/>
<circle cx="285.117" cy="98.883" r="8.11742" fill="#EAEEF9"/>
<circle cx="287.823" cy="65.0587" r="4.05871" fill="#EAEEF9"/>
<circle cx="75.5898" cy="27.1719" r="6.78107" transform="rotate(45 75.5898 27.1719)" fill="#EAEEF9"/>
<circle cx="97.1672" cy="8.79103" r="3.39053" transform="rotate(45 97.1672 8.79103)" fill="#EAEEF9"/>
<defs>
<filter id="filter0_d" x="94" y="39.2266" width="158.753" height="191.772" filterUnits="userSpaceOnUse" color-interpolation-filters="sRGB">
<feFlood flood-opacity="0" result="BackgroundImageFix"/>
<feColorMatrix in="SourceAlpha" type="matrix" values="0 0 0 0 0 0 0 0 0 0 0 0 0 0 0 0 0 0 127 0" result="hardAlpha"/>
<feOffset dy="8"/>
<feGaussianBlur stdDeviation="6"/>
<feComposite in2="hardAlpha" operator="out"/>
<feColorMatrix type="matrix" values="0 0 0 0 0.129412 0 0 0 0 0.129412 0 0 0 0 0.129412 0 0 0 0.12 0"/>
<feBlend mode="normal" in2="BackgroundImageFix" result="effect1_dropShadow"/>
<feBlend mode="normal" in="SourceGraphic" in2="effect1_dropShadow" result="shape"/>
</filter>
<linearGradient id="paint0_linear" x1="256.822" y1="183.978" x2="214.355" y2="215.555" gradientUnits="userSpaceOnUse">
<stop stop-color="#FE63A7"/>
<stop offset="1" stop-color="#ED2F87"/>
</linearGradient>
<linearGradient id="paint1_linear" x1="237.875" y1="194.67" x2="216.936" y2="215.588" gradientUnits="userSpaceOnUse">
<stop stop-opacity="0.08"/>
<stop offset="1" stop-color="#EF368B" stop-opacity="0"/>
</linearGradient>
<linearGradient id="paint2_linear" x1="236.677" y1="189.424" x2="236.677" y2="201.402" gradientUnits="userSpaceOnUse">
<stop stop-color="white"/>
<stop offset="1" stop-color="#FFE5F2"/>
</linearGradient>
</defs>
</svg>
