<svg width="338" height="336" viewBox="0 0 338 336" fill="none" xmlns="http://www.w3.org/2000/svg">
<rect width="338" height="336" fill="white"/>
<circle cx="153" cy="163" r="128" fill="#E6EAF6"/>
<circle cx="40" cy="62" r="8" fill="#EAEEF7"/>
<circle cx="56" cy="42" r="4" fill="#EAEEF7"/>
<circle cx="292" cy="48" r="4" fill="#EAEEF7"/>
<circle cx="51" cy="275" r="6" fill="#EAEEF7"/>
<circle cx="258" cy="60" r="10" fill="#EAEEF7"/>
<mask id="path-8-inside-1" fill="white">
<path fill-rule="evenodd" clip-rule="evenodd" d="M242.595 78.3537L139.127 33.1998C135.077 31.4326 130.362 33.2827 128.595 37.3322L44.1998 230.719C42.4326 234.769 44.2827 239.484 48.3322 241.251L189.477 302.847C193.527 304.615 198.242 302.765 200.009 298.715L266.528 146.291L242.595 78.3537Z"/>
</mask>
<path fill-rule="evenodd" clip-rule="evenodd" d="M242.595 78.3537L139.127 33.1998C135.077 31.4326 130.362 33.2827 128.595 37.3322L44.1998 230.719C42.4326 234.769 44.2827 239.484 48.3322 241.251L189.477 302.847C193.527 304.615 198.242 302.765 200.009 298.715L266.528 146.291L242.595 78.3537Z" fill="white"/>
<path d="M139.127 33.1998L138.727 34.1163L139.127 33.1998ZM242.595 78.3537L243.538 78.0215L243.393 77.6112L242.995 77.4372L242.595 78.3537ZM128.595 37.3322L127.678 36.9322L128.595 37.3322ZM44.1998 230.719L45.1163 231.119L44.1998 230.719ZM200.009 298.715L200.926 299.115L200.009 298.715ZM266.528 146.291L267.444 146.691L267.602 146.33L267.471 145.959L266.528 146.291ZM138.727 34.1163L242.195 79.2702L242.995 77.4372L139.527 32.2833L138.727 34.1163ZM129.511 37.7322C131.058 34.1889 135.184 32.57 138.727 34.1163L139.527 32.2833C134.971 30.2952 129.666 32.3766 127.678 36.9322L129.511 37.7322ZM45.1163 231.119L129.511 37.7322L127.678 36.9322L43.2833 230.319L45.1163 231.119ZM48.7322 240.335C45.1889 238.788 43.57 234.662 45.1163 231.119L43.2833 230.319C41.2952 234.875 43.3766 240.179 47.9322 242.168L48.7322 240.335ZM189.877 301.931L48.7322 240.335L47.9322 242.168L189.077 303.764L189.877 301.931ZM199.093 298.315C197.546 301.858 193.42 303.477 189.877 301.931L189.077 303.764C193.633 305.752 198.938 303.671 200.926 299.115L199.093 298.315ZM265.611 145.891L199.093 298.315L200.926 299.115L267.444 146.691L265.611 145.891ZM267.471 145.959L243.538 78.0215L241.652 78.686L265.585 146.623L267.471 145.959Z" fill="#F5F6F8" mask="url(#path-8-inside-1)"/>
<path d="M142.592 65.2617L214.539 96.6599M134.992 82.6757L166.154 96.2749" stroke="#374D62" stroke-width="6" stroke-linecap="round" stroke-linejoin="round"/>
<path d="M119.71 120.195L162.328 138.794M176.076 144.794L230.151 168.392M109.91 142.65L191.939 178.448M100.311 164.647L156.677 189.245M169.05 194.645L210.752 212.844M118.066 200.217L200.553 236.215M79.3122 212.764L110.932 226.564M118.265 229.763L126.972 233.563" stroke="#D5D6D8" stroke-width="6" stroke-linecap="round" stroke-linejoin="round"/>
<path d="M92.1446 188.359L106.351 194.559M202.421 181.931L221.21 190.13" stroke="#E57AA6" stroke-width="6" stroke-linecap="round" stroke-linejoin="round"/>
<mask id="path-13-inside-2" fill="white">
<path fill-rule="evenodd" clip-rule="evenodd" d="M174.404 41.7103L64.7692 68.6313C60.4784 69.6849 57.8541 74.0175 58.9077 78.3083L109.225 283.221C110.278 287.512 114.611 290.136 118.902 289.082L268.459 252.358C272.749 251.305 275.374 246.972 274.32 242.681L234.661 81.173L174.404 41.7103Z"/>
</mask>
<path fill-rule="evenodd" clip-rule="evenodd" d="M174.404 41.7103L64.7692 68.6313C60.4784 69.6849 57.8541 74.0175 58.9077 78.3083L109.225 283.221C110.278 287.512 114.611 290.136 118.902 289.082L268.459 252.358C272.749 251.305 275.374 246.972 274.32 242.681L234.661 81.173L174.404 41.7103Z" fill="white"/>
<path d="M174.404 41.7103L174.952 40.8737L174.588 40.6354L174.165 40.7391L174.404 41.7103ZM58.9077 78.3083L57.9366 78.5467L58.9077 78.3083ZM109.225 283.221L110.196 282.983L109.225 283.221ZM118.902 289.082L119.14 290.054L118.902 289.082ZM268.459 252.358L268.22 251.387L268.459 252.358ZM234.661 81.173L235.632 80.9345L235.539 80.5522L235.209 80.3364L234.661 81.173ZM65.0077 69.6025L174.642 42.6814L174.165 40.7391L64.5307 67.6602L65.0077 69.6025ZM59.8789 78.0698C58.957 74.3153 61.2532 70.5244 65.0077 69.6025L64.5307 67.6602C59.7036 68.8455 56.7513 73.7196 57.9366 78.5467L59.8789 78.0698ZM110.196 282.983L59.8789 78.0698L57.9366 78.5467L108.253 283.459L110.196 282.983ZM118.663 288.111C114.909 289.033 111.118 286.737 110.196 282.983L108.253 283.459C109.439 288.287 114.313 291.239 119.14 290.054L118.663 288.111ZM268.22 251.387L118.663 288.111L119.14 290.054L268.697 253.329L268.22 251.387ZM273.349 242.92C274.271 246.674 271.975 250.465 268.22 251.387L268.697 253.329C273.524 252.144 276.477 247.27 275.291 242.443L273.349 242.92ZM233.69 81.4115L273.349 242.92L275.291 242.443L235.632 80.9345L233.69 81.4115ZM235.209 80.3364L174.952 40.8737L173.856 42.5469L234.113 82.0096L235.209 80.3364Z" fill="#F5F6F8" mask="url(#path-13-inside-2)"/>
<path fill-rule="evenodd" clip-rule="evenodd" d="M174.404 41.7113L234.661 81.1738L194.739 90.9769C190.448 92.0305 186.115 89.4062 185.062 85.1154L174.404 41.7113Z" fill="#EBEDF9"/>
<path d="M86.9847 92.0078L163.22 73.288M91.5156 110.46L124.535 102.352" stroke="#374D62" stroke-width="6" stroke-linecap="round" stroke-linejoin="round"/>
<path d="M102.145 149.553L147.303 138.464M161.87 134.887L219.168 120.817M107.987 173.346L194.905 152.003M113.71 196.654L173.436 181.988M186.547 178.768L230.734 167.918M149.411 214.145L236.815 192.682M126.23 247.639L159.735 239.412M167.504 237.504L176.73 235.239" stroke="#D5D6D8" stroke-width="6" stroke-linecap="round" stroke-linejoin="round"/>
<path d="M121.614 220.456L136.667 216.76M205.349 148.409L225.258 143.521" stroke="#E57AA6" stroke-width="6" stroke-linecap="round" stroke-linejoin="round"/>
<g filter="url(#filter0_d)">
<mask id="path-19-inside-3" fill="white">
<path fill-rule="evenodd" clip-rule="evenodd" d="M201.891 50H89C84.5817 50 81 53.5817 81 58V269C81 273.418 84.5817 277 89 277H243C247.418 277 251 273.418 251 269V102.694L201.891 50Z"/>
</mask>
<path fill-rule="evenodd" clip-rule="evenodd" d="M201.891 50H89C84.5817 50 81 53.5817 81 58V269C81 273.418 84.5817 277 89 277H243C247.418 277 251 273.418 251 269V102.694L201.891 50Z" fill="white"/>
<path d="M201.891 50L202.623 49.3182L202.326 49H201.891V50ZM251 102.694H252V102.3L251.732 102.012L251 102.694ZM89 51H201.891V49H89V51ZM82 58C82 54.134 85.134 51 89 51V49C84.0294 49 80 53.0294 80 58H82ZM82 269V58H80V269H82ZM89 276C85.134 276 82 272.866 82 269H80C80 273.971 84.0294 278 89 278V276ZM243 276H89V278H243V276ZM250 269C250 272.866 246.866 276 243 276V278C247.971 278 252 273.971 252 269H250ZM250 102.694V269H252V102.694H250ZM251.732 102.012L202.623 49.3182L201.16 50.6818L250.268 103.376L251.732 102.012Z" fill="#F5F6F8" mask="url(#path-19-inside-3)"/>
<path fill-rule="evenodd" clip-rule="evenodd" d="M201.891 49.9998L251 102.693H209.891C205.473 102.693 201.891 99.1116 201.891 94.6934V49.9998Z" fill="#EBEDF9"/>
</g>
<path d="M105 78H183.5M105 97H139" stroke="#374D62" stroke-width="6" stroke-linecap="round" stroke-linejoin="round"/>
<path d="M106 137.5H152.5M167.5 137.5H226.5M106 162H195.5M106 186H167.5M181 186H226.5M136.5 211.5H226.5M106 238.5H140.5M148.5 238.5H158" stroke="#D5D6D8" stroke-width="6" stroke-linecap="round" stroke-linejoin="round"/>
<path d="M108 211H123.5M206.5 161H227" stroke="#E57AA6" stroke-width="6" stroke-linecap="round" stroke-linejoin="round"/>
<g filter="url(#filter1_d)">
<g filter="url(#filter2_d)">
<circle cx="238.5" cy="244.5" r="47.5" fill="url(#paint0_linear)"/>
</g>
<g opacity="0.8">
<g filter="url(#filter3_d)">
<path d="M243.775 238.278C245.055 238.821 246.238 239.533 247.312 240.402V234.261C247.312 229.155 243.165 225 238.069 225H237.927C232.835 225 228.688 229.155 228.688 234.261V240.402C229.762 239.533 230.945 238.821 232.225 238.278C232.569 238.131 232.922 237.998 233.275 237.878V234.261C233.275 231.687 235.362 229.596 237.931 229.596H238.073C240.642 229.596 242.729 231.687 242.729 234.261V237.883C243.078 237.998 243.431 238.131 243.775 238.278Z" fill="white"/>
<path d="M225 251.973C225 259.166 230.821 264.999 238 264.999C245.179 264.999 251 259.171 251 251.973C251 248.439 249.592 245.231 247.312 242.882C246.028 241.563 244.468 240.515 242.725 239.83C241.261 239.256 239.665 238.943 238 238.943C236.335 238.943 234.739 239.256 233.275 239.83C231.532 240.511 229.973 241.559 228.688 242.882C226.404 245.231 225 248.439 225 251.973ZM234.651 249.344C234.697 247.566 236.142 246.118 237.917 246.076C239.803 246.031 241.349 247.552 241.349 249.432C241.349 249.629 241.33 249.822 241.298 250.006C241.133 250.958 240.569 251.776 239.78 252.272C239.454 252.479 239.289 252.865 239.371 253.237L240.367 257.967C240.427 258.252 240.211 258.523 239.917 258.523H236.083C235.789 258.523 235.573 258.256 235.633 257.967L236.628 253.237C236.706 252.86 236.546 252.474 236.22 252.267C235.431 251.771 234.867 250.958 234.702 250.002C234.665 249.79 234.647 249.57 234.651 249.344Z" fill="white"/>
</g>
</g>
</g>
<defs>
<filter id="filter0_d" x="73" y="46" width="186" height="243" filterUnits="userSpaceOnUse" color-interpolation-filters="sRGB">
<feFlood flood-opacity="0" result="BackgroundImageFix"/>
<feColorMatrix in="SourceAlpha" type="matrix" values="0 0 0 0 0 0 0 0 0 0 0 0 0 0 0 0 0 0 127 0" result="hardAlpha"/>
<feOffset dy="4"/>
<feGaussianBlur stdDeviation="4"/>
<feComposite in2="hardAlpha" operator="out"/>
<feColorMatrix type="matrix" values="0 0 0 0 0.129412 0 0 0 0 0.129412 0 0 0 0 0.129412 0 0 0 0.12 0"/>
<feBlend mode="normal" in2="BackgroundImageFix" result="effect1_dropShadow"/>
<feBlend mode="normal" in="SourceGraphic" in2="effect1_dropShadow" result="shape"/>
</filter>
<filter id="filter1_d" x="159" y="169" width="159" height="159" filterUnits="userSpaceOnUse" color-interpolation-filters="sRGB">
<feFlood flood-opacity="0" result="BackgroundImageFix"/>
<feColorMatrix in="SourceAlpha" type="matrix" values="0 0 0 0 0 0 0 0 0 0 0 0 0 0 0 0 0 0 127 0" result="hardAlpha"/>
<feOffset dy="4"/>
<feGaussianBlur stdDeviation="16"/>
<feComposite in2="hardAlpha" operator="out"/>
<feColorMatrix type="matrix" values="0 0 0 0 0.0476389 0 0 0 0 0.122876 0 0 0 0 0.408333 0 0 0 0.12 0"/>
<feBlend mode="normal" in2="BackgroundImageFix" result="effect1_dropShadow"/>
<feBlend mode="normal" in="SourceGraphic" in2="effect1_dropShadow" result="shape"/>
</filter>
<filter id="filter2_d" x="179" y="191" width="119" height="119" filterUnits="userSpaceOnUse" color-interpolation-filters="sRGB">
<feFlood flood-opacity="0" result="BackgroundImageFix"/>
<feColorMatrix in="SourceAlpha" type="matrix" values="0 0 0 0 0 0 0 0 0 0 0 0 0 0 0 0 0 0 127 0" result="hardAlpha"/>
<feOffset dy="6"/>
<feGaussianBlur stdDeviation="6"/>
<feComposite in2="hardAlpha" operator="out"/>
<feColorMatrix type="matrix" values="0 0 0 0 0.0420139 0 0 0 0 0.128481 0 0 0 0 0.504167 0 0 0 0.08 0"/>
<feBlend mode="normal" in2="BackgroundImageFix" result="effect1_dropShadow"/>
<feBlend mode="normal" in="SourceGraphic" in2="effect1_dropShadow" result="shape"/>
</filter>
<filter id="filter3_d" x="217" y="217" width="50" height="63.9987" filterUnits="userSpaceOnUse" color-interpolation-filters="sRGB">
<feFlood flood-opacity="0" result="BackgroundImageFix"/>
<feColorMatrix in="SourceAlpha" type="matrix" values="0 0 0 0 0 0 0 0 0 0 0 0 0 0 0 0 0 0 127 0" result="hardAlpha"/>
<feOffset dx="4" dy="4"/>
<feGaussianBlur stdDeviation="6"/>
<feComposite in2="hardAlpha" operator="out"/>
<feColorMatrix type="matrix" values="0 0 0 0 0.129412 0 0 0 0 0.129412 0 0 0 0 0.129412 0 0 0 0.12 0"/>
<feBlend mode="normal" in2="BackgroundImageFix" result="effect1_dropShadow"/>
<feBlend mode="normal" in="SourceGraphic" in2="effect1_dropShadow" result="shape"/>
</filter>
<linearGradient id="paint0_linear" x1="207.964" y1="211.929" x2="277.857" y2="273.679" gradientUnits="userSpaceOnUse">
<stop stop-color="#769EFF"/>
<stop offset="1" stop-color="#395FE0"/>
</linearGradient>
</defs>
</svg>
