<svg width="16" height="16" viewBox="0 0 16 16" fill="none" xmlns="http://www.w3.org/2000/svg">
<path d="M14.8571 0H1.14286C0.511675 0 0 0.511675 0 1.14286V4.24229C0 4.87347 0.511675 5.38514 1.14286 5.38514H14.8571C15.4883 5.38514 16 4.87347 16 4.24229V1.14286C16 0.511675 15.4883 0 14.8571 0Z" fill="#8B8BAB"/>
<path d="M0 14.8572C0 15.1603 0.120408 15.451 0.334735 15.6653C0.549062 15.8796 0.839753 16 1.14286 16H14.8571C15.1602 16 15.4509 15.8796 15.6653 15.6653C15.8796 15.451 16 15.1603 16 14.8572V6.85718H0V14.8572ZM4.33371 9.20346C4.33371 9.0216 4.40596 8.84719 4.53456 8.71859C4.66315 8.58999 4.83757 8.51775 5.01943 8.51775H10.9829C11.1647 8.51775 11.3391 8.58999 11.4677 8.71859C11.5963 8.84719 11.6686 9.0216 11.6686 9.20346V9.30175C11.6686 9.48361 11.5963 9.65803 11.4677 9.78662C11.3391 9.91522 11.1647 9.98746 10.9829 9.98746H5.01714C4.83528 9.98746 4.66087 9.91522 4.53227 9.78662C4.40367 9.65803 4.33143 9.48361 4.33143 9.30175L4.33371 9.20346Z" fill="#8B8BAB"/>
</svg>
