<svg width="14" height="16" viewBox="0 0 14 16" fill="none" xmlns="http://www.w3.org/2000/svg">
<g clip-path="url(#clip0)">
<path fill-rule="evenodd" clip-rule="evenodd" d="M11.846 1.46973H11.307C11.0929 1.47003 10.8876 1.56745 10.7363 1.7406C10.585 1.91374 10.5 2.14844 10.5 2.39316C10.5 2.39316 10.5 2.40916 10.5 2.41716C10.4945 2.73205 10.3813 3.03197 10.1847 3.25264C9.98802 3.47332 9.72358 3.59719 9.44799 3.59773H4.55599C4.4174 3.59803 4.28013 3.56709 4.15202 3.50669C4.02391 3.44629 3.90749 3.35761 3.8094 3.24572C3.71132 3.13384 3.6335 3.00095 3.58041 2.85465C3.52731 2.70836 3.49999 2.55153 3.49999 2.39316V2.39316C3.49999 2.14844 3.41499 1.91374 3.26368 1.7406C3.11237 1.56745 2.90711 1.47003 2.69299 1.46973H2.15399C2.04792 1.46973 1.9429 1.49362 1.84493 1.54004C1.74695 1.58646 1.65795 1.6545 1.583 1.74026C1.50805 1.82603 1.44862 1.92783 1.40813 2.03986C1.36763 2.15189 1.34685 2.27194 1.34699 2.39316V15.0789C1.34725 15.3233 1.43239 15.5576 1.5837 15.7303C1.73502 15.903 1.94013 16 2.15399 16H11.846C11.952 16 12.0571 15.9761 12.155 15.9297C12.253 15.8833 12.342 15.8152 12.417 15.7295C12.4919 15.6437 12.5513 15.5419 12.5918 15.4299C12.6323 15.3179 12.6531 15.1978 12.653 15.0766V2.39316C12.6531 2.27194 12.6323 2.15189 12.5918 2.03986C12.5513 1.92783 12.4919 1.82603 12.417 1.74026C12.342 1.6545 12.253 1.58646 12.155 1.54004C12.0571 1.49362 11.952 1.46973 11.846 1.46973V1.46973ZM8.61499 11.3852H5.38499C5.27655 11.3895 5.16846 11.3689 5.06716 11.3245C4.96586 11.28 4.87342 11.2128 4.79536 11.1266C4.7173 11.0405 4.65522 10.9373 4.61282 10.8232C4.57042 10.709 4.54856 10.5863 4.54856 10.4623C4.54856 10.3383 4.57042 10.2156 4.61282 10.1014C4.65522 9.98729 4.7173 9.88408 4.79536 9.79795C4.87342 9.71183 4.96586 9.64455 5.06716 9.60014C5.16846 9.55572 5.27655 9.53508 5.38499 9.53944H8.61499C8.72342 9.53508 8.83151 9.55572 8.93281 9.60014C9.03411 9.64455 9.12655 9.71183 9.20461 9.79795C9.28267 9.88408 9.34475 9.98729 9.38715 10.1014C9.42955 10.2156 9.45141 10.3383 9.45141 10.4623C9.45141 10.5863 9.42955 10.709 9.38715 10.8232C9.34475 10.9373 9.28267 11.0405 9.20461 11.1266C9.12655 11.2128 9.03411 11.28 8.93281 11.3245C8.83151 11.3689 8.72342 11.3895 8.61499 11.3852V11.3852ZM8.61499 7.69258H5.38499C5.27655 7.69695 5.16846 7.6763 5.06716 7.63189C4.96586 7.58748 4.87342 7.5202 4.79536 7.43407C4.7173 7.34795 4.65522 7.24474 4.61282 7.1306C4.57042 7.01646 4.54856 6.89373 4.54856 6.76973C4.54856 6.64573 4.57042 6.523 4.61282 6.40886C4.65522 6.29472 4.7173 6.19151 4.79536 6.10538C4.87342 6.01925 4.96586 5.95198 5.06716 5.90756C5.16846 5.86315 5.27655 5.84251 5.38499 5.84687H8.61499C8.72342 5.84251 8.83151 5.86315 8.93281 5.90756C9.03411 5.95198 9.12655 6.01925 9.20461 6.10538C9.28267 6.19151 9.34475 6.29472 9.38715 6.40886C9.42955 6.523 9.45141 6.64573 9.45141 6.76973C9.45141 6.89373 9.42955 7.01646 9.38715 7.1306C9.34475 7.24474 9.28267 7.34795 9.20461 7.43407C9.12655 7.5202 9.03411 7.58748 8.93281 7.63189C8.83151 7.6763 8.72342 7.69695 8.61499 7.69258V7.69258Z" fill="#8B8BAB"/>
<path fill-rule="evenodd" clip-rule="evenodd" d="M5.385 1.8458H8.615C8.72344 1.85016 8.83153 1.82952 8.93283 1.7851C9.03413 1.74069 9.12657 1.67341 9.20463 1.58729C9.28269 1.50116 9.34477 1.39795 9.38717 1.28381C9.42957 1.16967 9.45143 1.04694 9.45143 0.92294C9.45143 0.79894 9.42957 0.676209 9.38717 0.56207C9.34477 0.44793 9.28269 0.344719 9.20463 0.258593C9.12657 0.172467 9.03413 0.105191 8.93283 0.0607772C8.83153 0.0163633 8.72344 -0.00427847 8.615 8.318e-05H5.385C5.27657 -0.00427847 5.16848 0.0163633 5.06718 0.0607772C4.96588 0.105191 4.87344 0.172467 4.79538 0.258593C4.71732 0.344719 4.65524 0.44793 4.61284 0.56207C4.57044 0.676209 4.54858 0.79894 4.54858 0.92294C4.54858 1.04694 4.57044 1.16967 4.61284 1.28381C4.65524 1.39795 4.71732 1.50116 4.79538 1.58729C4.87344 1.67341 4.96588 1.74069 5.06718 1.7851C5.16848 1.82952 5.27657 1.85016 5.385 1.8458V1.8458Z" fill="#8B8BAB"/>
</g>
<defs>
<clipPath id="clip0">
<rect width="14" height="16" fill="white"/>
</clipPath>
</defs>
</svg>
