<svg width="16" height="16" viewBox="0 0 16 16" fill="none" xmlns="http://www.w3.org/2000/svg">
<g clip-path="url(#clip0)">
<path fill-rule="evenodd" clip-rule="evenodd" d="M9.48565 0.470957L1.22737 8.8241L0.0845106 14.0812C0.0278057 14.3407 0.0372289 14.6102 0.111914 14.865C0.186599 15.1198 0.324149 15.3518 0.511917 15.5396C0.699685 15.7273 0.931644 15.8649 1.18647 15.9396C1.44129 16.0142 1.71081 16.0237 1.97022 15.967L7.22737 14.8241L15.4971 6.45724C15.7917 6.15948 15.9564 5.75721 15.9554 5.33835C15.9543 4.91949 15.7875 4.51807 15.4914 4.22181L11.7348 0.4641C11.5869 0.316378 11.4113 0.199331 11.2181 0.119687C11.0249 0.0400425 10.8178 -0.000629837 10.6088 7.37292e-06C10.3998 0.000644583 10.193 0.0425788 10.0002 0.1234C9.80748 0.204221 9.63261 0.322336 9.48565 0.470957V0.470957ZM3.21137 14.2458L1.80108 12.8367L2.52108 9.53039L6.52108 13.5304L3.21137 14.2458Z" fill="#8B8BAB"/>
</g>
<defs>
<clipPath id="clip0">
<rect width="16" height="16" fill="white"/>
</clipPath>
</defs>
</svg>
