<svg width="16" height="16" viewBox="0 0 16 16" fill="none" xmlns="http://www.w3.org/2000/svg">
<g clip-path="url(#clip0)">
<path fill-rule="evenodd" clip-rule="evenodd" d="M14.0114 3L9.40571 2.98971L7.88571 1.46286C7.57535 1.17217 7.16803 1.0072 6.74286 1H1.99429C1.46484 1.00151 0.957602 1.21289 0.583765 1.5878C0.209927 1.96271 -2.16099e-06 2.47056 0 3L0 13C0.00211535 13.531 0.214449 14.0395 0.590546 14.4143C0.966643 14.7891 1.47588 14.9997 2.00686 15H13.9943C14.2575 15.0011 14.5183 14.9501 14.7618 14.85C15.0052 14.75 15.2265 14.6028 15.4129 14.4169C15.5993 14.2311 15.7471 14.0102 15.8478 13.767C15.9486 13.5239 16.0003 13.2632 16 13V5C16 4.47154 15.7909 3.96456 15.4183 3.58981C15.0457 3.21507 14.5399 3.00302 14.0114 3V3Z" fill="#8B8BAB"/>
</g>
<defs>
<clipPath id="clip0">
<rect width="16" height="16" fill="white"/>
</clipPath>
</defs>
</svg>
