<svg width="16" height="16" viewBox="0 0 16 16" fill="none" xmlns="http://www.w3.org/2000/svg">
<g clip-path="url(#clip0)">
<path d="M0.965759 13.656V12.5063C0.987081 12.0874 1.1225 11.6824 1.35736 11.3349C1.59223 10.9874 1.91761 10.7108 2.29833 10.5349V10.5349C5.9574 9.0651 10.0427 9.0651 13.7018 10.5349V10.5349C14.0825 10.7108 14.4079 10.9874 14.6427 11.3349C14.8776 11.6824 15.013 12.0874 15.0343 12.5063V13.656C15.0342 13.9642 14.9733 14.2693 14.8552 14.5539C14.737 14.8385 14.564 15.097 14.3458 15.3147C14.1277 15.5324 13.8688 15.705 13.584 15.8226C13.2991 15.9402 12.9939 16.0004 12.6858 16H3.31433C3.00617 16.0004 2.70094 15.9402 2.41609 15.8226C2.13125 15.705 1.87237 15.5324 1.65425 15.3147C1.43614 15.097 1.26306 14.8385 1.14493 14.5539C1.02679 14.2693 0.965909 13.9642 0.965759 13.656V13.656ZM8.00005 1.67162e-07C7.22695 -0.000225883 6.47116 0.228816 5.82825 0.658158C5.18534 1.0875 4.68419 1.69786 4.38818 2.41203C4.09218 3.12621 4.01461 3.91213 4.16529 4.67039C4.31598 5.42866 4.68814 6.12521 5.23472 6.67194C5.7813 7.21868 6.47774 7.59105 7.23596 7.74196C7.99418 7.89286 8.78012 7.81553 9.49438 7.51973C10.2086 7.22393 10.8192 6.72296 11.2487 6.08018C11.6782 5.43739 11.9075 4.68166 11.9075 3.90857C11.9076 3.39534 11.8067 2.88712 11.6104 2.41291C11.4141 1.93871 11.1263 1.50782 10.7634 1.14486C10.4006 0.781904 9.96976 0.493983 9.49562 0.297545C9.02147 0.101107 8.51327 1.45209e-07 8.00005 1.67162e-07V1.67162e-07Z" fill="#8B8BAB"/>
</g>
<defs>
<clipPath id="clip0">
<rect width="16" height="16" fill="white"/>
</clipPath>
</defs>
</svg>
