<svg width="16" height="16" viewBox="0 0 16 16" fill="none" xmlns="http://www.w3.org/2000/svg">
<g clip-path="url(#clip0)">
<path d="M14.4 3.75668C14.4 2.91192 14.0644 2.10177 13.4671 1.50444C12.8698 0.90711 12.0596 0.571533 11.2149 0.571533H3.18514C2.34039 0.571533 1.53024 0.90711 0.932907 1.50444C0.335577 2.10177 0 2.91192 0 3.75668L0 13.2801C0.00603284 13.8538 0.23888 14.4018 0.647673 14.8044C1.05647 15.207 1.60798 15.4314 2.18171 15.4287H14.5451C14.7348 15.4302 14.9229 15.3943 15.0987 15.3231C15.2744 15.2519 15.4345 15.1467 15.5696 15.0136C15.7047 14.8805 15.8122 14.7221 15.8861 14.5474C15.9599 14.3727 15.9987 14.1852 16 13.9955V5.34982C15.9715 4.93552 15.7936 4.54564 15.4993 4.25263C15.2051 3.95962 14.8144 3.78338 14.4 3.75668V3.75668ZM1.6 3.75668V3.49725C1.6 3.32216 1.63451 3.14878 1.70155 2.98703C1.76858 2.82528 1.86684 2.67833 1.99071 2.55457C2.11457 2.43082 2.2616 2.33268 2.42341 2.26578C2.58522 2.19888 2.75862 2.16453 2.93371 2.16468H11.4663C11.6414 2.16453 11.8148 2.19888 11.9766 2.26578C12.1384 2.33268 12.2854 2.43082 12.4093 2.55457C12.5332 2.67833 12.6314 2.82528 12.6985 2.98703C12.7655 3.14878 12.8 3.32216 12.8 3.49725V3.75668H1.6ZM11.5143 11.071C11.2024 11.0696 10.898 10.976 10.6393 10.8018C10.3806 10.6277 10.1792 10.3809 10.0605 10.0925C9.94187 9.80415 9.91124 9.48709 9.97249 9.18132C10.0337 8.87554 10.1841 8.59475 10.4047 8.37432C10.6253 8.15389 10.9062 8.0037 11.212 7.94266C11.5179 7.88163 11.8349 7.91249 12.1232 8.03136C12.4115 8.15023 12.6582 8.35178 12.8321 8.61061C13.006 8.86945 13.0994 9.17398 13.1006 9.48582C13.1004 9.69393 13.0593 9.89997 12.9795 10.0922C12.8996 10.2844 12.7827 10.4589 12.6354 10.6059C12.4881 10.7529 12.3133 10.8695 12.1209 10.9489C11.9285 11.0283 11.7224 11.069 11.5143 11.0687V11.071Z" fill="#8B8BAB"/>
</g>
<defs>
<clipPath id="clip0">
<rect width="16" height="16" fill="white"/>
</clipPath>
</defs>
</svg>
