<svg width="105" height="104" viewBox="0 0 105 104" fill="none" xmlns="http://www.w3.org/2000/svg">
<g opacity="0.16">
<rect width="2.83784" height="2.83784" rx="1.34409" fill="#F57C00"/>
<rect x="11.3516" width="2.83784" height="2.83784" rx="1.34409" fill="#F57C00"/>
<rect x="22.7026" width="2.83784" height="2.83784" rx="1.34409" fill="#F57C00"/>
<rect x="34.0542" width="2.83784" height="2.83784" rx="1.34409" fill="#F57C00"/>
<rect x="45.4053" width="2.83784" height="2.83784" rx="1.34409" fill="#F57C00"/>
<rect x="56.7568" width="2.83784" height="2.83784" rx="1.34409" fill="#F57C00"/>
<rect x="68.1084" width="2.83784" height="2.83784" rx="1.34409" fill="#F57C00"/>
<rect x="79.4595" width="2.83784" height="2.83784" rx="1.34409" fill="#F57C00"/>
<rect x="90.811" width="2.83784" height="2.83784" rx="1.34409" fill="#F57C00"/>
<rect x="102.162" width="2.83784" height="2.83784" rx="1.34409" fill="#F57C00"/>
<rect y="11.3513" width="2.83784" height="2.83784" rx="1.34409" fill="#F57C00"/>
<rect x="11.3516" y="11.3513" width="2.83784" height="2.83784" rx="1.34409" fill="#F57C00"/>
<rect x="22.7026" y="11.3513" width="2.83784" height="2.83784" rx="1.34409" fill="#F57C00"/>
<rect x="34.0542" y="11.3513" width="2.83784" height="2.83784" rx="1.34409" fill="#F57C00"/>
<rect x="45.4053" y="11.3513" width="2.83784" height="2.83784" rx="1.34409" fill="#F57C00"/>
<rect x="56.7568" y="11.3513" width="2.83784" height="2.83784" rx="1.34409" fill="#F57C00"/>
<rect x="68.1084" y="11.3513" width="2.83784" height="2.83784" rx="1.34409" fill="#F57C00"/>
<rect x="79.4595" y="11.3513" width="2.83784" height="2.83784" rx="1.34409" fill="#F57C00"/>
<rect x="90.811" y="11.3513" width="2.83784" height="2.83784" rx="1.34409" fill="#F57C00"/>
<rect x="102.162" y="11.3513" width="2.83784" height="2.83784" rx="1.34409" fill="#F57C00"/>
<rect y="22.7028" width="2.83784" height="2.83784" rx="1.34409" fill="#F57C00"/>
<rect x="11.3516" y="22.7028" width="2.83784" height="2.83784" rx="1.34409" fill="#F57C00"/>
<rect x="22.7026" y="22.7028" width="2.83784" height="2.83784" rx="1.34409" fill="#F57C00"/>
<rect x="34.0542" y="22.7028" width="2.83784" height="2.83784" rx="1.34409" fill="#F57C00"/>
<rect x="45.4053" y="22.7028" width="2.83784" height="2.83784" rx="1.34409" fill="#F57C00"/>
<rect x="56.7568" y="22.7028" width="2.83784" height="2.83784" rx="1.34409" fill="#F57C00"/>
<rect x="68.1084" y="22.7028" width="2.83784" height="2.83784" rx="1.34409" fill="#F57C00"/>
<rect x="79.4595" y="22.7028" width="2.83784" height="2.83784" rx="1.34409" fill="#F57C00"/>
<rect x="90.811" y="22.7028" width="2.83784" height="2.83784" rx="1.34409" fill="#F57C00"/>
<rect x="102.162" y="22.7028" width="2.83784" height="2.83784" rx="1.34409" fill="#F57C00"/>
<rect y="34.0541" width="2.83784" height="2.83784" rx="1.34409" fill="#F57C00"/>
<rect x="11.3516" y="34.0541" width="2.83784" height="2.83784" rx="1.34409" fill="#F57C00"/>
<rect x="22.7026" y="34.0541" width="2.83784" height="2.83784" rx="1.34409" fill="#F57C00"/>
<rect x="34.0542" y="34.0541" width="2.83784" height="2.83784" rx="1.34409" fill="#F57C00"/>
<rect x="45.4053" y="34.0541" width="2.83784" height="2.83784" rx="1.34409" fill="#F57C00"/>
<rect x="56.7568" y="34.0541" width="2.83784" height="2.83784" rx="1.34409" fill="#F57C00"/>
<rect x="68.1084" y="34.0541" width="2.83784" height="2.83784" rx="1.34409" fill="#F57C00"/>
<rect x="79.4595" y="34.0541" width="2.83784" height="2.83784" rx="1.34409" fill="#F57C00"/>
<rect x="90.811" y="34.0541" width="2.83784" height="2.83784" rx="1.34409" fill="#F57C00"/>
<rect x="102.162" y="34.0541" width="2.83784" height="2.83784" rx="1.34409" fill="#F57C00"/>
<rect y="45.4054" width="2.83784" height="2.83784" rx="1.34409" fill="#F57C00"/>
<rect x="11.3516" y="45.4054" width="2.83784" height="2.83784" rx="1.34409" fill="#F57C00"/>
<rect x="22.7026" y="45.4054" width="2.83784" height="2.83784" rx="1.34409" fill="#F57C00"/>
<rect x="34.0542" y="45.4054" width="2.83784" height="2.83784" rx="1.34409" fill="#F57C00"/>
<rect x="45.4053" y="45.4054" width="2.83784" height="2.83784" rx="1.34409" fill="#F57C00"/>
<rect x="56.7568" y="45.4054" width="2.83784" height="2.83784" rx="1.34409" fill="#F57C00"/>
<rect x="68.1084" y="45.4054" width="2.83784" height="2.83784" rx="1.34409" fill="#F57C00"/>
<rect x="79.4595" y="45.4054" width="2.83784" height="2.83784" rx="1.34409" fill="#F57C00"/>
<rect x="90.811" y="45.4054" width="2.83784" height="2.83784" rx="1.34409" fill="#F57C00"/>
<rect x="102.162" y="45.4054" width="2.83784" height="2.83784" rx="1.34409" fill="#F57C00"/>
<rect y="56.7567" width="2.83784" height="2.83784" rx="1.34409" fill="#F57C00"/>
<rect x="11.3516" y="56.7567" width="2.83784" height="2.83784" rx="1.34409" fill="#F57C00"/>
<rect x="22.7026" y="56.7567" width="2.83784" height="2.83784" rx="1.34409" fill="#F57C00"/>
<rect x="34.0542" y="56.7567" width="2.83784" height="2.83784" rx="1.34409" fill="#F57C00"/>
<rect x="45.4053" y="56.7567" width="2.83784" height="2.83784" rx="1.34409" fill="#F57C00"/>
<rect x="56.7568" y="56.7567" width="2.83784" height="2.83784" rx="1.34409" fill="#F57C00"/>
<rect x="68.1084" y="56.7567" width="2.83784" height="2.83784" rx="1.34409" fill="#F57C00"/>
<rect x="79.4595" y="56.7567" width="2.83784" height="2.83784" rx="1.34409" fill="#F57C00"/>
<rect x="90.811" y="56.7567" width="2.83784" height="2.83784" rx="1.34409" fill="#F57C00"/>
<rect x="102.162" y="56.7567" width="2.83784" height="2.83784" rx="1.34409" fill="#F57C00"/>
<rect y="68.1082" width="2.83784" height="2.83784" rx="1.34409" fill="#F57C00"/>
<rect y="79.0562" width="2.83784" height="2.83784" rx="1.34409" fill="#F57C00"/>
<rect y="90.004" width="2.83784" height="2.83784" rx="1.34409" fill="#F57C00"/>
<rect y="100.952" width="2.83784" height="2.83784" rx="1.34409" fill="#F57C00"/>
<rect x="11.3516" y="68.1082" width="2.83784" height="2.83784" rx="1.34409" fill="#F57C00"/>
<rect x="11.3516" y="79.0562" width="2.83784" height="2.83784" rx="1.34409" fill="#F57C00"/>
<rect x="11.3516" y="90.004" width="2.83784" height="2.83784" rx="1.34409" fill="#F57C00"/>
<rect x="11.3516" y="100.952" width="2.83784" height="2.83784" rx="1.34409" fill="#F57C00"/>
<rect x="22.7026" y="68.1082" width="2.83784" height="2.83784" rx="1.34409" fill="#F57C00"/>
<rect x="22.7026" y="79.0562" width="2.83784" height="2.83784" rx="1.34409" fill="#F57C00"/>
<rect x="22.7026" y="90.004" width="2.83784" height="2.83784" rx="1.34409" fill="#F57C00"/>
<rect x="22.7026" y="100.952" width="2.83784" height="2.83784" rx="1.34409" fill="#F57C00"/>
<rect x="34.0542" y="68.1082" width="2.83784" height="2.83784" rx="1.34409" fill="#F57C00"/>
<rect x="34.0542" y="79.0562" width="2.83784" height="2.83784" rx="1.34409" fill="#F57C00"/>
<rect x="34.0542" y="90.004" width="2.83784" height="2.83784" rx="1.34409" fill="#F57C00"/>
<rect x="34.0542" y="100.952" width="2.83784" height="2.83784" rx="1.34409" fill="#F57C00"/>
<rect x="45.4053" y="68.1082" width="2.83784" height="2.83784" rx="1.34409" fill="#F57C00"/>
<rect x="45.4053" y="79.0562" width="2.83784" height="2.83784" rx="1.34409" fill="#F57C00"/>
<rect x="45.4053" y="90.004" width="2.83784" height="2.83784" rx="1.34409" fill="#F57C00"/>
<rect x="45.4053" y="100.952" width="2.83784" height="2.83784" rx="1.34409" fill="#F57C00"/>
<rect x="56.7568" y="68.1082" width="2.83784" height="2.83784" rx="1.34409" fill="#F57C00"/>
<rect x="56.7568" y="79.0562" width="2.83784" height="2.83784" rx="1.34409" fill="#F57C00"/>
<rect x="56.7568" y="90.004" width="2.83784" height="2.83784" rx="1.34409" fill="#F57C00"/>
<rect x="56.7568" y="100.952" width="2.83784" height="2.83784" rx="1.34409" fill="#F57C00"/>
<rect x="68.1084" y="68.1082" width="2.83784" height="2.83784" rx="1.34409" fill="#F57C00"/>
<rect x="68.1084" y="79.0562" width="2.83784" height="2.83784" rx="1.34409" fill="#F57C00"/>
<rect x="68.1084" y="90.004" width="2.83784" height="2.83784" rx="1.34409" fill="#F57C00"/>
<rect x="68.1084" y="100.952" width="2.83784" height="2.83784" rx="1.34409" fill="#F57C00"/>
<rect x="79.4595" y="68.1082" width="2.83784" height="2.83784" rx="1.34409" fill="#F57C00"/>
<rect x="79.4595" y="79.0562" width="2.83784" height="2.83784" rx="1.34409" fill="#F57C00"/>
<rect x="79.4595" y="90.004" width="2.83784" height="2.83784" rx="1.34409" fill="#F57C00"/>
<rect x="79.4595" y="100.952" width="2.83784" height="2.83784" rx="1.34409" fill="#F57C00"/>
<rect x="90.811" y="68.1082" width="2.83784" height="2.83784" rx="1.34409" fill="#F57C00"/>
<rect x="90.811" y="79.0562" width="2.83784" height="2.83784" rx="1.34409" fill="#F57C00"/>
<rect x="90.811" y="90.004" width="2.83784" height="2.83784" rx="1.34409" fill="#F57C00"/>
<rect x="90.811" y="100.952" width="2.83784" height="2.83784" rx="1.34409" fill="#F57C00"/>
<rect x="102.162" y="68.1082" width="2.83784" height="2.83784" rx="1.34409" fill="#F57C00"/>
<rect x="102.162" y="79.0562" width="2.83784" height="2.83784" rx="1.34409" fill="#F57C00"/>
<rect x="102.162" y="90.004" width="2.83784" height="2.83784" rx="1.34409" fill="#F57C00"/>
<rect x="102.162" y="100.952" width="2.83784" height="2.83784" rx="1.34409" fill="#F57C00"/>
</g>
</svg>
