<svg width="14" height="14" viewBox="0 0 14 14" fill="none" xmlns="http://www.w3.org/2000/svg">
<path fill-rule="evenodd" clip-rule="evenodd" d="M0 6.17398V12.1C0 12.4448 0.136964 12.7754 0.380761 13.0192C0.624558 13.263 0.955219 13.4 1.3 13.4H12.7C13.0448 13.4 13.3754 13.263 13.6192 13.0192C13.863 12.7754 14 12.4448 14 12.1V6.17398C13.9998 5.97259 13.9528 5.77399 13.8628 5.59385C13.7727 5.41372 13.642 5.25698 13.481 5.13598L7.78 0.858982C7.55516 0.690686 7.28185 0.599731 7.001 0.599731C6.72015 0.599731 6.44685 0.690686 6.222 0.858982L0.519 5.13598C0.357999 5.25698 0.227311 5.41372 0.137244 5.59385C0.0471768 5.77399 0.000193604 5.97259 0 6.17398H0ZM7 8.58798L2.917 5.52498L6.222 3.04698C6.44685 2.87869 6.72015 2.78773 7.001 2.78773C7.28185 2.78773 7.55516 2.87869 7.78 3.04698L11.08 5.52498L7 8.58798Z" fill="#5A45BE"/>
</svg>
