<svg width="14" height="14" viewBox="0 0 14 14" fill="none" xmlns="http://www.w3.org/2000/svg">
<g clip-path="url(#clip0)">
<path d="M0.535001 3.851V3.863L6.435 6.554H6.441C6.6164 6.63565 6.80753 6.67795 7.001 6.67795C7.19447 6.67795 7.3856 6.63565 7.561 6.554H7.567L13.467 3.863V3.851C13.5758 3.81505 13.671 3.74659 13.7396 3.65485C13.8083 3.56312 13.8472 3.45253 13.851 3.338C13.8473 3.22261 13.8079 3.11121 13.7382 3.01915C13.6686 2.92709 13.572 2.85891 13.462 2.824L7.57 0.124H7.559C7.38396 0.0423261 7.19316 0 7 0C6.80685 0 6.61604 0.0423261 6.441 0.124H6.43L0.540001 2.824C0.429954 2.85891 0.333444 2.92709 0.263773 3.01915C0.194102 3.11121 0.154701 3.22261 0.151001 3.338C0.154833 3.45253 0.193706 3.56312 0.262373 3.65485C0.331041 3.74659 0.426197 3.81505 0.535001 3.851Z" fill="#5A45BE"/>
<path d="M13.46 6.48499L12.307 5.95599C10.5 6.78299 8.03001 7.90899 8.00001 7.91899C7.35778 8.1743 6.64223 8.1743 6.00001 7.91899C5.97201 7.90999 3.50601 6.78499 1.70001 5.95699L0.540008 6.48499C0.428233 6.5163 0.329702 6.58317 0.259335 6.67549C0.188967 6.7678 0.150596 6.88053 0.150031 6.99661C0.149466 7.11268 0.186738 7.22578 0.256203 7.31878C0.325668 7.41177 0.423543 7.4796 0.535008 7.51199V7.52299L6.43501 10.215H6.44101C6.61641 10.2966 6.80754 10.3389 7.00101 10.3389C7.19448 10.3389 7.38561 10.2966 7.56101 10.215H7.56701L13.467 7.52299V7.51199C13.5786 7.48014 13.6768 7.41279 13.7467 7.32013C13.8166 7.22748 13.8545 7.11457 13.8545 6.99849C13.8545 6.88242 13.8166 6.76951 13.7467 6.67685C13.6768 6.5842 13.5786 6.51685 13.467 6.48499H13.46Z" fill="#5A45BE"/>
<path d="M13.46 10.148L12.307 9.61902C10.5 10.447 8.02998 11.573 7.99998 11.582C7.35801 11.8386 6.64195 11.8386 5.99998 11.582C5.97198 11.573 3.50598 10.448 1.69998 9.62002L0.53998 10.148C0.42837 10.1797 0.330066 10.2467 0.259886 10.3391C0.189705 10.4315 0.151449 10.5441 0.150885 10.6601C0.150321 10.7761 0.187478 10.8892 0.256757 10.9822C0.326036 11.0753 0.423683 11.1433 0.53498 11.176V11.187L6.43498 13.878H6.44098C6.61638 13.9597 6.80751 14.002 7.00098 14.002C7.19445 14.002 7.38558 13.9597 7.56098 13.878H7.56698L13.467 11.187V11.176C13.5784 11.1438 13.6764 11.0763 13.7461 10.9836C13.8159 10.8909 13.8536 10.778 13.8536 10.662C13.8536 10.546 13.8159 10.4332 13.7461 10.3404C13.6764 10.2477 13.5784 10.1802 13.467 10.148H13.46Z" fill="#5A45BE"/>
</g>
<defs>
<clipPath id="clip0">
<rect width="14" height="14" fill="white"/>
</clipPath>
</defs>
</svg>
