<svg width="14" height="14" viewBox="0 0 14 14" fill="none" xmlns="http://www.w3.org/2000/svg">
<g clip-path="url(#clip0)">
<path fill-rule="evenodd" clip-rule="evenodd" d="M8.29996 0.412026L1.07396 7.72103L0.073962 12.321C0.0243452 12.548 0.0325905 12.7838 0.0979399 13.0068C0.163289 13.2298 0.283645 13.4327 0.447942 13.597C0.612239 13.7613 0.815204 13.8817 1.03818 13.947C1.26115 14.0124 1.49697 14.0206 1.72396 13.971L6.32396 12.971L13.56 5.65003C13.8177 5.38948 13.9619 5.0375 13.961 4.67099C13.96 4.30449 13.8141 3.95325 13.555 3.69403L10.268 0.406026C10.1386 0.27677 9.98494 0.174354 9.81586 0.104665C9.64678 0.0349761 9.46559 -0.000612143 9.28271 -5.45839e-05C9.09984 0.000502975 8.91887 0.0371954 8.75022 0.107914C8.58156 0.178633 8.42855 0.281983 8.29996 0.412026ZM2.80996 12.465L1.57596 11.232L2.20596 8.33903L5.70596 11.839L2.80996 12.465Z" fill="#FAFAFA"/>
</g>
<defs>
<clipPath id="clip0">
<rect width="14" height="14" fill="white"/>
</clipPath>
</defs>
</svg>
