<svg width="16" height="16" viewBox="0 0 16 16" fill="none" xmlns="http://www.w3.org/2000/svg">
<path d="M8.00004 1.33334C4.32004 1.33334 1.33337 4.32001 1.33337 8.00001C1.33337 11.68 4.32004 14.6667 8.00004 14.6667C11.68 14.6667 14.6667 11.68 14.6667 8.00001C14.6667 4.32001 11.68 1.33334 8.00004 1.33334ZM6.19337 10.86L3.80004 8.46668C3.54004 8.20668 3.54004 7.78668 3.80004 7.52668C4.06004 7.26668 4.48004 7.26668 4.74004 7.52668L6.66671 9.44668L11.2534 4.86001C11.5134 4.60001 11.9334 4.60001 12.1934 4.86001C12.4534 5.12001 12.4534 5.54001 12.1934 5.80001L7.13337 10.86C6.88004 11.12 6.45337 11.12 6.19337 10.86Z" fill="url(#paint0_linear)"/>
<defs>
<linearGradient id="paint0_linear" x1="1.33337" y1="8.00001" x2="14.6667" y2="8.00001" gradientUnits="userSpaceOnUse">
<stop stop-color="#00CDAC"/>
<stop offset="1" stop-color="#8DDAD5"/>
</linearGradient>
</defs>
</svg>
