<svg width="24" height="24" viewBox="0 0 24 24" fill="none" xmlns="http://www.w3.org/2000/svg">
<g filter="url(#filter0_b)">
<rect width="24" height="24" rx="4" fill="#212121" fill-opacity="0.4"/>
<path d="M15.0602 10H14.0002V6.66667C14.0002 6.3 13.7002 6 13.3335 6H10.6668C10.3002 6 10.0002 6.3 10.0002 6.66667V10H8.94016C8.34683 10 8.04683 10.72 8.46683 11.14L11.5268 14.2C11.7868 14.46 12.2068 14.46 12.4668 14.2L15.5268 11.14C15.9468 10.72 15.6535 10 15.0602 10ZM7.3335 16.6667C7.3335 17.0333 7.6335 17.3333 8.00016 17.3333H16.0002C16.3668 17.3333 16.6668 17.0333 16.6668 16.6667C16.6668 16.3 16.3668 16 16.0002 16H8.00016C7.6335 16 7.3335 16.3 7.3335 16.6667Z" fill="white"/>
</g>
<defs>
<filter id="filter0_b" x="-31" y="-31" width="86" height="86" filterUnits="userSpaceOnUse" color-interpolation-filters="sRGB">
<feFlood flood-opacity="0" result="BackgroundImageFix"/>
<feGaussianBlur in="BackgroundImage" stdDeviation="15.5"/>
<feComposite in2="SourceAlpha" operator="in" result="effect1_backgroundBlur"/>
<feBlend mode="normal" in="SourceGraphic" in2="effect1_backgroundBlur" result="shape"/>
</filter>
</defs>
</svg>
