<svg width="161" height="125" viewBox="0 0 161 125" fill="none" xmlns="http://www.w3.org/2000/svg">
<rect width="161" height="125" fill="white"/>
<circle cx="79" cy="68" r="49" fill="url(#paint0_linear)"/>
<path fill-rule="evenodd" clip-rule="evenodd" d="M14 49C11.7909 49 10 50.7909 10 53V76C10 78.2091 11.7909 80 14 80H64.8413C65.3215 80 65.7856 80.1728 66.149 80.4868L74.3461 87.5707C74.994 88.1306 76 87.6704 76 86.8141V76.3472V76.3472C76 76.2698 75.9962 76.1923 75.9984 76.1149C75.9995 76.0767 76 76.0384 76 76V53C76 50.7909 74.2091 49 72 49H14Z" fill="#CED6E2"/>
<path fill-rule="evenodd" clip-rule="evenodd" d="M142 13C144.209 13 146 14.7909 146 17V37C146 39.2091 144.209 41 142 41H96.0016C95.5214 41 95.0572 41.1728 94.6939 41.4868L87.6539 47.5707C87.006 48.1306 86 47.6704 86 46.8141V37V36.3472V17C86 14.7909 87.7909 13 90 13H142Z" fill="#CED6E2"/>
<path fill-rule="evenodd" clip-rule="evenodd" d="M55 8C52.7909 8 51 9.79086 51 12V28.8351C51 31.0442 52.7909 32.8351 55 32.8351H68.6608C69.2278 32.8351 69.7681 33.0757 70.1474 33.4971L74.2567 38.063C74.8698 38.7442 76 38.3105 76 37.394V30.9411V29.4618V12C76 9.79086 74.2091 8 72 8H55Z" fill="#CED6E2"/>
<circle cx="57" cy="101" r="16" fill="white"/>
<circle cx="102" cy="67" r="16" fill="white"/>
<circle cx="35.5" cy="26.5" r="2.5" fill="#EAEEF9"/>
<circle cx="135.5" cy="58.5" r="2.5" fill="#EAEEF9"/>
<circle cx="137.5" cy="70.5" r="4.5" fill="#EAEEF9"/>
<circle cx="25.5" cy="101.5" r="4.5" fill="#EAEEF9"/>
<rect x="19" y="57" width="45" height="5" rx="1" fill="url(#paint1_linear)"/>
<rect x="19" y="68" width="45" height="5" rx="1" fill="url(#paint2_linear)"/>
<rect x="95" y="20" width="45" height="5" rx="1" fill="url(#paint3_linear)"/>
<rect x="95" y="30" width="45" height="5" rx="1" fill="url(#paint4_linear)"/>
<path d="M62.9933 13.3333C59.3133 13.3333 56.3333 16.3199 56.3333 19.9999C56.3333 23.6799 59.3133 26.6666 62.9933 26.6666C66.6799 26.6666 69.6666 23.6799 69.6666 19.9999C69.6666 16.3199 66.6799 13.3333 62.9933 13.3333ZM60.6666 17.3333C61.2199 17.3333 61.6666 17.7799 61.6666 18.3333C61.6666 18.8866 61.2199 19.3333 60.6666 19.3333C60.1133 19.3333 59.6666 18.8866 59.6666 18.3333C59.6666 17.7799 60.1133 17.3333 60.6666 17.3333ZM66.1666 21.8333C65.5333 22.9266 64.3533 23.6666 62.9999 23.6666C61.6466 23.6666 60.4666 22.9266 59.8333 21.8333C59.7066 21.6133 59.8733 21.3333 60.1266 21.3333H65.8733C66.1333 21.3333 66.2933 21.6133 66.1666 21.8333ZM65.3333 19.3333C64.7799 19.3333 64.3333 18.8866 64.3333 18.3333C64.3333 17.7799 64.7799 17.3333 65.3333 17.3333C65.8866 17.3333 66.3333 17.7799 66.3333 18.3333C66.3333 18.8866 65.8866 19.3333 65.3333 19.3333Z" fill="white"/>
<mask id="mask0" mask-type="alpha" maskUnits="userSpaceOnUse" x="88" y="53" width="28" height="28">
<circle cx="102" cy="67" r="14" fill="#CDD5E8"/>
</mask>
<g mask="url(#mask0)">
<circle cx="102" cy="67" r="14" fill="#CDD5E8"/>
<path d="M110 79.0049V81.1718C110 81.4157 109.802 81.6133 109.558 81.6133H93.4418C93.1978 81.6133 93.0002 81.4157 93.0002 81.1718V79.0049C93.0002 76.7314 94.8431 74.8896 97.1171 74.8891C97.9207 74.8885 98.6283 74.4751 99.0357 73.8481C99.4449 73.2192 99.4027 72.6724 99.4027 72.2304L99.411 72.21C97.4295 71.3898 96.0359 69.4376 96.0359 67.1598V66.987C95.2491 66.987 94.656 66.3652 94.656 65.6325V63.3387C94.6384 62.54 94.6748 59.7235 96.7092 57.7625C99.0748 55.4824 102.824 55.669 105.539 56.8888C105.627 56.9285 105.625 57.0549 105.535 57.0919L104.827 57.3833C104.721 57.4269 104.744 57.5831 104.857 57.5952L105.201 57.6322C106.848 57.8083 108.377 58.7024 109.325 60.1905C109.351 60.2307 109.344 60.292 109.311 60.3268C108.726 60.9455 108.399 61.7668 108.399 62.6206V65.6325C108.399 66.3804 107.793 66.987 107.045 66.987H106.964V67.1598C106.964 69.4376 105.571 71.3898 103.589 72.21L103.597 72.2304C103.597 72.6596 103.552 73.2139 103.964 73.8481C104.372 74.4751 105.079 74.8885 105.883 74.8891C108.157 74.8896 110 76.7314 110 79.0049Z" fill="#FEFFFF"/>
<path d="M110 79.0048V81.1717C110 81.4156 109.802 81.6133 109.558 81.6133H93.4415C93.1977 81.6133 93 81.4156 93 81.1717V79.0048C93 76.7314 94.8432 74.8899 97.1166 74.889C97.9205 74.8888 98.6282 74.4749 99.0354 73.8481C100.457 75.0625 102.542 75.0632 103.964 73.8481C104.371 74.4749 105.079 74.8888 105.883 74.889C108.156 74.8899 110 76.7314 110 79.0048V79.0048Z" fill="#DDE0EA"/>
<path d="M109.325 60.1903C109.351 60.2306 109.344 60.2915 109.311 60.3262C108.726 60.9453 108.399 61.7663 108.399 62.6202V65.6321C108.399 66.3159 107.884 66.9866 106.964 66.9866V63.5773C106.964 62.1141 105.778 60.928 104.315 60.928H98.6853C97.2222 60.928 96.0361 62.1141 96.0361 63.5773V66.9866C95.2493 66.9866 94.6562 66.3648 94.6562 65.6321V63.3383C94.6385 62.5396 94.675 59.7231 96.7094 57.7621C99.0748 55.482 102.824 55.6686 105.539 56.8885C105.627 56.9282 105.625 57.0547 105.535 57.0915L104.827 57.3831C104.721 57.4267 104.744 57.5827 104.858 57.5949L105.202 57.6318C106.848 57.8077 108.377 58.7019 109.325 60.1903V60.1903Z" fill="#A2ABBC"/>
<path d="M106.964 67.1588C106.964 70.1777 104.517 72.623 101.5 72.623C98.658 72.623 96.0359 70.4136 96.0359 66.9861V63.5768C96.0359 62.1136 97.222 60.9275 98.6852 60.9275H104.315C105.778 60.9275 106.964 62.1136 106.964 63.5768V67.1588Z" fill="white"/>
<path d="M105.97 80.6748H104.646C104.402 80.6748 104.204 80.4771 104.204 80.2333C104.204 79.9895 104.402 79.7917 104.646 79.7917H105.97C106.214 79.7917 106.412 79.9895 106.412 80.2333C106.412 80.4771 106.214 80.6748 105.97 80.6748Z" fill="white"/>
<path d="M103.66 73.1365C102.3 73.7057 100.806 73.7499 99.3407 73.1365C99.4156 72.826 99.4031 72.6248 99.4031 72.2302L99.4114 72.2098C100.741 72.7615 102.258 72.7626 103.59 72.2098L103.598 72.2302C103.598 72.625 103.585 72.8261 103.66 73.1365Z" fill="#EAEEF9"/>
<path opacity="0.16" d="M99.3408 76.2223C99.1366 76.2865 98.9178 76.3219 98.6831 76.324C96.4038 76.344 94.5454 78.1463 94.5454 80.4257V80.8406C94.5454 81.2673 94.1995 81.6133 93.7727 81.6133H93.4415C93.1977 81.6133 93 81.4156 93 81.1717V79.0048C93 76.7313 94.8432 74.8899 97.1166 74.889C97.9205 74.8888 98.6282 74.4749 99.0354 73.8481C99.1996 73.9883 99.3753 74.1143 99.5604 74.2246C100.375 74.7098 100.245 75.938 99.3408 76.2223Z" fill="white"/>
<path opacity="0.04" d="M103.66 76.2223C103.864 76.2865 104.083 76.3219 104.317 76.324C106.597 76.344 108.455 78.1463 108.455 80.4257V80.8406C108.455 81.2673 108.801 81.6133 109.228 81.6133H109.559C109.803 81.6133 110 81.4156 110 81.1717V79.0048C110 76.7313 108.157 74.8899 105.884 74.889C105.08 74.8888 104.372 74.4749 103.965 73.8481C103.801 73.9883 103.625 74.1143 103.44 74.2246C102.626 74.7098 102.755 75.938 103.66 76.2223V76.2223Z" fill="#212121"/>
<path d="M105.535 57.0915C104.886 57.3586 104.794 57.4175 104.569 57.3826C100.944 56.8207 97.7641 58.3205 96.684 61.8415V61.842C96.28 62.3068 96.036 62.9139 96.036 63.5773V65.6483C96.036 66.5418 94.6562 66.604 94.6562 65.6322V63.3383C94.6385 62.5397 94.675 59.7231 96.7094 57.7621C99.075 55.4821 102.824 55.6686 105.539 56.8884C105.628 56.9281 105.625 57.0545 105.535 57.0915V57.0915Z" fill="#A2ABBC"/>
</g>
<mask id="mask1" mask-type="alpha" maskUnits="userSpaceOnUse" x="43" y="87" width="28" height="28">
<circle cx="57" cy="101" r="14" fill="#CDD5E8"/>
</mask>
<g mask="url(#mask1)">
<circle cx="57" cy="101" r="14" fill="#CDD5E8"/>
<path d="M65.5387 113.351V115.551C65.5387 115.799 65.3381 115.999 65.0904 115.999H48.7287C48.481 115.999 48.2804 115.799 48.2804 115.551V113.351C48.2804 111.66 49.2862 110.202 50.7324 109.545C50.1423 109.075 49.2429 108.444 48.5886 107.087C47.6772 105.199 47.8332 102.971 48.9943 101.227C49.6252 100.28 49.9614 99.1687 49.9614 98.0313V95.6033C49.9614 92.5086 52.47 90 55.5647 90H58.2543C61.3491 90 63.8577 92.5086 63.8577 95.6033C63.8577 98.1745 63.7949 98.678 64.1048 99.7005C64.5421 101.146 65.1198 101.325 65.565 102.796C66.2649 105.109 65.4907 107.631 63.5831 109.15L63.0866 109.545C64.5329 110.202 65.5387 111.66 65.5387 113.351Z" fill="#F9FBFD"/>
<path d="M65.5384 113.352V115.552C65.5384 115.799 65.3377 116 65.0901 116H48.7284C48.4808 116 48.2801 115.799 48.2801 115.552V113.352C48.2801 111.045 50.1499 109.173 52.4585 109.173C52.802 109.173 53.1281 109.099 53.4212 108.966L53.4352 108.996L56.6349 111.473C56.7964 111.598 57.0221 111.598 57.1837 111.473L60.3833 108.996L60.3973 108.966C60.6904 109.099 61.0165 109.173 61.36 109.173C63.6596 109.173 65.5384 111.037 65.5384 113.352V113.352Z" fill="#DDE0EA"/>
<path d="M62.0325 98.1955C62.2704 98.209 62.4567 98.4046 62.4567 98.643V101.326C62.4567 103.639 61.0419 105.621 59.0303 106.453C55.3928 107.963 51.3621 105.281 51.3621 101.326V98.682C51.3621 98.4192 51.5872 98.2116 51.8488 98.2353C54.5377 98.4791 57.1856 97.8001 59.409 96.3022C59.6619 96.1319 60.0101 96.2581 60.0899 96.5524C60.3665 97.5718 61.1209 98.1435 62.0325 98.1955Z" fill="white"/>
<path d="M63.5835 109.15L63.0871 109.545C62.5609 109.306 61.9765 109.173 61.3607 109.173C60.0815 109.173 59.0392 108.14 59.0392 106.857V106.474L59.0308 106.453C61.0424 105.62 62.4573 103.639 62.4573 101.326V98.6428C62.4573 98.4044 62.271 98.2089 62.033 98.1953C61.127 98.1437 60.3689 97.5782 60.0905 96.5523C60.0106 96.258 59.6624 96.1318 59.4096 96.3021C57.1876 97.799 54.5399 98.4791 51.8494 98.2352C51.5877 98.2115 51.3627 98.4191 51.3627 98.6819V101.326C51.3627 103.639 52.7775 105.62 54.7891 106.453L54.7807 106.474V106.857C54.7807 108.14 53.7387 109.173 52.4592 109.173C51.8434 109.173 51.259 109.306 50.7329 109.545L50.2364 109.15C47.8264 107.23 47.2897 103.788 48.9947 101.227C49.6256 100.28 49.9618 99.1688 49.9618 98.0313V95.6033C49.9618 92.5087 52.4706 90 55.5652 90H58.2548C61.3494 90 63.8581 92.5087 63.8581 95.6033V98.0313C63.8581 99.1674 64.1943 100.28 64.8252 101.227C66.5364 103.797 65.9845 107.239 63.5835 109.15V109.15Z" fill="#A2ABBC"/>
<path d="M59.1021 107.394C57.7216 107.971 56.2045 108.016 54.7169 107.394C54.7929 107.078 54.7802 106.874 54.7802 106.473L54.7886 106.453C56.138 107.013 57.6783 107.014 59.0304 106.453L59.0388 106.473C59.0388 106.874 59.0261 107.078 59.1021 107.394Z" fill="#EAEEF9"/>
<path d="M60.7855 90.603C61.3577 90.8933 61.109 91.7667 60.4702 91.7062C60.2941 91.6895 60.1156 91.681 59.9351 91.681H57.2455C54.1509 91.681 51.6422 94.1897 51.6422 97.2843V97.9661C51.6422 98.3687 51.362 98.3557 51.362 98.6818C51.362 101.642 51.374 101.454 51.3306 101.582C50.891 102.875 50.3631 103.062 49.9348 104.477C49.7016 105.248 49.6326 106.042 49.7134 106.812C49.7794 107.441 48.904 107.742 48.5884 107.087C47.6835 105.212 47.8252 102.983 48.994 101.227C49.625 100.28 49.9612 99.1687 49.9612 98.0313V95.6033C49.9612 92.5087 52.4699 90 55.5645 90H58.2541C59.165 90 60.0251 90.2174 60.7855 90.603V90.603Z" fill="#A2ABBC"/>
<path d="M55.846 105.043C56.6831 105.603 56.0451 106.899 55.0946 106.565C53.0053 105.832 51.3621 103.882 51.3621 101.326V98.6822C51.3621 98.4194 51.5874 98.2121 51.8491 98.2356C52.0638 98.2551 52.2996 98.2704 52.554 98.2782C53.0146 98.2922 53.3793 98.6725 53.3793 99.1333V100.43C53.3793 102.381 54.3743 104.057 55.846 105.043Z" fill="white"/>
<path opacity="0.16" d="M54.3593 109.711C54.6253 109.917 54.4847 110.349 54.1484 110.35C51.7764 110.359 49.9611 112.264 49.9611 114.529V116H48.7284C48.4808 116 48.2801 115.799 48.2801 115.552V113.352C48.2801 111.045 50.15 109.173 52.4585 109.173C52.802 109.173 53.1281 109.099 53.4212 108.966L53.4352 108.996L54.3593 109.711Z" fill="white"/>
<path opacity="0.04" d="M59.4589 109.711C59.193 109.917 59.3335 110.349 59.6698 110.35C62.0419 110.359 63.8571 112.264 63.8571 114.529V116H65.0898C65.3374 116 65.5381 115.799 65.5381 115.552V113.352C65.5381 111.045 63.6683 109.173 61.3597 109.173C61.0162 109.173 60.6901 109.099 60.3971 108.966L60.383 108.996L59.4589 109.711Z" fill="#212121"/>
</g>
<defs>
<linearGradient id="paint0_linear" x1="74" y1="86" x2="128" y2="123" gradientUnits="userSpaceOnUse">
<stop stop-color="#EAEEF9"/>
<stop offset="1" stop-color="#D9E1F7"/>
</linearGradient>
<linearGradient id="paint1_linear" x1="19" y1="59.5" x2="81.5" y2="59.5" gradientUnits="userSpaceOnUse">
<stop stop-color="#B5BAC6"/>
<stop offset="0.754648" stop-color="#B5BAC6" stop-opacity="0"/>
</linearGradient>
<linearGradient id="paint2_linear" x1="19" y1="70.5" x2="81.5" y2="70.5" gradientUnits="userSpaceOnUse">
<stop stop-color="#B5BAC6"/>
<stop offset="0.390574" stop-color="#B5BAC6" stop-opacity="0"/>
</linearGradient>
<linearGradient id="paint3_linear" x1="95" y1="22.5" x2="157.5" y2="22.5" gradientUnits="userSpaceOnUse">
<stop stop-color="#B5BAC6"/>
<stop offset="0.708014" stop-color="#B5BAC6" stop-opacity="0"/>
</linearGradient>
<linearGradient id="paint4_linear" x1="95" y1="32.5" x2="157.5" y2="32.5" gradientUnits="userSpaceOnUse">
<stop stop-color="#B5BAC6"/>
<stop offset="0.508022" stop-color="#B5BAC6" stop-opacity="0"/>
</linearGradient>
</defs>
</svg>
