<svg width="198" height="218" viewBox="0 0 198 218" fill="none" xmlns="http://www.w3.org/2000/svg">
<circle cx="99.9188" cy="85.0808" r="68.2562" fill="#EBEFF9"/>
<g filter="url(#filter0_d)">
<mask id="path-2-inside-1" fill="white">
<path fill-rule="evenodd" clip-rule="evenodd" d="M85.7888 23.3366L31.7315 57.2571C29.3808 58.7322 28.6709 61.8336 30.146 64.1844L87.1244 154.988C88.5995 157.339 91.701 158.049 94.0517 156.574L163.573 112.949C165.924 111.474 166.634 108.373 165.159 106.022L117.884 30.6827L85.7888 23.3366Z"/>
</mask>
<path fill-rule="evenodd" clip-rule="evenodd" d="M85.7888 23.3366L31.7315 57.2571C29.3808 58.7322 28.6709 61.8336 30.146 64.1844L87.1244 154.988C88.5995 157.339 91.701 158.049 94.0517 156.574L163.573 112.949C165.924 111.474 166.634 108.373 165.159 106.022L117.884 30.6827L85.7888 23.3366Z" fill="white"/>
<path d="M31.7315 57.2571L31.2864 56.5477L31.7315 57.2571ZM85.7888 23.3366L85.9756 22.5202L85.6375 22.4429L85.3436 22.6272L85.7888 23.3366ZM30.146 64.1844L29.4366 64.6295L30.146 64.1844ZM87.1244 154.988L87.8338 154.543L87.1244 154.988ZM165.159 106.022L165.868 105.577L165.159 106.022ZM117.884 30.6827L118.593 30.2376L118.409 29.9438L118.071 29.8664L117.884 30.6827ZM32.1767 57.9665L86.2339 24.046L85.3436 22.6272L31.2864 56.5477L32.1767 57.9665ZM30.8554 63.7393C29.6261 61.7803 30.2177 59.1957 32.1767 57.9665L31.2864 56.5477C28.5438 58.2686 27.7156 61.887 29.4366 64.6295L30.8554 63.7393ZM87.8338 154.543L30.8554 63.7393L29.4366 64.6295L86.415 155.433L87.8338 154.543ZM93.6066 155.864C91.6476 157.093 89.0631 156.502 87.8338 154.543L86.415 155.433C88.136 158.176 91.7543 159.004 94.4969 157.283L93.6066 155.864ZM163.128 112.24L93.6066 155.864L94.4969 157.283L164.018 113.659L163.128 112.24ZM164.449 106.467C165.679 108.426 165.087 111.011 163.128 112.24L164.018 113.659C166.761 111.938 167.589 108.32 165.868 105.577L164.449 106.467ZM117.175 31.1279L164.449 106.467L165.868 105.577L118.593 30.2376L117.175 31.1279ZM118.071 29.8664L85.9756 22.5202L85.6019 24.153L117.697 31.4991L118.071 29.8664Z" fill="#FAFAFA" mask="url(#path-2-inside-1)"/>
<rect x="45.0089" y="60.2962" width="34.3375" height="2.5125" rx="1.25625" transform="rotate(-32.1079 45.0089 60.2962)" fill="#CCD6E2" stroke="#FAFAFA" stroke-width="0.8375"/>
<rect x="49.9054" y="68.1004" width="17.5875" height="2.5125" rx="1.25625" transform="rotate(-32.1079 49.9054 68.1004)" fill="#CCD6E2" stroke="#FAFAFA" stroke-width="0.8375"/>
<rect x="90.859" y="133.366" width="31.825" height="2.5125" rx="1.25625" transform="rotate(-32.1079 90.859 133.366)" fill="#CCD6E2" stroke="#FAFAFA" stroke-width="0.8375"/>
<rect x="81.0656" y="117.759" width="63.65" height="2.5125" rx="1.25625" transform="rotate(-32.1079 81.0656 117.759)" fill="#CCD6E2" stroke="#FAFAFA" stroke-width="0.8375"/>
<rect x="56.1378" y="78.0318" width="63.65" height="37.6875" rx="2.93125" transform="rotate(-32.1079 56.1378 78.0318)" fill="#E6EDF5" stroke="#FAFAFA" stroke-width="0.8375"/>
<path d="M90.6864 76.7442L90.6864 76.7442L96.9713 79.0369L96.9713 79.0369C97.3454 79.1734 97.7016 78.9809 97.7918 78.5901L90.6864 76.7442ZM90.6864 76.7442C90.2879 76.5989 89.8625 76.613 89.5361 76.862C89.2092 77.1113 89.0839 77.518 89.1207 77.9405C89.1207 77.9405 89.1207 77.9406 89.1207 77.9406L89.8948 86.8547C89.9312 87.2745 90.1228 87.6567 90.4961 87.8378C90.8671 88.0179 91.2868 87.9355 91.6437 87.7116L97.838 83.8247L104.321 79.7566C104.659 79.5446 104.941 79.212 104.91 78.7918C104.878 78.3685 104.547 78.0846 104.179 77.9318L104.178 77.9315L100.031 76.2154C99.1908 75.8675 98.3143 76.3215 98.1102 77.2081C98.1102 77.2081 98.1102 77.2081 98.1102 77.2081L97.7918 78.59L90.6864 76.7442ZM81.2101 73.1757L95.4834 64.2193C96.4429 63.6172 97.6951 63.9005 98.2808 64.8341L106.386 77.7515C106.971 78.6834 106.681 79.9333 105.722 80.5356L91.4484 89.492C90.4883 90.0944 89.2359 89.8118 88.6513 88.8802L80.5457 75.9627C79.9601 75.0294 80.2503 73.7779 81.2101 73.1757ZM96.3612 70.1996C95.5476 68.903 93.8273 68.5298 92.5239 69.3477C91.2203 70.1657 90.8083 71.8769 91.6219 73.1734C92.4355 74.4699 94.1554 74.8434 95.4591 74.0253C96.7624 73.2075 97.1747 71.4961 96.3612 70.1996Z" fill="#CFD7E2" stroke="#FAFAFA" stroke-width="0.8375"/>
<rect x="86.4078" y="126.271" width="63.65" height="2.5125" rx="1.25625" transform="rotate(-32.1079 86.4078 126.271)" fill="#CCD6E2" stroke="#FAFAFA" stroke-width="0.8375"/>
<mask id="path-11-inside-2" fill="white">
<path fill-rule="evenodd" clip-rule="evenodd" d="M85.7889 23.3372L117.883 30.683L102.419 40.3862C100.069 41.8612 96.9672 41.1514 95.4921 38.8006L85.7889 23.3372Z"/>
</mask>
<path fill-rule="evenodd" clip-rule="evenodd" d="M85.7889 23.3372L117.883 30.683L102.419 40.3862C100.069 41.8612 96.9672 41.1514 95.4921 38.8006L85.7889 23.3372Z" fill="#E1EAF3"/>
<path d="M85.7889 23.3372L85.9758 22.5208L84.0048 22.0697L85.0795 23.7823L85.7889 23.3372ZM117.883 30.683L118.328 31.3924L120.041 30.3177L118.07 29.8666L117.883 30.683ZM102.419 40.3862L101.974 39.6768L102.419 40.3862ZM95.4921 38.8006L96.2015 38.3555L95.4921 38.8006ZM85.602 24.1536L117.696 31.4994L118.07 29.8666L85.9758 22.5208L85.602 24.1536ZM117.438 29.9736L101.974 39.6768L102.865 41.0956L118.328 31.3924L117.438 29.9736ZM101.974 39.6768C100.015 40.906 97.4307 40.3144 96.2015 38.3555L94.7827 39.2458C96.5036 41.9883 100.122 42.8165 102.865 41.0956L101.974 39.6768ZM96.2015 38.3555L86.4983 22.892L85.0795 23.7823L94.7827 39.2458L96.2015 38.3555Z" fill="#FAFAFA" mask="url(#path-11-inside-2)"/>
</g>
<g filter="url(#filter1_d)">
<mask id="path-13-inside-3" fill="white">
<path fill-rule="evenodd" clip-rule="evenodd" d="M149.311 40.7978L90.0826 17.0339C87.5069 16.0005 84.5812 17.2507 83.5478 19.8263L43.6298 119.317C42.5963 121.893 43.8466 124.818 46.4222 125.852L122.595 156.414C125.17 157.447 128.096 156.197 129.13 153.622L162.249 71.0748L149.311 40.7978Z"/>
</mask>
<path fill-rule="evenodd" clip-rule="evenodd" d="M149.311 40.7978L90.0826 17.0339C87.5069 16.0005 84.5812 17.2507 83.5478 19.8263L43.6298 119.317C42.5963 121.893 43.8466 124.818 46.4222 125.852L122.595 156.414C125.17 157.447 128.096 156.197 129.13 153.622L162.249 71.0748L149.311 40.7978Z" fill="white"/>
<path d="M90.0826 17.0339L90.3944 16.2566L90.0826 17.0339ZM149.311 40.7978L150.081 40.4687L149.945 40.1497L149.623 40.0206L149.311 40.7978ZM83.5478 19.8263L82.7705 19.5145L83.5478 19.8263ZM43.6298 119.317L44.407 119.629L43.6298 119.317ZM46.4222 125.852L46.7341 125.075L46.4222 125.852ZM122.595 156.414L122.283 157.191L122.595 156.414ZM129.13 153.622L129.907 153.933L129.13 153.622ZM162.249 71.0748L163.027 71.3866L163.156 71.0647L163.019 70.7457L162.249 71.0748ZM89.7707 17.8111L148.999 41.5751L149.623 40.0206L90.3944 16.2566L89.7707 17.8111ZM84.3251 20.1382C85.1862 17.9918 87.6243 16.95 89.7707 17.8111L90.3944 16.2566C87.3895 15.051 83.9762 16.5096 82.7705 19.5145L84.3251 20.1382ZM44.407 119.629L84.3251 20.1382L82.7705 19.5145L42.8525 119.005L44.407 119.629ZM46.7341 125.075C44.5877 124.213 43.5458 121.775 44.407 119.629L42.8525 119.005C41.6468 122.01 43.1054 125.423 46.1104 126.629L46.7341 125.075ZM122.907 155.637L46.7341 125.075L46.1104 126.629L122.283 157.191L122.907 155.637ZM128.352 153.31C127.491 155.456 125.053 156.498 122.907 155.637L122.283 157.191C125.288 158.397 128.701 156.938 129.907 153.933L128.352 153.31ZM161.472 70.7629L128.352 153.31L129.907 153.933L163.027 71.3866L161.472 70.7629ZM163.019 70.7457L150.081 40.4687L148.541 41.1269L161.479 71.4039L163.019 70.7457Z" fill="#FAFAFA" mask="url(#path-13-inside-3)"/>
</g>
<rect x="95.2021" y="29.0143" width="35.175" height="3.35" rx="1.675" transform="rotate(21.8618 95.2021 29.0143)" fill="#CCD6E2"/>
<rect x="91.7715" y="37.5641" width="18.425" height="3.35" rx="1.675" transform="rotate(21.8618 91.7715 37.5641)" fill="#CCD6E2"/>
<rect x="63.0806" y="109.073" width="32.6625" height="3.35" rx="1.675" transform="rotate(21.8618 63.0806 109.073)" fill="#CCD6E2"/>
<rect x="69.9409" y="91.973" width="64.4875" height="3.35" rx="1.675" transform="rotate(21.8618 69.9409 91.973)" fill="#CCD6E2"/>
<rect x="87.4053" y="48.4459" width="64.4875" height="38.525" rx="3.35" transform="rotate(21.8618 87.4053 48.4459)" fill="#E6EDF5"/>
<path d="M122.109 72.2973L106.47 66.0227C105.209 65.5169 103.779 66.1147 103.281 67.3575L97.6019 81.5107C97.1039 82.7521 97.7246 84.1714 98.9851 84.6772L114.624 90.9518C115.884 91.4576 117.313 90.8604 117.811 89.6191L123.49 75.4658C123.988 74.2231 123.369 72.8031 122.109 72.2973ZM115.909 73.6979C117.128 74.187 117.726 75.5572 117.244 76.7576C116.762 77.9579 115.383 78.5348 114.164 78.0457C112.945 77.5565 112.347 76.1864 112.829 74.986C113.31 73.7857 114.689 73.2086 115.909 73.6979ZM114.742 88.5837L107.639 85.7336L100.852 83.0106C100.242 82.766 100.145 82.2226 100.635 81.797L107.388 75.9274C107.878 75.5017 108.42 75.6638 108.599 76.2892L110.442 82.7205C110.621 83.346 111.253 83.6464 111.853 83.3912L113.158 82.8357C113.757 82.5804 114.367 82.8865 114.519 83.5184L115.571 87.8814C115.722 88.5138 115.352 88.8283 114.742 88.5837Z" fill="#CFD7E2"/>
<rect x="66.1987" y="101.3" width="64.4875" height="3.35" rx="1.675" transform="rotate(21.8618 66.1987 101.3)" fill="#CCD6E2"/>
<path fill-rule="evenodd" clip-rule="evenodd" d="M149.311 40.7995L162.249 71.076L145.305 64.2779C142.73 63.2445 141.48 60.3187 142.513 57.7431L149.311 40.7995Z" fill="#E1EAF3"/>
<g filter="url(#filter2_d)">
<path fill-rule="evenodd" clip-rule="evenodd" d="M123.119 25.1998H59.2999C56.5247 25.1998 54.2749 27.4496 54.2749 30.2248V137.425C54.2749 140.2 56.5247 142.45 59.2999 142.45H141.375C144.15 142.45 146.4 140.2 146.4 137.425V48.4811L123.119 25.1998Z" fill="white"/>
</g>
<rect x="68.5127" y="34.4135" width="35.175" height="3.35" rx="1.675" fill="#CCD6E2"/>
<rect x="68.5122" y="43.625" width="18.425" height="3.35" rx="1.675" fill="#CCD6E2"/>
<rect x="68.5122" y="120.675" width="32.6625" height="3.35" rx="1.675" fill="#CCD6E2"/>
<rect x="68.5122" y="102.25" width="64.4875" height="3.35" rx="1.675" fill="#CCD6E2"/>
<rect x="68.5122" y="55.35" width="64.4875" height="38.525" rx="3.35" fill="#E6EDF5"/>
<path d="M109.601 64.5625H92.7499C91.3916 64.5625 90.2871 65.6498 90.2871 66.9889V82.2389C90.2871 83.5764 91.3916 84.6625 92.7499 84.6625H109.6C110.959 84.6625 112.062 83.5764 112.062 82.2389V66.9889C112.062 65.6498 110.959 64.5625 109.601 64.5625ZM104.368 68.171C105.681 68.171 106.747 69.22 106.747 70.5134C106.747 71.8067 105.681 72.8558 104.368 72.8558C103.054 72.8558 101.989 71.8067 101.989 70.5134C101.989 69.22 103.054 68.171 104.368 68.171ZM108.828 82.4207H101.174H93.8617C93.2047 82.4207 92.9121 81.9527 93.2083 81.3752L97.2907 73.4129C97.5865 72.8355 98.1502 72.784 98.5494 73.2977L102.654 78.5803C103.054 79.0941 103.751 79.1378 104.213 78.6775L105.218 77.6761C105.679 77.2158 106.359 77.2728 106.736 77.8026L109.336 81.4603C109.712 81.9909 109.485 82.4207 108.828 82.4207Z" fill="#CFD7E2"/>
<rect x="68.5122" y="112.3" width="64.4875" height="3.35" rx="1.675" fill="#CCD6E2"/>
<path fill-rule="evenodd" clip-rule="evenodd" d="M123.118 25.1993L146.4 48.4808L128.143 48.4808C125.368 48.4808 123.118 46.2311 123.118 43.4558V25.1993Z" fill="#E1EAF3"/>
<g filter="url(#filter3_d)">
<circle cx="99.5003" cy="94.7121" r="19.2625" fill="url(#paint0_linear)"/>
</g>
<circle cx="92.8007" cy="112.299" r="3.35" fill="#7697FF"/>
<circle cx="99.5003" cy="115.649" r="2.5125" fill="#7697FF"/>
<circle cx="107.457" cy="116.906" r="2.09375" fill="#7697FF"/>
<circle cx="92.3818" cy="118.581" r="2.09375" fill="#7697FF"/>
<circle cx="99.5007" cy="121.512" r="1.675" fill="#7697FF"/>
<circle cx="104.526" cy="129.049" r="1.675" fill="#7697FF"/>
<circle cx="92.8005" cy="127.374" r="1.675" fill="#7697FF"/>
<circle cx="98.6628" cy="132.399" r="1.675" fill="#7697FF"/>
<circle cx="97.8254" cy="138.262" r="1.675" fill="url(#paint1_linear)"/>
<circle cx="100.338" cy="144.124" r="1.675" fill="url(#paint2_linear)"/>
<path d="M98.8321 102.923L100.324 98.8998L99.4715 85.3356L114.576 101.831L102.851 112.299L98.8321 102.923Z" fill="url(#paint3_linear)"/>
<g clip-path="url(#clip0)">
<path fill-rule="evenodd" clip-rule="evenodd" d="M105.549 94.4549L101.176 90.0314L101.116 103.231C101.115 103.433 101.075 103.633 100.997 103.819C100.919 104.005 100.805 104.174 100.661 104.316C100.518 104.459 100.348 104.571 100.161 104.648C99.9744 104.724 99.7744 104.763 99.5725 104.762V104.762C99.3706 104.761 99.1708 104.72 98.9846 104.642C98.7984 104.564 98.6294 104.45 98.4873 104.306C98.3452 104.163 98.2327 103.993 98.1563 103.806C98.0799 103.619 98.0411 103.419 98.042 103.217L98.1023 90.02L93.6861 94.3845C93.5427 94.5268 93.3727 94.6395 93.1858 94.7161C92.9989 94.7927 92.7987 94.8317 92.5967 94.8309C92.3947 94.8301 92.1949 94.7895 92.0086 94.7114C91.8223 94.6333 91.6532 94.5193 91.511 94.3759V94.3759C91.2241 94.086 91.0641 93.6941 91.0659 93.2863C91.0678 92.8784 91.2315 92.488 91.521 92.2008L98.7699 85.0222C99.0085 84.7875 99.3305 84.6571 99.6652 84.6598C99.9999 84.6625 100.32 84.798 100.555 85.0366L107.733 92.2913C108.02 92.5809 108.18 92.9726 108.178 93.3802C108.176 93.7878 108.012 94.1779 107.723 94.4649C107.433 94.7517 107.042 94.9117 106.634 94.9098C106.227 94.9079 105.836 94.7443 105.549 94.4549V94.4549Z" fill="white"/>
</g>
<defs>
<filter id="filter0_d" x="0.675098" y="9.28716" width="193.955" height="201.882" filterUnits="userSpaceOnUse" color-interpolation-filters="sRGB">
<feFlood flood-opacity="0" result="BackgroundImageFix"/>
<feColorMatrix in="SourceAlpha" type="matrix" values="0 0 0 0 0 0 0 0 0 0 0 0 0 0 0 0 0 0 127 0" result="hardAlpha"/>
<feOffset dy="25.125"/>
<feGaussianBlur stdDeviation="13.4"/>
<feColorMatrix type="matrix" values="0 0 0 0 0.123611 0 0 0 0 0.218939 0 0 0 0 0.333333 0 0 0 0.04 0"/>
<feBlend mode="normal" in2="BackgroundImageFix" result="effect1_dropShadow"/>
<feBlend mode="normal" in="SourceGraphic" in2="effect1_dropShadow" result="shape"/>
</filter>
<filter id="filter1_d" x="14.9588" y="13.4877" width="182.76" height="196.722" filterUnits="userSpaceOnUse" color-interpolation-filters="sRGB">
<feFlood flood-opacity="0" result="BackgroundImageFix"/>
<feColorMatrix in="SourceAlpha" type="matrix" values="0 0 0 0 0 0 0 0 0 0 0 0 0 0 0 0 0 0 127 0" result="hardAlpha"/>
<feOffset dy="25.125"/>
<feGaussianBlur stdDeviation="13.4"/>
<feColorMatrix type="matrix" values="0 0 0 0 0.123611 0 0 0 0 0.218939 0 0 0 0 0.333333 0 0 0 0.04 0"/>
<feBlend mode="normal" in2="BackgroundImageFix" result="effect1_dropShadow"/>
<feBlend mode="normal" in="SourceGraphic" in2="effect1_dropShadow" result="shape"/>
</filter>
<filter id="filter2_d" x="4.0249" y="0.0748291" width="192.625" height="217.75" filterUnits="userSpaceOnUse" color-interpolation-filters="sRGB">
<feFlood flood-opacity="0" result="BackgroundImageFix"/>
<feColorMatrix in="SourceAlpha" type="matrix" values="0 0 0 0 0 0 0 0 0 0 0 0 0 0 0 0 0 0 127 0" result="hardAlpha"/>
<feOffset dy="25.125"/>
<feGaussianBlur stdDeviation="25.125"/>
<feColorMatrix type="matrix" values="0 0 0 0 0.123611 0 0 0 0 0.218939 0 0 0 0 0.333333 0 0 0 0.15 0"/>
<feBlend mode="normal" in2="BackgroundImageFix" result="effect1_dropShadow"/>
<feBlend mode="normal" in="SourceGraphic" in2="effect1_dropShadow" result="shape"/>
</filter>
<filter id="filter3_d" x="66.8378" y="68.7496" width="65.325" height="65.325" filterUnits="userSpaceOnUse" color-interpolation-filters="sRGB">
<feFlood flood-opacity="0" result="BackgroundImageFix"/>
<feColorMatrix in="SourceAlpha" type="matrix" values="0 0 0 0 0 0 0 0 0 0 0 0 0 0 0 0 0 0 127 0" result="hardAlpha"/>
<feOffset dy="6.7"/>
<feGaussianBlur stdDeviation="6.7"/>
<feColorMatrix type="matrix" values="0 0 0 0 0.454902 0 0 0 0 0.580392 0 0 0 0 1 0 0 0 0.09 0"/>
<feBlend mode="normal" in2="BackgroundImageFix" result="effect1_dropShadow"/>
<feBlend mode="normal" in="SourceGraphic" in2="effect1_dropShadow" result="shape"/>
</filter>
<linearGradient id="paint0_linear" x1="118.763" y1="75.4496" x2="80.2378" y2="113.975" gradientUnits="userSpaceOnUse">
<stop stop-color="#6380FE"/>
<stop offset="1" stop-color="#7D9FFF"/>
</linearGradient>
<linearGradient id="paint1_linear" x1="97.8254" y1="136.587" x2="97.8254" y2="139.937" gradientUnits="userSpaceOnUse">
<stop stop-color="#7697FF"/>
<stop offset="1" stop-color="#D1DEEE"/>
</linearGradient>
<linearGradient id="paint2_linear" x1="100.338" y1="142.449" x2="100.338" y2="145.799" gradientUnits="userSpaceOnUse">
<stop stop-color="#7697FF"/>
<stop offset="1" stop-color="#D1DEEE"/>
</linearGradient>
<linearGradient id="paint3_linear" x1="92.911" y1="91.4724" x2="105.759" y2="105.046" gradientUnits="userSpaceOnUse">
<stop stop-color="#0B26BF"/>
<stop offset="1" stop-color="#6180FE" stop-opacity="0"/>
</linearGradient>
<clipPath id="clip0">
<rect width="20.1" height="20.1" fill="white" transform="translate(89.4507 84.6619)"/>
</clipPath>
</defs>
</svg>
