<svg width="14" height="14" viewBox="0 0 14 14" fill="none" xmlns="http://www.w3.org/2000/svg">
<path d="M13.8057 9.38404L12.2638 7.53232C12.1409 7.40532 12.0435 7.25452 11.9771 7.08855C11.9106 6.92259 11.8765 6.7447 11.8766 6.56508V4.98957C11.8397 3.69441 11.3313 2.46136 10.4532 1.53694C9.57499 0.612518 8.39171 0.064831 7.13987 0.00336922C5.85918 -0.04505 4.61157 0.429999 3.66718 1.32566C2.72278 2.22133 2.15759 3.46553 2.09399 4.78888V6.56508C2.0941 6.7447 2.05996 6.92259 1.99351 7.08855C1.92707 7.25452 1.82963 7.40532 1.70677 7.53232L0.192905 9.38404C0.100654 9.47987 0.0379028 9.60178 0.0125589 9.73442C-0.012785 9.86706 0.000412562 10.0045 0.0504885 10.1294C0.100564 10.2543 0.185278 10.3611 0.293953 10.4363C0.402628 10.5115 0.530402 10.5517 0.661172 10.552H13.3384C13.4693 10.552 13.5973 10.5119 13.7061 10.4367C13.8149 10.3615 13.8997 10.2546 13.9498 10.1295C13.9998 10.0045 14.0128 9.86689 13.9872 9.73418C13.9615 9.60147 13.8984 9.47961 13.8057 9.38404Z" fill="#00A0AC"/>
<path d="M4.44536 11.9444C4.55826 12.5478 4.87913 13.0883 5.34838 13.4656C5.81763 13.8429 6.40337 14.0313 6.99682 13.9958C7.59038 14.0313 8.17625 13.8429 8.64567 13.4657C9.11508 13.0884 9.43615 12.5479 9.54927 11.9444H4.44536Z" fill="#00A0AC"/>
</svg>
