<svg width="80" height="80" viewBox="0 0 80 80" fill="none" xmlns="http://www.w3.org/2000/svg">
<path d="M20 0C17.25 0 15 2.25 15 5V75C15 77.75 17.25 80 20 80H70C72.75 80 75 77.75 75 75V20L55 0H20Z" fill="#E2E5E7"/>
<path d="M60 20H75L55 0V15C55 17.75 57.25 20 60 20Z" fill="#B0B7BD"/>
<path d="M75 35L60 20H75V35Z" fill="#CAD1D8"/>
<path d="M65 65C65 66.375 63.875 67.5 62.5 67.5H7.5C6.125 67.5 5 66.375 5 65V40C5 38.625 6.125 37.5 7.5 37.5H62.5C63.875 37.5 65 38.625 65 40V65Z" fill="#1958A9"/>
<path d="M15.8975 47.3673C15.8975 46.7073 16.4175 45.9873 17.255 45.9873H21.8725C24.4725 45.9873 26.8125 47.7273 26.8125 51.0623C26.8125 54.2223 24.4725 55.9823 21.8725 55.9823H18.535V58.6223C18.535 59.5023 17.975 59.9998 17.255 59.9998C16.595 59.9998 15.8975 59.5023 15.8975 58.6223V47.3673ZM18.535 48.5048V53.4848H21.8725C23.2125 53.4848 24.2725 52.3023 24.2725 51.0623C24.2725 49.6648 23.2125 48.5048 21.8725 48.5048H18.535Z" fill="white"/>
<path d="M30.7272 59.9995C30.0672 59.9995 29.3472 59.6395 29.3472 58.762V47.407C29.3472 46.6895 30.0672 46.167 30.7272 46.167H35.3047C44.4397 46.167 44.2397 59.9995 35.4847 59.9995H30.7272ZM31.9872 48.607V57.562H35.3047C40.7022 57.562 40.9422 48.607 35.3047 48.607H31.9872Z" fill="white"/>
<path d="M47.4797 48.7675V51.945H52.5772C53.2972 51.945 54.0172 52.665 54.0172 53.3625C54.0172 54.0225 53.2972 54.5625 52.5772 54.5625H47.4797V58.76C47.4797 59.46 46.9822 59.9975 46.2822 59.9975C45.4022 59.9975 44.8647 59.46 44.8647 58.76V47.405C44.8647 46.6875 45.4047 46.165 46.2822 46.165H53.2997C54.1797 46.165 54.6997 46.6875 54.6997 47.405C54.6997 48.045 54.1797 48.765 53.2997 48.765H47.4797V48.7675Z" fill="white"/>
<path d="M62.5 67.5H15V70H62.5C63.875 70 65 68.875 65 67.5V65C65 66.375 63.875 67.5 62.5 67.5Z" fill="#CAD1D8"/>
</svg>
