<svg width="300" height="224" viewBox="0 0 300 224" fill="none" xmlns="http://www.w3.org/2000/svg">
<rect x="42.6777" y="210.45" width="224.686" height="5.03277" rx="2.51638" fill="#EBF0F6"/>
<path d="M26.3594 187.116C26.3594 172.905 37.8801 161.384 52.0916 161.384C66.3031 161.384 77.8238 172.904 77.8238 187.116V205.647C77.8238 210.384 73.9835 214.224 69.2464 214.224H52.7795C38.1881 214.224 26.3594 202.395 26.3594 187.804V187.116Z" fill="url(#paint0_linear)"/>
<path d="M42.6768 196.159L60.3504 178.998L82.8441 200.839L65.1705 217.999L42.6768 196.159Z" fill="url(#paint1_linear)"/>
<path d="M61.1383 192.972C61.1383 194.224 60.8132 195.404 60.1629 196.512C59.5368 197.595 58.5976 198.498 57.3453 199.221C56.1171 199.919 54.6601 200.329 52.9744 200.449V203.375H50.6625V200.413C48.2542 200.196 46.3156 199.474 44.8466 198.246C43.3776 196.993 42.619 195.308 42.5708 193.188H47.9893C48.1338 194.922 49.0249 195.97 50.6625 196.331V189.431C48.9285 188.998 47.5318 188.565 46.4721 188.131C45.4125 187.698 44.4974 186.999 43.7267 186.036C42.9561 185.073 42.5708 183.76 42.5708 182.098C42.5708 180.003 43.3173 178.293 44.8105 176.969C46.3276 175.644 48.2783 174.886 50.6625 174.693V171.767H52.9744V174.693C55.2863 174.886 57.1286 175.584 58.5013 176.788C59.898 177.992 60.6807 179.654 60.8493 181.773H55.3946C55.3224 181.075 55.0695 180.473 54.636 179.967C54.2266 179.437 53.6728 179.064 52.9744 178.847V185.675C54.7805 186.132 56.2014 186.578 57.2369 187.011C58.2966 187.421 59.2117 188.107 59.9823 189.07C60.753 190.009 61.1383 191.31 61.1383 192.972ZM47.8448 181.846C47.8448 182.64 48.0857 183.29 48.5673 183.796C49.0489 184.278 49.7473 184.675 50.6625 184.988V178.739C49.7955 178.859 49.1092 179.184 48.6034 179.714C48.0977 180.244 47.8448 180.955 47.8448 181.846ZM52.9744 196.403C53.8895 196.235 54.5999 195.861 55.1057 195.284C55.6355 194.706 55.9004 194.007 55.9004 193.188C55.9004 192.394 55.6475 191.755 55.1418 191.274C54.636 190.792 53.9136 190.395 52.9744 190.082V196.403Z" fill="white"/>
<path d="M211.443 22.9951H94.202C87.2357 22.9951 81.5884 28.6424 81.5884 35.6087V200.355C81.5884 207.321 87.2357 212.968 94.202 212.968H211.443C218.41 212.968 224.057 207.321 224.057 200.355V35.6087C224.057 28.6424 218.41 22.9951 211.443 22.9951Z" fill="#CED8E2"/>
<path d="M90.375 204.16V192.208V52.5586H219.036V204.16H90.375Z" fill="#A7AFBA" fill-opacity="0.25"/>
<path d="M87.8652 201.644V188.551V35.5742H217.154V201.644H87.8652Z" fill="#DEE6F0"/>
<path d="M82.2168 193.466C84.7273 188.937 85.7733 180.256 85.9825 176.482L89.1206 59.4785H213.388C213.388 141.507 206.275 182.982 202.719 193.466H82.2168Z" fill="#EDF4FA"/>
<g filter="url(#filter0_d)">
<path d="M67.5474 183.043C83.986 145.551 87.5418 71.1519 87.2536 36.51C87.2463 35.6318 87.9553 34.9453 88.8335 34.9453H211.811C212.682 34.9453 213.388 35.6512 213.388 36.522V115.277C213.388 115.401 213.373 115.528 213.344 115.648C200.748 167.838 163.368 183.822 146.233 185.288H69.0138C67.8574 185.288 67.083 184.102 67.5474 183.043Z" fill="white"/>
</g>
<path d="M101.674 68.2857L109.206 75.2058L121.758 63.2529" stroke="url(#paint2_linear)" stroke-width="3.94174" stroke-linecap="round"/>
<path d="M134.938 65.1416H200.209" stroke="#CFD7E2" stroke-width="3.94174" stroke-linecap="round"/>
<path d="M134.936 75.2061H162.551" stroke="#CFD7E2" stroke-width="3.94174" stroke-linecap="round"/>
<path d="M172.592 75.2061H200.207" stroke="#CFD7E2" stroke-width="3.94174" stroke-linecap="round"/>
<path d="M101.672 107.287L109.203 114.207L121.756 102.254" stroke="url(#paint3_linear)" stroke-width="3.94174" stroke-linecap="round"/>
<path d="M134.937 104.143H200.208" stroke="#CFD7E2" stroke-width="3.94174" stroke-linecap="round"/>
<path d="M134.935 114.207H162.55" stroke="#CFD7E2" stroke-width="3.94174" stroke-linecap="round"/>
<path d="M172.592 114.207H200.207" stroke="#CFD7E2" stroke-width="3.94174" stroke-linecap="round"/>
<path d="M134.937 143.144H200.208" stroke="#CFD7E2" stroke-width="3.94174" stroke-linecap="round"/>
<path d="M134.935 153.209H162.55" stroke="#CFD7E2" stroke-width="3.94174" stroke-linecap="round"/>
<path d="M172.592 153.209H200.207" stroke="#CFD7E2" stroke-width="3.94174" stroke-linecap="round"/>
<ellipse cx="106.693" cy="147.546" rx="5.02092" ry="5.03277" fill="url(#paint4_linear)"/>
<path d="M146.233 185.288H127.405C141.212 180.256 169.204 162.391 170.71 131.19C182.007 132.448 206.359 131.064 213.388 115.464C200.836 167.801 163.388 183.821 146.233 185.288Z" fill="#EAEEF9"/>
<path d="M148.593 24.2529H121.772C119.443 24.2529 117.918 26.6891 118.935 28.7835L125.035 41.3495C125.562 42.436 126.664 43.1258 127.872 43.1258H180.347C181.593 43.1258 182.722 42.3925 183.228 41.2545L188.82 28.6884C189.748 26.6029 188.222 24.2529 185.939 24.2529H158.173C157.539 24.2529 156.92 24.4439 156.397 24.801L155.159 25.6446C154.088 26.3754 152.678 26.3754 151.606 25.6446L150.369 24.801C149.846 24.4439 149.226 24.2529 148.593 24.2529Z" fill="#15447A"/>
<path d="M147.234 21.7363H120.261C117.998 21.7363 116.471 24.0506 117.363 26.1313L123.823 41.2138C124.32 42.3736 125.46 43.1256 126.722 43.1256H178.991C180.287 43.1256 181.452 42.3317 181.926 41.1247L187.848 26.0422C188.66 23.9736 187.135 21.7363 184.913 21.7363H157.021C156.324 21.7363 155.645 21.9678 155.093 22.3946L154.056 23.1963C152.92 24.074 151.335 24.074 150.199 23.1963L149.162 22.3946C148.61 21.9678 147.931 21.7363 147.234 21.7363Z" fill="url(#paint5_linear)"/>
<path d="M144.351 23.6239V22.2408C144.351 20.2934 145.056 18.4119 146.337 16.9448V16.9448C147.866 15.1928 150.078 14.1875 152.404 14.1875H152.615C154.941 14.1875 157.153 15.1928 158.682 16.9448V16.9448C159.963 18.4119 160.669 20.2934 160.669 22.2408V23.6239" stroke="#316094" stroke-width="6.30679"/>
<path d="M44.5606 82.7529C26.4853 94.8316 7.32217 95.3349 0 94.0767C21.0878 124.777 52.7196 112.32 65.8995 102.255C59.3723 100.242 48.9539 88.4148 44.5606 82.7529Z" fill="#DFE8F1"/>
<path d="M14.4355 107.917C30.7535 117.353 40.7954 112.95 42.6782 112.321C34.1426 112.321 28.2431 107.288 26.3602 104.771C22.8456 107.288 16.946 108.127 14.4355 107.917Z" fill="#CFD7E2"/>
<ellipse cx="249.791" cy="41.8646" rx="7.53137" ry="7.54915" fill="#EAEEF9"/>
<ellipse cx="252.301" cy="10.4123" rx="3.76569" ry="3.77458" fill="#EAEEF9"/>
<circle r="7.54028" transform="matrix(0.706272 0.707939 -0.706272 0.707939 52.9971 30.265)" fill="#EAEEF9"/>
<circle r="3.77014" transform="matrix(0.706272 0.707939 -0.706272 0.707939 76.96 9.80095)" fill="#EAEEF9"/>
<path d="M193.084 61.8609L198.726 66.4878L202.316 61.8609L197.7 57.748L193.084 61.8609Z" fill="#08B59A"/>
<path d="M199.987 59.5678L195.35 64.2165C194.371 65.1973 192.792 65.2289 191.775 64.2879L188.835 61.5672C187.785 60.5956 187.727 58.9547 188.706 57.9117L193.313 53.0054C194.31 51.9439 195.987 51.9185 197.016 52.9494L199.987 55.9277C200.991 56.9336 200.991 58.562 199.987 59.5678Z" fill="#172D45"/>
<path d="M219.164 48.042L219.889 55.3125L225.692 54.5855L225.329 48.4055L219.164 48.042Z" fill="#08B59A"/>
<path d="M225.655 51.32L219.099 51.32C217.718 51.32 216.584 50.2263 216.529 48.8421L216.369 44.8323C216.311 43.3983 217.431 42.1928 218.862 42.1493L225.577 41.9452C227.028 41.9011 228.228 43.0689 228.228 44.525V48.739C228.228 50.1644 227.076 51.32 225.655 51.32Z" fill="#172D45"/>
<path d="M247.964 56.7187L243.348 62.3739L247.964 65.9726L252.067 61.3457L247.964 56.7187Z" fill="#08B59A"/>
<path d="M250.242 63.6301L245.605 58.9818C244.629 58.0043 244.598 56.4318 245.533 55.4161L248.248 52.4684C249.22 51.4125 250.868 51.3546 251.912 52.3396L256.806 56.957C257.862 57.953 257.887 59.624 256.862 60.6515L253.891 63.6301C252.884 64.6394 251.249 64.6394 250.242 63.6301Z" fill="#172D45"/>
<ellipse cx="223.342" cy="88.0772" rx="34.3638" ry="34.4424" fill="url(#paint6_linear)"/>
<ellipse cx="223.345" cy="88.0773" rx="28.2091" ry="28.2736" fill="white"/>
<ellipse cx="222.832" cy="88.5904" rx="4.10314" ry="4.11282" fill="#D9E1EC"/>
<path d="M218.214 92.9093L238.73 71.8311" stroke="#FA489C" stroke-width="3.86547" stroke-linecap="round"/>
<line x1="223.093" y1="62.1205" x2="223.093" y2="67.7692" stroke="#DAE0EC" stroke-width="2.57698" stroke-linecap="round"/>
<line x1="223.093" y1="108.384" x2="223.093" y2="114.033" stroke="#DAE0EC" stroke-width="2.57698" stroke-linecap="round"/>
<line x1="197.449" y1="87.3014" x2="203.078" y2="87.3014" stroke="#DAE0EC" stroke-width="2.57698" stroke-linecap="round"/>
<line x1="243.608" y1="87.3014" x2="249.238" y2="87.3014" stroke="#DAE0EC" stroke-width="2.57698" stroke-linecap="round"/>
<defs>
<filter id="filter0_d" x="35.8767" y="9.71815" width="209.046" height="213.411" filterUnits="userSpaceOnUse" color-interpolation-filters="sRGB">
<feFlood flood-opacity="0" result="BackgroundImageFix"/>
<feColorMatrix in="SourceAlpha" type="matrix" values="0 0 0 0 0 0 0 0 0 0 0 0 0 0 0 0 0 0 127 0" result="hardAlpha"/>
<feOffset dy="6.30679"/>
<feGaussianBlur stdDeviation="15.767"/>
<feColorMatrix type="matrix" values="0 0 0 0 0.262745 0 0 0 0 0.380392 0 0 0 0 0.603922 0 0 0 0.09 0"/>
<feBlend mode="normal" in2="BackgroundImageFix" result="effect1_dropShadow"/>
<feBlend mode="normal" in="SourceGraphic" in2="effect1_dropShadow" result="shape"/>
</filter>
<linearGradient id="paint0_linear" x1="28.8698" y1="175.223" x2="77.9034" y2="211.601" gradientUnits="userSpaceOnUse">
<stop stop-color="#FE63A7"/>
<stop offset="1" stop-color="#ED2F87"/>
</linearGradient>
<linearGradient id="paint1_linear" x1="50.7102" y1="187.578" x2="74.9038" y2="211.692" gradientUnits="userSpaceOnUse">
<stop stop-opacity="0.08"/>
<stop offset="1" stop-color="#EF368B" stop-opacity="0"/>
</linearGradient>
<linearGradient id="paint2_linear" x1="98.5362" y1="69.5439" x2="124.269" y2="67.6654" gradientUnits="userSpaceOnUse">
<stop stop-color="#6F86D6"/>
<stop offset="1" stop-color="#3256D6"/>
</linearGradient>
<linearGradient id="paint3_linear" x1="98.5338" y1="108.545" x2="124.267" y2="106.666" gradientUnits="userSpaceOnUse">
<stop stop-color="#6F86D6"/>
<stop offset="1" stop-color="#3256D6"/>
</linearGradient>
<linearGradient id="paint4_linear" x1="102.162" y1="145.15" x2="111.565" y2="152.296" gradientUnits="userSpaceOnUse">
<stop stop-color="#FE63A7"/>
<stop offset="1" stop-color="#ED2F87"/>
</linearGradient>
<linearGradient id="paint5_linear" x1="186.4" y1="31.1728" x2="115.48" y2="30.5466" gradientUnits="userSpaceOnUse">
<stop stop-color="#316094"/>
<stop offset="1" stop-color="#1D4B7E"/>
</linearGradient>
<linearGradient id="paint6_linear" x1="188.979" y1="88.0772" x2="257.706" y2="88.0772" gradientUnits="userSpaceOnUse">
<stop stop-color="#00CDAC"/>
<stop offset="1" stop-color="#8DDAD5"/>
</linearGradient>
</defs>
</svg>
