<svg width="238" height="205" viewBox="0 0 238 205" fill="none" xmlns="http://www.w3.org/2000/svg">
<rect x="37" width="175" height="150" fill="#FEFEFE"/>
<circle cx="118.5" cy="75.5" r="58.5" fill="url(#paint0_linear)"/>
<g filter="url(#filter0_d)">
<rect x="60" y="38" width="118" height="77" rx="8" fill="#F5F7FA"/>
<rect x="60.5" y="38.5" width="117" height="76" rx="7.5" stroke="#ECEFF1" stroke-opacity="0.64"/>
</g>
<rect x="73" y="56" width="23" height="15" rx="2" fill="#D5DDEA"/>
<circle cx="158.5" cy="59.5" r="8.5" fill="#989FB0"/>
<path d="M74 94H92M98 94H116M122.5 94H140M147 94H168.5" stroke="#D5DDEA" stroke-width="4" stroke-linecap="round"/>
<path d="M168.536 84C170.075 81.3333 173.925 81.3333 175.464 84L192.785 114C194.324 116.667 192.4 120 189.321 120H154.679C151.6 120 149.676 116.667 151.215 114L168.536 84Z" fill="url(#paint1_linear)"/>
<circle cx="146.5" cy="59.5" r="8.5" fill="#D5DDEA"/>
<path d="M169.253 94.0311C169.117 92.3994 170.404 91 172.042 91C173.648 91 174.925 92.3497 174.836 93.9539L174.098 107.228C174.043 108.222 173.221 109 172.226 109C171.25 109 170.438 108.252 170.357 107.28L169.253 94.0311Z" fill="white"/>
<circle cx="172" cy="113" r="2" fill="white"/>
<circle cx="53.5" cy="51.5" r="3.5" fill="#E7EBF7"/>
<circle cx="187.5" cy="31.5" r="3.5" fill="#E7EBF7"/>
<circle cx="189.5" cy="49.5" r="5.5" fill="#E7EBF7"/>
<circle cx="59.5" cy="123.5" r="6.5" fill="#E7EBF7"/>
<defs>
<filter id="filter0_d" x="0" y="8" width="238" height="197" filterUnits="userSpaceOnUse" color-interpolation-filters="sRGB">
<feFlood flood-opacity="0" result="BackgroundImageFix"/>
<feColorMatrix in="SourceAlpha" type="matrix" values="0 0 0 0 0 0 0 0 0 0 0 0 0 0 0 0 0 0 127 0" result="hardAlpha"/>
<feOffset dy="30"/>
<feGaussianBlur stdDeviation="30"/>
<feColorMatrix type="matrix" values="0 0 0 0 0.123611 0 0 0 0 0.218939 0 0 0 0 0.333333 0 0 0 0.15 0"/>
<feBlend mode="normal" in2="BackgroundImageFix" result="effect1_dropShadow"/>
<feBlend mode="normal" in="SourceGraphic" in2="effect1_dropShadow" result="shape"/>
</filter>
<linearGradient id="paint0_linear" x1="85.2814" y1="3.47739" x2="150.837" y2="148.698" gradientUnits="userSpaceOnUse">
<stop stop-color="#EAEEF9"/>
<stop offset="1" stop-color="#C7D2ED"/>
</linearGradient>
<linearGradient id="paint1_linear" x1="160.5" y1="94.5" x2="181.5" y2="110.5" gradientUnits="userSpaceOnUse">
<stop stop-color="#AFB8CA"/>
<stop offset="1" stop-color="#9AA3B3"/>
</linearGradient>
</defs>
</svg>
