<svg width="252" height="231" viewBox="0 0 252 231" fill="none" xmlns="http://www.w3.org/2000/svg">
<ellipse cx="221.962" cy="39.6409" rx="7.54603" ry="7.5667" fill="#EAEEF9"/>
<ellipse cx="219.467" cy="8.79507" rx="3.77301" ry="3.78335" fill="#EAEEF9"/>
<ellipse cx="122.238" cy="103.24" rx="101.197" ry="101.235" fill="url(#paint0_linear)"/>
<g filter="url(#filter0_f)">
<ellipse cx="31.0605" cy="46.1067" rx="6.01167" ry="6.01395" fill="#F73B8B"/>
</g>
<g filter="url(#filter1_f)">
<ellipse cx="24.0468" cy="201.467" rx="6.01167" ry="6.01395" fill="#F73B8B"/>
</g>
<path d="M59.1152 197.326V29.9275C59.1152 27.5801 61.6896 26.1421 63.6884 27.3731L69.3681 30.871C70.5211 31.5811 72.0069 31.4308 72.9942 30.5042L80.081 23.8535C81.1798 22.8223 82.8732 22.7662 84.0378 23.7226L92.2632 30.477C93.3881 31.4007 95.0138 31.3837 96.1191 30.4366L103.812 23.8448C104.996 22.8305 106.759 22.8918 107.87 23.986L114.193 30.2167C115.27 31.278 116.968 31.3719 118.156 30.4358L126.66 23.7318C127.87 22.7775 129.607 22.8959 130.677 24.0056L136.492 30.0374C137.595 31.181 139.398 31.2669 140.604 30.2333L148.157 23.761C149.3 22.7821 150.99 22.8008 152.111 23.8046L159.293 30.2386C160.453 31.277 162.213 31.2566 163.348 30.1916L169.919 24.025C171.094 22.9224 172.93 22.9448 174.078 24.0757L180.14 30.0491C181.287 31.18 183.123 31.2024 184.298 30.0998L191.048 23.7655C191.741 23.1155 192.875 23.6066 192.875 24.5566V196.778C192.875 199.368 189.812 200.741 187.879 199.017L184.24 195.773C183.082 194.74 181.327 194.762 180.194 195.822L174.024 201.598C172.89 202.659 171.135 202.68 169.977 201.648L163.293 195.688C162.175 194.692 160.493 194.672 159.352 195.643L152.055 201.853C150.953 202.791 149.339 202.808 148.217 201.895L140.54 195.646C139.354 194.681 137.631 194.762 136.541 195.836L130.631 201.66C129.574 202.701 127.914 202.814 126.727 201.924L118.09 195.457C116.926 194.585 115.304 194.674 114.242 195.668L107.818 201.681C106.723 202.707 105.038 202.765 103.874 201.818L96.0622 195.459C94.9773 194.576 93.4261 194.559 92.3231 195.42L83.9753 201.932C82.8325 202.824 81.2156 202.77 80.1337 201.806L73.1897 195.615C72.1077 194.65 70.4909 194.597 69.348 195.489L63.9605 199.692C61.9905 201.228 59.1152 199.825 59.1152 197.326Z" fill="white" stroke="#F5F6F8"/>
<path d="M82.5098 64.1484H143.032M154.221 64.1484H171.005M82.5098 88.7054H133.369M144.558 89.7077H171.005M82.5098 114.766H127.266M84.5441 142.33H127.266M82.5098 167.388H127.266" stroke="#CFD7E2" stroke-width="6" stroke-linecap="round"/>
<path opacity="0.41" d="M180.095 153.788C180.095 156.284 179.447 158.636 178.151 160.844C176.903 163.004 175.031 164.804 172.535 166.244C170.087 167.636 167.183 168.452 163.823 168.692V174.524H159.215V168.62C154.415 168.188 150.551 166.748 147.623 164.3C144.695 161.804 143.183 158.444 143.087 154.22H153.887C154.175 157.676 155.951 159.764 159.215 160.484V146.732C155.759 145.868 152.975 145.004 150.863 144.14C148.751 143.276 146.927 141.884 145.391 139.964C143.855 138.044 143.087 135.428 143.087 132.116C143.087 127.94 144.575 124.532 147.551 121.892C150.575 119.252 154.463 117.74 159.215 117.356V111.524H163.823V117.356C168.431 117.74 172.103 119.132 174.839 121.532C177.623 123.932 179.183 127.244 179.519 131.468H168.647C168.503 130.076 167.999 128.876 167.135 127.868C166.319 126.812 165.215 126.068 163.823 125.636V139.244C167.423 140.156 170.255 141.044 172.319 141.908C174.431 142.724 176.255 144.092 177.791 146.012C179.327 147.884 180.095 150.476 180.095 153.788ZM153.599 131.612C153.599 133.196 154.079 134.492 155.039 135.5C155.999 136.46 157.391 137.252 159.215 137.876V125.42C157.487 125.66 156.119 126.308 155.111 127.364C154.103 128.42 153.599 129.836 153.599 131.612ZM163.823 160.628C165.647 160.292 167.063 159.548 168.071 158.396C169.127 157.244 169.655 155.852 169.655 154.22C169.655 152.636 169.151 151.364 168.143 150.404C167.135 149.444 165.695 148.652 163.823 148.028V160.628Z" fill="#29588B"/>
<g filter="url(#filter2_f)">
<rect x="10.6982" y="217.955" width="225.123" height="5.04447" rx="2.52223" fill="#EBF0F6"/>
</g>
<path d="M227.928 189.161C227.928 174.922 216.385 163.379 202.145 163.379C187.906 163.379 176.363 174.922 176.363 189.161V207.748C176.363 212.494 180.211 216.342 184.957 216.342H201.446C216.072 216.342 227.928 204.486 227.928 189.86V189.161Z" fill="url(#paint1_linear)"/>
<path d="M211.578 198.235L193.87 181.034L171.333 202.926L189.041 220.126L211.578 198.235Z" fill="url(#paint2_linear)"/>
<path d="M243.074 74.1719C235.514 79.226 227.498 79.4366 224.436 78.9101C233.256 91.7561 246.487 86.544 252 82.3322C249.27 81.4899 244.912 76.541 243.074 74.1719Z" fill="#DFE8F1"/>
<path d="M230.474 84.7009C237.299 88.6495 241.499 86.8068 242.287 86.5436C238.717 86.5436 236.249 84.4377 235.461 83.3848C233.991 84.4377 231.524 84.7887 230.474 84.7009Z" fill="#CFD7E2"/>
<path d="M21.6446 0C14.0841 5.05414 6.06856 5.26473 3.00586 4.73826C11.8264 17.5842 25.0573 12.3721 30.5702 8.16034C27.84 7.31798 23.4822 2.36913 21.6446 0Z" fill="#DFE8F1"/>
<path d="M9.04395 10.5291C15.8694 14.4776 20.0697 12.635 20.8572 12.3717C17.287 12.3717 14.8193 10.2658 14.0318 9.21289C12.5617 10.2658 10.094 10.6168 9.04395 10.5291Z" fill="#CFD7E2"/>
<circle r="3.77819" transform="matrix(0.706138 0.708072 -0.706138 0.708072 5.33594 69.4989)" fill="#EAEEF9"/>
<path d="M202.393 179.416C196.862 179.416 192.373 183.906 192.373 189.439C192.373 194.972 196.862 199.462 202.393 199.462C207.923 199.462 212.412 194.972 212.412 189.439C212.412 183.906 207.923 179.416 202.393 179.416ZM199.677 193.739L196.08 190.141C195.689 189.75 195.689 189.119 196.08 188.728C196.471 188.337 197.102 188.337 197.493 188.728L200.389 191.614L207.282 184.718C207.673 184.327 208.304 184.327 208.695 184.718C209.086 185.109 209.086 185.741 208.695 186.132L201.09 193.739C200.709 194.13 200.068 194.13 199.677 193.739Z" fill="white"/>
<rect x="4.00781" y="98.2275" width="113.22" height="75.1743" rx="8" fill="url(#paint3_linear)"/>
<rect x="4.00781" y="112.26" width="113.22" height="14.0325" fill="#4460FD"/>
<ellipse cx="31.0605" cy="157.364" rx="8.01557" ry="8.01859" fill="#4561FD"/>
<ellipse cx="22.0429" cy="157.364" rx="8.01557" ry="8.01859" fill="#B3C5FE"/>
<path d="M14.0273 137.819H34.5672M40.5789 137.819H59.1149M65.1266 137.819H83.1616M89.1733 137.819H107.709" stroke="#4460FD" stroke-width="4" stroke-linecap="round"/>
<path d="M75.6465 156.863H107.709" stroke="#4460FD" stroke-width="4" stroke-linecap="round"/>
<defs>
<filter id="filter0_f" x="21.0488" y="36.0928" width="20.0233" height="20.0279" filterUnits="userSpaceOnUse" color-interpolation-filters="sRGB">
<feFlood flood-opacity="0" result="BackgroundImageFix"/>
<feBlend mode="normal" in="SourceGraphic" in2="BackgroundImageFix" result="shape"/>
<feGaussianBlur stdDeviation="2" result="effect1_foregroundBlur"/>
</filter>
<filter id="filter1_f" x="14.0352" y="191.453" width="20.0233" height="20.0279" filterUnits="userSpaceOnUse" color-interpolation-filters="sRGB">
<feFlood flood-opacity="0" result="BackgroundImageFix"/>
<feBlend mode="normal" in="SourceGraphic" in2="BackgroundImageFix" result="shape"/>
<feGaussianBlur stdDeviation="2" result="effect1_foregroundBlur"/>
</filter>
<filter id="filter2_f" x="2.69824" y="209.955" width="241.123" height="21.0445" filterUnits="userSpaceOnUse" color-interpolation-filters="sRGB">
<feFlood flood-opacity="0" result="BackgroundImageFix"/>
<feBlend mode="normal" in="SourceGraphic" in2="BackgroundImageFix" result="shape"/>
<feGaussianBlur stdDeviation="4" result="effect1_foregroundBlur"/>
</filter>
<linearGradient id="paint0_linear" x1="58.113" y1="-4.00906" x2="228.519" y2="198.898" gradientUnits="userSpaceOnUse">
<stop stop-color="#E9EDF8"/>
<stop offset="0.901753" stop-color="#D6DDE9" stop-opacity="0.5"/>
</linearGradient>
<linearGradient id="paint1_linear" x1="225.412" y1="177.25" x2="176.27" y2="213.695" gradientUnits="userSpaceOnUse">
<stop stop-color="#FE63A7"/>
<stop offset="1" stop-color="#ED2F87"/>
</linearGradient>
<linearGradient id="paint2_linear" x1="203.529" y1="189.634" x2="179.279" y2="213.794" gradientUnits="userSpaceOnUse">
<stop stop-opacity="0.08"/>
<stop offset="1" stop-color="#EF368B" stop-opacity="0"/>
</linearGradient>
<linearGradient id="paint3_linear" x1="17.0331" y1="101.235" x2="112.245" y2="175.873" gradientUnits="userSpaceOnUse">
<stop stop-color="#83A6FD"/>
<stop offset="1" stop-color="#6280FD"/>
</linearGradient>
</defs>
</svg>
