<svg width="217" height="178" viewBox="0 0 217 178" fill="none" xmlns="http://www.w3.org/2000/svg">
<rect x="24" width="174" height="178" fill="white"/>
<g filter="url(#filter0_d)">
<rect x="39.9395" y="48.6082" width="37.1908" height="52.0308" rx="5.31298" fill="white"/>
<rect x="40.2715" y="48.9403" width="36.5267" height="51.3666" rx="4.98092" stroke="#F3F5F9" stroke-width="0.664122"/>
</g>
<rect x="52.8135" y="84.1293" width="11.4433" height="4.00237" rx="2.00118" fill="#D5DDEA"/>
<path d="M69.5012 68.1197C69.5012 74.4748 64.5913 79.6264 58.5348 79.6264C52.4781 79.6264 47.5684 74.4748 47.5684 68.1197C47.5684 61.7646 52.4781 56.613 58.5348 56.613C64.5913 56.613 69.5012 61.7646 69.5012 68.1197Z" fill="#8F95E6"/>
<path d="M58.5348 78.7275C52.6217 78.7275 47.8025 73.8168 47.5774 67.6703C47.5719 67.8195 47.5684 67.9691 47.5684 68.1198C47.5684 74.4747 52.4781 79.6265 58.5348 79.6265C64.5913 79.6265 69.5012 74.4747 69.5012 68.1198C69.5012 67.9691 69.4976 67.8195 69.492 67.6703C69.267 73.8168 64.4477 78.7275 58.5348 78.7275V78.7275Z" fill="#6770E6"/>
<path d="M61.423 61.2239C61.2984 60.7183 60.7664 60.0014 58.751 60.0014C55.6373 60.0014 55.1938 60.4853 54.3652 59.6497C53.6661 58.9447 53.2554 62.3376 54.1877 63.4151C53.7943 64.9413 54.109 66.4699 54.109 66.4699H62.8698C62.8697 66.4699 63.6049 62.8993 61.423 61.2239Z" fill="#1959A9"/>
<path d="M54.3651 60.4656C55.1939 61.3012 55.6371 60.8173 58.7509 60.8173C60.7664 60.8173 61.2984 61.534 61.4229 62.0398C62.5834 62.9307 62.9187 64.3577 62.9783 65.4986C63.0368 64.3183 62.8849 62.3464 61.4229 61.2241C61.2984 60.7183 60.7664 60.0016 58.7509 60.0016C55.6371 60.0016 55.1939 60.4853 54.3651 59.6497C53.9056 59.1863 53.5709 60.4932 53.6599 61.7496C53.7245 60.8206 54.0066 60.1041 54.3651 60.4656Z" fill="#5A45BE"/>
<path d="M54.9936 66.6304C54.9936 66.6304 54.6159 65.9046 53.8605 65.9046C53.1052 65.9046 52.57 69.3892 54.9936 68.8083V66.6304Z" fill="#FFE4D1"/>
<path d="M61.9849 66.6304C61.9849 66.6304 62.3625 65.9046 63.1179 65.9046C63.8734 65.9046 64.4084 69.3892 61.9849 68.8083V66.6304Z" fill="#FFE4D1"/>
<path d="M58.4895 61.9612C52.7024 61.9612 53.8089 71.9201 58.4895 71.9201C63.1701 71.9201 64.2766 61.9612 58.4895 61.9612Z" fill="#FFEFE4"/>
<path d="M58.4891 61.4191C58.4891 61.4191 54.5527 60.8363 54.5527 66.1358C54.5527 66.1358 55.0484 63.9455 56.1854 63.3481C56.715 63.0698 56.909 63.7748 58.4891 63.7748C60.0691 63.7748 60.2632 63.0698 60.7926 63.3481C61.9298 63.9455 62.4253 66.1358 62.4253 66.1358C62.4253 60.8363 58.4891 61.4191 58.4891 61.4191Z" fill="#1959A9"/>
<path d="M66.4524 76.0809C66.1711 75.3577 65.5996 74.778 64.8615 74.5234L61.3053 73.2973C60.9698 73.1816 60.7419 72.8545 60.7387 72.4839L60.726 70.9771C60.1316 71.5386 59.3917 71.8865 58.5264 71.8946C57.6613 71.9025 56.9156 71.5682 56.3117 71.018L56.3239 72.4719C56.3271 72.8482 56.0979 73.1834 55.757 73.3008L52.2022 74.5241C51.4657 74.7776 50.8948 75.3548 50.6123 76.0755C52.6086 78.2636 55.42 79.6264 58.5349 79.6264C61.647 79.6264 64.4562 78.2658 66.4524 76.0809V76.0809Z" fill="#5A45BE"/>
<path d="M58.9181 79.6186C58.9812 79.6164 59.0443 79.6143 59.107 79.6109C59.1442 79.609 59.1812 79.6058 59.2182 79.6035C59.2757 79.5999 59.3333 79.5965 59.3907 79.5918C59.4295 79.5886 59.468 79.5844 59.5068 79.5809C59.562 79.5758 59.6173 79.5711 59.6723 79.5651C59.712 79.5609 59.7515 79.5556 59.7909 79.5509C59.8447 79.5445 59.8982 79.5384 59.9516 79.5312C59.9917 79.5258 60.0317 79.5194 60.0716 79.5135C60.1241 79.5057 60.1767 79.4982 60.229 79.4898C60.269 79.4833 60.3087 79.4759 60.3485 79.4691C60.4005 79.4599 60.4526 79.4511 60.5043 79.4411C60.544 79.4336 60.5833 79.4253 60.6229 79.4174C60.6745 79.4069 60.7258 79.3967 60.777 79.3855C60.8164 79.377 60.8554 79.3677 60.8945 79.3588C60.9456 79.347 60.9968 79.3353 61.0476 79.3228C61.0863 79.3133 61.1248 79.3031 61.1633 79.2933C61.2141 79.2801 61.265 79.267 61.3159 79.2531C61.3539 79.2426 61.3917 79.2315 61.4295 79.2208C61.4802 79.2062 61.5309 79.1916 61.5814 79.1764C61.6186 79.1651 61.6556 79.1532 61.6927 79.1416C61.7434 79.1256 61.7941 79.1096 61.8445 79.093C61.8808 79.0808 61.9169 79.0684 61.9531 79.0559C62.0038 79.0385 62.0543 79.021 62.1047 79.0027C62.1402 78.9899 62.1753 78.9767 62.2106 78.9636C62.2613 78.9448 62.3118 78.9255 62.3622 78.906C62.3967 78.8925 62.4312 78.8786 62.4656 78.8647C62.516 78.8443 62.5664 78.8238 62.6166 78.8027C62.6502 78.7885 62.6838 78.7739 62.7173 78.7595C62.7678 78.7376 62.8182 78.7153 62.8684 78.6926C62.901 78.6781 62.9333 78.6631 62.9656 78.648C63.0163 78.6247 63.0667 78.6008 63.1169 78.5766C63.1483 78.5613 63.1798 78.546 63.2109 78.5304C63.2618 78.5053 63.3125 78.4797 63.3629 78.4537C63.393 78.4382 63.4229 78.4226 63.4529 78.4068C63.5039 78.3799 63.5546 78.3525 63.6052 78.325C63.6341 78.309 63.6631 78.293 63.6918 78.2769C63.7429 78.2483 63.7936 78.2193 63.8441 78.19C63.8719 78.1738 63.8997 78.1575 63.9275 78.141C63.9783 78.1108 64.0292 78.08 64.0796 78.0488C64.1062 78.0325 64.1328 78.0161 64.1594 77.9995C64.2106 77.9673 64.2616 77.9345 64.3123 77.9015C64.3374 77.8852 64.3625 77.8687 64.3875 77.8521C64.439 77.8179 64.4902 77.7831 64.5411 77.748C64.5648 77.7317 64.5886 77.7155 64.6122 77.699C64.6639 77.6629 64.7153 77.626 64.7663 77.589C64.7886 77.5726 64.811 77.5566 64.8331 77.5403C64.8853 77.5019 64.937 77.4627 64.9884 77.4234C65.0089 77.4078 65.0295 77.3921 65.0499 77.3763C65.1026 77.3354 65.1549 77.2938 65.2069 77.2518C65.2255 77.2369 65.2442 77.222 65.2628 77.2069C65.3162 77.1634 65.3689 77.1191 65.4214 77.0747C65.4382 77.0605 65.4552 77.0464 65.472 77.032C65.5262 76.9855 65.5799 76.9383 65.6333 76.8905C65.6477 76.8777 65.6622 76.865 65.6764 76.8522C65.732 76.802 65.7869 76.7513 65.8414 76.7002C65.8533 76.6889 65.8654 76.6781 65.8771 76.6668C65.9341 76.6129 65.9904 76.5583 66.0462 76.5032C66.0553 76.4942 66.0645 76.4854 66.0735 76.4767C66.1329 76.4177 66.1915 76.3578 66.2497 76.2974C66.2547 76.292 66.2601 76.2869 66.2653 76.2816C66.328 76.2159 66.3901 76.1497 66.4515 76.0825C66.4519 76.0821 66.4522 76.0818 66.4524 76.0816C66.3727 75.8765 66.2688 75.6836 66.1453 75.5057C64.1733 77.5003 61.4907 78.7274 58.5349 78.7274C55.577 78.7274 52.8927 77.4985 50.9205 75.501C50.7967 75.6783 50.6925 75.8709 50.6123 76.0755C50.6128 76.0762 50.6136 76.0769 50.6141 76.0774C50.6751 76.1441 50.7368 76.2101 50.7992 76.2755C50.8062 76.2828 50.8136 76.29 50.8206 76.2974C50.8769 76.3557 50.9334 76.4136 50.9908 76.4707C51.0024 76.4821 51.0141 76.4933 51.0256 76.5046C51.079 76.5573 51.1327 76.6096 51.1871 76.6612C51.2017 76.6751 51.2164 76.6884 51.2311 76.7023C51.2828 76.7509 51.3349 76.7992 51.3876 76.8466C51.4046 76.8622 51.4222 76.8773 51.4394 76.8926C51.49 76.9377 51.5408 76.9827 51.5922 77.0268C51.6116 77.0436 51.6315 77.0599 51.651 77.0764C51.7008 77.1186 51.7507 77.1605 51.8012 77.2018C51.8225 77.2194 51.8441 77.2362 51.8655 77.2536C51.9147 77.2933 51.9642 77.3328 52.0142 77.3716C52.0372 77.3895 52.0606 77.4071 52.0837 77.4248C52.1325 77.4622 52.1816 77.4992 52.2309 77.5358C52.2557 77.554 52.2808 77.5719 52.3057 77.59C52.3541 77.6253 52.403 77.6602 52.452 77.6947C52.4781 77.7129 52.5044 77.7308 52.5306 77.7489C52.579 77.7823 52.6275 77.8153 52.6764 77.8479C52.704 77.8662 52.7318 77.8843 52.7595 77.9024C52.8077 77.9338 52.8561 77.9649 52.9046 77.9954C52.9336 78.0135 52.9627 78.0314 52.9916 78.0493C53.0397 78.079 53.0882 78.1083 53.1367 78.1373C53.1667 78.1552 53.1966 78.1726 53.2267 78.1901C53.2751 78.2182 53.3236 78.2461 53.3725 78.2734C53.4033 78.2907 53.4344 78.3078 53.4654 78.3248C53.5139 78.3513 53.5624 78.3775 53.6113 78.4035C53.6432 78.4203 53.6755 78.4372 53.7078 78.4537C53.7562 78.4786 53.8049 78.5034 53.8536 78.5274C53.8867 78.5439 53.9198 78.5603 53.9531 78.5762C54.0017 78.5996 54.0502 78.6228 54.0991 78.6454C54.1332 78.6612 54.1673 78.677 54.2016 78.6925C54.2502 78.7144 54.2989 78.7358 54.3479 78.7571C54.3829 78.7724 54.4182 78.7875 54.4535 78.8024C54.502 78.8227 54.5507 78.8428 54.5996 78.8624C54.6355 78.877 54.6715 78.8914 54.7078 78.9056C54.7567 78.9246 54.8057 78.9432 54.8547 78.9616C54.8914 78.9753 54.9282 78.989 54.965 79.0024C55.014 79.0201 55.0632 79.0371 55.1126 79.0542C55.1501 79.067 55.1876 79.08 55.2252 79.0924C55.2744 79.1088 55.3238 79.1244 55.3731 79.14C55.4115 79.1521 55.4496 79.1642 55.4883 79.176C55.5376 79.1909 55.5873 79.2052 55.6369 79.2196C55.6759 79.2306 55.7145 79.242 55.7535 79.2527C55.8034 79.2663 55.8534 79.2793 55.9034 79.2922C55.9427 79.3024 55.9821 79.3128 56.0216 79.3224C56.0716 79.3347 56.122 79.3463 56.1723 79.3579C56.2123 79.367 56.2522 79.3765 56.2923 79.3853C56.3427 79.3962 56.3934 79.4064 56.4439 79.4167C56.4842 79.4248 56.5246 79.4332 56.5651 79.441C56.6159 79.4508 56.6671 79.4594 56.7183 79.4683C56.759 79.4755 56.7995 79.4829 56.8403 79.4896C56.892 79.498 56.9439 79.5054 56.9958 79.5131C57.0364 79.5191 57.0769 79.5256 57.1178 79.531C57.1703 79.5381 57.2234 79.5442 57.2764 79.5505C57.3167 79.5554 57.3569 79.5607 57.3974 79.5651C57.4516 79.5709 57.5062 79.5756 57.5607 79.5807C57.6 79.5844 57.6394 79.5884 57.679 79.5918C57.7361 79.5965 57.7933 79.5997 57.8507 79.6035C57.8878 79.606 57.9252 79.609 57.9625 79.6109C58.0262 79.6144 58.0903 79.6165 58.1542 79.6188C58.1855 79.6199 58.2165 79.6216 58.2478 79.6225C58.3432 79.6251 58.4389 79.6265 58.5349 79.6265C58.6308 79.6265 58.7265 79.6251 58.8219 79.6227C58.854 79.6216 58.886 79.6199 58.9181 79.6186V79.6186Z" fill="#4E56B0"/>
<path d="M58.4045 76.5624C60.2279 76.5624 61.7833 75.3614 62.3935 73.6725L61.3054 73.2973C60.9699 73.1816 60.7419 72.8543 60.7389 72.4839L60.7262 70.9771C60.1317 71.5386 59.3919 71.8865 58.5266 71.8946C57.6613 71.9025 56.9157 71.5682 56.3119 71.018L56.3241 72.4719C56.3273 72.8482 56.0981 73.1834 55.7572 73.3008L54.4453 73.7522C55.0752 75.399 56.6098 76.5624 58.4045 76.5624V76.5624Z" fill="#FFE4D1"/>
<path d="M58.5348 57.5119C64.4477 57.5119 69.267 62.4227 69.492 68.5692C69.4976 68.4199 69.5012 68.2703 69.5012 68.1197C69.5012 61.7648 64.5913 56.613 58.5348 56.613C52.4781 56.613 47.5684 61.7648 47.5684 68.1197C47.5684 68.2703 47.5719 68.4199 47.5774 68.5692C47.8025 62.4227 52.6217 57.5119 58.5348 57.5119V57.5119Z" fill="#9FA5FF"/>
<rect x="49.9526" y="90.1328" width="17.165" height="2.00118" rx="1.00059" fill="#D5DDEA"/>
<g filter="url(#filter1_d)">
<rect x="139.558" y="48.6082" width="37.1908" height="52.0308" rx="5.31298" fill="white"/>
<rect x="139.89" y="48.9403" width="36.5267" height="51.3666" rx="4.98092" stroke="#F3F5F9" stroke-width="0.664122"/>
</g>
<rect x="152.432" y="84.1293" width="11.4433" height="4.00237" rx="2.00118" fill="#D5DDEA"/>
<path d="M169.119 68.1197C169.119 74.4748 164.209 79.6264 158.153 79.6264C152.096 79.6264 147.187 74.4748 147.187 68.1197C147.187 61.7646 152.096 56.613 158.153 56.613C164.209 56.613 169.119 61.7646 169.119 68.1197Z" fill="#8F95E6"/>
<path d="M158.153 78.7275C152.24 78.7275 147.421 73.8168 147.196 67.6703C147.19 67.8195 147.187 67.9691 147.187 68.1198C147.187 74.4747 152.096 79.6265 158.153 79.6265C164.209 79.6265 169.119 74.4747 169.119 68.1198C169.119 67.9691 169.116 67.8195 169.11 67.6703C168.885 73.8168 164.066 78.7275 158.153 78.7275V78.7275Z" fill="#6770E6"/>
<path d="M161.041 61.2239C160.917 60.7183 160.385 60.0014 158.369 60.0014C155.255 60.0014 154.812 60.4853 153.983 59.6497C153.284 58.9447 152.874 62.3376 153.806 63.4151C153.412 64.9413 153.727 66.4699 153.727 66.4699H162.488C162.488 66.4699 163.223 62.8993 161.041 61.2239Z" fill="#1959A9"/>
<path d="M153.983 60.4656C154.812 61.3012 155.255 60.8173 158.369 60.8173C160.385 60.8173 160.917 61.534 161.041 62.0398C162.202 62.9307 162.537 64.3577 162.596 65.4986C162.655 64.3183 162.503 62.3464 161.041 61.2241C160.917 60.7183 160.385 60.0016 158.369 60.0016C155.255 60.0016 154.812 60.4853 153.983 59.6497C153.524 59.1863 153.189 60.4932 153.278 61.7496C153.343 60.8206 153.625 60.1041 153.983 60.4656Z" fill="#5A45BE"/>
<path d="M154.612 66.6304C154.612 66.6304 154.234 65.9046 153.479 65.9046C152.723 65.9046 152.188 69.3892 154.612 68.8083V66.6304Z" fill="#FFE4D1"/>
<path d="M161.603 66.6304C161.603 66.6304 161.981 65.9046 162.736 65.9046C163.492 65.9046 164.027 69.3892 161.603 68.8083V66.6304Z" fill="#FFE4D1"/>
<path d="M158.108 61.9612C152.321 61.9612 153.427 71.9201 158.108 71.9201C162.788 71.9201 163.895 61.9612 158.108 61.9612Z" fill="#FFEFE4"/>
<path d="M158.107 61.4191C158.107 61.4191 154.171 60.8363 154.171 66.1358C154.171 66.1358 154.667 63.9455 155.804 63.3481C156.333 63.0698 156.527 63.7748 158.107 63.7748C159.687 63.7748 159.881 63.0698 160.411 63.3481C161.548 63.9455 162.043 66.1358 162.043 66.1358C162.043 60.8363 158.107 61.4191 158.107 61.4191Z" fill="#1959A9"/>
<path d="M166.071 76.0809C165.789 75.3577 165.218 74.778 164.48 74.5234L160.923 73.2973C160.588 73.1816 160.36 72.8545 160.357 72.4839L160.344 70.9771C159.75 71.5386 159.01 71.8865 158.145 71.8946C157.279 71.9025 156.534 71.5682 155.93 71.018L155.942 72.4719C155.945 72.8482 155.716 73.1834 155.375 73.3008L151.82 74.5241C151.084 74.7776 150.513 75.3548 150.23 76.0755C152.227 78.2636 155.038 79.6264 158.153 79.6264C161.265 79.6264 164.074 78.2658 166.071 76.0809V76.0809Z" fill="#5A45BE"/>
<path d="M158.536 79.6186C158.599 79.6164 158.662 79.6143 158.725 79.6109C158.762 79.609 158.799 79.6058 158.836 79.6035C158.894 79.5999 158.951 79.5965 159.009 79.5918C159.048 79.5886 159.086 79.5844 159.125 79.5809C159.18 79.5758 159.235 79.5711 159.29 79.5651C159.33 79.5609 159.37 79.5556 159.409 79.5509C159.463 79.5445 159.516 79.5384 159.57 79.5312C159.61 79.5258 159.65 79.5194 159.69 79.5135C159.742 79.5057 159.795 79.4982 159.847 79.4898C159.887 79.4833 159.927 79.4759 159.967 79.4691C160.019 79.4599 160.071 79.4511 160.122 79.4411C160.162 79.4336 160.201 79.4253 160.241 79.4174C160.293 79.4069 160.344 79.3967 160.395 79.3855C160.435 79.377 160.474 79.3677 160.513 79.3588C160.564 79.347 160.615 79.3353 160.666 79.3228C160.704 79.3133 160.743 79.3031 160.781 79.2933C160.832 79.2801 160.883 79.267 160.934 79.2531C160.972 79.2426 161.01 79.2315 161.048 79.2208C161.098 79.2062 161.149 79.1916 161.2 79.1764C161.237 79.1651 161.274 79.1532 161.311 79.1416C161.362 79.1256 161.412 79.1096 161.463 79.093C161.499 79.0808 161.535 79.0684 161.571 79.0559C161.622 79.0385 161.672 79.021 161.723 79.0027C161.758 78.9899 161.793 78.9767 161.829 78.9636C161.879 78.9448 161.93 78.9255 161.98 78.906C162.015 78.8925 162.049 78.8786 162.084 78.8647C162.134 78.8443 162.185 78.8238 162.235 78.8027C162.268 78.7885 162.302 78.7739 162.335 78.7595C162.386 78.7376 162.436 78.7153 162.487 78.6926C162.519 78.6781 162.551 78.6631 162.584 78.648C162.634 78.6247 162.685 78.6008 162.735 78.5766C162.767 78.5613 162.798 78.546 162.829 78.5304C162.88 78.5053 162.931 78.4797 162.981 78.4537C163.011 78.4382 163.041 78.4226 163.071 78.4068C163.122 78.3799 163.173 78.3525 163.223 78.325C163.252 78.309 163.281 78.293 163.31 78.2769C163.361 78.2483 163.412 78.2193 163.462 78.19C163.49 78.1738 163.518 78.1575 163.546 78.141C163.596 78.1108 163.647 78.08 163.698 78.0488C163.724 78.0325 163.751 78.0161 163.778 77.9995C163.829 77.9673 163.88 77.9345 163.93 77.9015C163.956 77.8852 163.981 77.8687 164.006 77.8521C164.057 77.8179 164.108 77.7831 164.159 77.748C164.183 77.7317 164.207 77.7155 164.23 77.699C164.282 77.6629 164.333 77.626 164.384 77.589C164.407 77.5726 164.429 77.5566 164.451 77.5403C164.503 77.5019 164.555 77.4627 164.607 77.4234C164.627 77.4078 164.648 77.3921 164.668 77.3763C164.721 77.3354 164.773 77.2938 164.825 77.2518C164.844 77.2369 164.862 77.222 164.881 77.2069C164.934 77.1634 164.987 77.1191 165.04 77.0747C165.056 77.0605 165.073 77.0464 165.09 77.032C165.144 76.9855 165.198 76.9383 165.251 76.8905C165.266 76.8777 165.28 76.865 165.295 76.8522C165.35 76.802 165.405 76.7513 165.46 76.7002C165.471 76.6889 165.484 76.6781 165.495 76.6668C165.552 76.6129 165.609 76.5583 165.664 76.5032C165.673 76.4942 165.683 76.4854 165.692 76.4767C165.751 76.4177 165.81 76.3578 165.868 76.2974C165.873 76.292 165.878 76.2869 165.883 76.2816C165.946 76.2159 166.008 76.1497 166.07 76.0825C166.07 76.0821 166.07 76.0818 166.071 76.0816C165.991 75.8765 165.887 75.6836 165.763 75.5057C163.791 77.5003 161.109 78.7274 158.153 78.7274C155.195 78.7274 152.511 77.4985 150.539 75.501C150.415 75.6783 150.311 75.8709 150.23 76.0755C150.231 76.0762 150.232 76.0769 150.232 76.0774C150.293 76.1441 150.355 76.2101 150.417 76.2755C150.424 76.2828 150.432 76.29 150.439 76.2974C150.495 76.3557 150.552 76.4136 150.609 76.4707C150.621 76.4821 150.632 76.4933 150.644 76.5046C150.697 76.5573 150.751 76.6096 150.805 76.6612C150.82 76.6751 150.835 76.6884 150.849 76.7023C150.901 76.7509 150.953 76.7992 151.006 76.8466C151.023 76.8622 151.04 76.8773 151.058 76.8926C151.108 76.9377 151.159 76.9827 151.21 77.0268C151.23 77.0436 151.25 77.0599 151.269 77.0764C151.319 77.1186 151.369 77.1605 151.419 77.2018C151.441 77.2194 151.462 77.2362 151.484 77.2536C151.533 77.2933 151.582 77.3328 151.632 77.3716C151.655 77.3895 151.679 77.4071 151.702 77.4248C151.751 77.4622 151.8 77.4992 151.849 77.5358C151.874 77.554 151.899 77.5719 151.924 77.59C151.972 77.6253 152.021 77.6602 152.07 77.6947C152.096 77.7129 152.123 77.7308 152.149 77.7489C152.197 77.7823 152.246 77.8153 152.295 77.8479C152.322 77.8662 152.35 77.8843 152.378 77.9024C152.426 77.9338 152.474 77.9649 152.523 77.9954C152.552 78.0135 152.581 78.0314 152.61 78.0493C152.658 78.079 152.706 78.1083 152.755 78.1373C152.785 78.1552 152.815 78.1726 152.845 78.1901C152.893 78.2182 152.942 78.2461 152.991 78.2734C153.021 78.2907 153.053 78.3078 153.084 78.3248C153.132 78.3513 153.181 78.3775 153.229 78.4035C153.261 78.4203 153.294 78.4372 153.326 78.4537C153.374 78.4786 153.423 78.5034 153.472 78.5274C153.505 78.5439 153.538 78.5603 153.571 78.5762C153.62 78.5996 153.668 78.6228 153.717 78.6454C153.751 78.6612 153.785 78.677 153.82 78.6925C153.868 78.7144 153.917 78.7358 153.966 78.7571C154.001 78.7724 154.036 78.7875 154.072 78.8024C154.12 78.8227 154.169 78.8428 154.218 78.8624C154.254 78.877 154.29 78.8914 154.326 78.9056C154.375 78.9246 154.424 78.9432 154.473 78.9616C154.51 78.9753 154.546 78.989 154.583 79.0024C154.632 79.0201 154.681 79.0371 154.731 79.0542C154.768 79.067 154.806 79.08 154.843 79.0924C154.893 79.1088 154.942 79.1244 154.991 79.14C155.03 79.1521 155.068 79.1642 155.106 79.176C155.156 79.1909 155.205 79.2052 155.255 79.2196C155.294 79.2306 155.333 79.242 155.372 79.2527C155.422 79.2663 155.472 79.2793 155.522 79.2922C155.561 79.3024 155.6 79.3128 155.64 79.3224C155.69 79.3347 155.74 79.3463 155.79 79.3579C155.83 79.367 155.87 79.3765 155.91 79.3853C155.961 79.3962 156.012 79.4064 156.062 79.4167C156.102 79.4248 156.143 79.4332 156.183 79.441C156.234 79.4508 156.285 79.4594 156.337 79.4683C156.377 79.4755 156.418 79.4829 156.458 79.4896C156.51 79.498 156.562 79.5054 156.614 79.5131C156.655 79.5191 156.695 79.5256 156.736 79.531C156.788 79.5381 156.842 79.5442 156.895 79.5505C156.935 79.5554 156.975 79.5607 157.016 79.5651C157.07 79.5709 157.124 79.5756 157.179 79.5807C157.218 79.5844 157.258 79.5884 157.297 79.5918C157.354 79.5965 157.411 79.5997 157.469 79.6035C157.506 79.606 157.543 79.609 157.581 79.6109C157.644 79.6144 157.708 79.6165 157.772 79.6188C157.804 79.6199 157.835 79.6216 157.866 79.6225C157.961 79.6251 158.057 79.6265 158.153 79.6265C158.249 79.6265 158.345 79.6251 158.44 79.6227C158.472 79.6216 158.504 79.6199 158.536 79.6186V79.6186Z" fill="#4E56B0"/>
<path d="M158.023 76.5624C159.846 76.5624 161.401 75.3614 162.012 73.6725L160.924 73.2973C160.588 73.1816 160.36 72.8543 160.357 72.4839L160.344 70.9771C159.75 71.5386 159.01 71.8865 158.145 71.8946C157.279 71.9025 156.534 71.5682 155.93 71.018L155.942 72.4719C155.945 72.8482 155.716 73.1834 155.375 73.3008L154.063 73.7522C154.693 75.399 156.228 76.5624 158.023 76.5624V76.5624Z" fill="#FFE4D1"/>
<path d="M158.153 57.5119C164.066 57.5119 168.885 62.4227 169.11 68.5692C169.116 68.4199 169.119 68.2703 169.119 68.1197C169.119 61.7648 164.209 56.613 158.153 56.613C152.096 56.613 147.187 61.7648 147.187 68.1197C147.187 68.2703 147.19 68.4199 147.196 68.5692C147.421 62.4227 152.24 57.5119 158.153 57.5119V57.5119Z" fill="#9FA5FF"/>
<rect x="149.571" y="90.1328" width="17.165" height="2.00118" rx="1.00059" fill="#D5DDEA"/>
<g filter="url(#filter2_d)">
<rect x="82.4434" y="39.0232" width="51.8015" height="71.2" rx="5.31298" fill="white"/>
<rect x="82.7754" y="39.3553" width="51.1374" height="70.5359" rx="4.98092" stroke="#F3F5F9" stroke-width="0.664122"/>
</g>
<rect x="100.375" y="87.6309" width="15.9389" height="5.47692" rx="2.73846" fill="#D5DDEA"/>
<path d="M123.619 65.7231C123.619 74.4195 116.78 81.4691 108.344 81.4691C99.9079 81.4691 93.0693 74.4195 93.0693 65.7231C93.0693 57.0266 99.9079 49.977 108.344 49.977C116.78 49.977 123.619 57.0266 123.619 65.7231Z" fill="#8F95E6"/>
<path d="M108.344 80.239C100.108 80.239 93.3954 73.5191 93.0819 65.1081C93.0742 65.3123 93.0693 65.517 93.0693 65.7232C93.0693 74.4193 99.9079 81.4692 108.344 81.4692C116.78 81.4692 123.619 74.4193 123.619 65.7232C123.619 65.517 123.614 65.3123 123.606 65.1081C123.292 73.5191 116.58 80.239 108.344 80.239V80.239Z" fill="#6770E6"/>
<path d="M112.367 56.2867C112.193 55.5948 111.452 54.6138 108.645 54.6138C104.308 54.6138 103.69 55.2759 102.536 54.1325C101.562 53.1678 100.99 57.8107 102.289 59.2852C101.741 61.3736 102.179 63.4654 102.179 63.4654H114.382C114.382 63.4654 115.406 58.5793 112.367 56.2867Z" fill="#1959A9"/>
<path d="M102.536 55.249C103.69 56.3925 104.308 55.7303 108.645 55.7303C111.452 55.7303 112.193 56.711 112.366 57.4032C113.983 58.6224 114.45 60.575 114.533 62.1362C114.614 60.5212 114.403 57.8228 112.366 56.287C112.193 55.5948 111.452 54.614 108.645 54.614C104.308 54.614 103.69 55.2759 102.536 54.1325C101.896 53.4985 101.43 55.2868 101.554 57.0061C101.644 55.7348 102.037 54.7543 102.536 55.249Z" fill="#5A45BE"/>
<path d="M103.411 63.6852C103.411 63.6852 102.885 62.6919 101.833 62.6919C100.781 62.6919 100.036 67.4602 103.411 66.6654V63.6852Z" fill="#FFE4D1"/>
<path d="M113.149 63.6852C113.149 63.6852 113.675 62.6919 114.728 62.6919C115.78 62.6919 116.525 67.4602 113.149 66.6654V63.6852Z" fill="#FFE4D1"/>
<path d="M108.281 57.2957C100.22 57.2957 101.761 70.9235 108.281 70.9235C114.8 70.9235 116.341 57.2957 108.281 57.2957Z" fill="#FFEFE4"/>
<path d="M108.281 56.5537C108.281 56.5537 102.798 55.7563 102.798 63.0082C102.798 63.0082 103.488 60.0109 105.072 59.1935C105.81 58.8127 106.08 59.7774 108.281 59.7774C110.481 59.7774 110.752 58.8127 111.489 59.1935C113.073 60.0109 113.763 63.0082 113.763 63.0082C113.763 55.7563 108.281 56.5537 108.281 56.5537Z" fill="#1959A9"/>
<path d="M119.372 76.6174C118.98 75.6278 118.184 74.8344 117.156 74.486L112.203 72.8083C111.736 72.6499 111.418 72.2023 111.414 71.6951L111.396 69.6331C110.568 70.4015 109.538 70.8777 108.332 70.8888C107.127 70.8996 106.089 70.4421 105.248 69.6891L105.265 71.6788C105.269 72.1937 104.95 72.6523 104.475 72.8131L99.5235 74.487C98.4978 74.8339 97.7025 75.6237 97.3091 76.61C100.09 79.6042 104.006 81.4691 108.344 81.4691C112.679 81.4691 116.592 79.6073 119.372 76.6174V76.6174Z" fill="#5A45BE"/>
<path d="M108.878 81.4585C108.966 81.4553 109.054 81.4525 109.141 81.4479C109.193 81.4452 109.244 81.4409 109.296 81.4378C109.376 81.4328 109.456 81.4282 109.536 81.4217C109.59 81.4174 109.644 81.4116 109.698 81.4068C109.775 81.3998 109.852 81.3934 109.928 81.3852C109.984 81.3794 110.039 81.3722 110.094 81.3657C110.168 81.3571 110.243 81.3487 110.317 81.3388C110.373 81.3314 110.429 81.3227 110.484 81.3145C110.558 81.304 110.631 81.2936 110.704 81.2821C110.76 81.2732 110.815 81.2631 110.87 81.2538C110.943 81.2413 111.015 81.2292 111.087 81.2156C111.142 81.2052 111.197 81.1939 111.252 81.1831C111.324 81.1687 111.396 81.1548 111.467 81.1394C111.522 81.1279 111.576 81.1151 111.631 81.1029C111.702 81.0868 111.773 81.0707 111.844 81.0536C111.898 81.0406 111.951 81.0267 112.005 81.0133C112.076 80.9952 112.147 80.9772 112.218 80.9582C112.271 80.9438 112.323 80.9287 112.376 80.914C112.446 80.8941 112.517 80.8741 112.588 80.8532C112.639 80.8379 112.691 80.8215 112.742 80.8057C112.813 80.7838 112.884 80.7619 112.954 80.7391C113.004 80.7225 113.055 80.7055 113.105 80.6884C113.176 80.6646 113.246 80.6406 113.316 80.6156C113.366 80.5981 113.415 80.5801 113.464 80.562C113.534 80.5363 113.605 80.5099 113.675 80.4832C113.723 80.4647 113.771 80.4457 113.819 80.4268C113.889 80.3989 113.959 80.3708 114.029 80.342C114.076 80.3225 114.123 80.3025 114.17 80.2828C114.24 80.2528 114.31 80.2223 114.38 80.1913C114.426 80.1714 114.47 80.1509 114.515 80.1303C114.586 80.0983 114.656 80.0656 114.726 80.0325C114.77 80.0116 114.814 79.9907 114.857 79.9693C114.928 79.9349 114.999 79.8999 115.069 79.8643C115.111 79.8432 115.152 79.8218 115.194 79.8002C115.265 79.7634 115.336 79.7259 115.406 79.6882C115.447 79.6663 115.487 79.6445 115.527 79.6224C115.598 79.5832 115.669 79.5435 115.739 79.5034C115.778 79.4813 115.816 79.459 115.855 79.4364C115.926 79.3951 115.997 79.353 116.067 79.3103C116.104 79.2879 116.141 79.2656 116.178 79.2427C116.25 79.1988 116.321 79.1538 116.391 79.1087C116.426 79.0863 116.461 79.0637 116.496 79.0412C116.568 78.9943 116.639 78.9467 116.71 78.8987C116.743 78.8763 116.776 78.8542 116.809 78.8316C116.881 78.7821 116.952 78.7317 117.024 78.681C117.055 78.6587 117.086 78.6368 117.117 78.6144C117.189 78.5618 117.261 78.5082 117.333 78.4544C117.362 78.433 117.39 78.4117 117.419 78.39C117.492 78.3341 117.565 78.2771 117.637 78.2197C117.663 78.1993 117.689 78.1788 117.715 78.1582C117.789 78.0986 117.863 78.038 117.936 77.9773C117.959 77.9578 117.983 77.9386 118.006 77.9189C118.082 77.8552 118.157 77.7906 118.231 77.7252C118.251 77.7077 118.271 77.6904 118.291 77.6728C118.369 77.6041 118.445 77.5347 118.521 77.4648C118.538 77.4494 118.554 77.4345 118.571 77.4191C118.65 77.3454 118.729 77.2706 118.806 77.1952C118.819 77.1829 118.832 77.1709 118.844 77.1589C118.927 77.0782 119.009 76.9963 119.09 76.9136C119.097 76.9062 119.104 76.8992 119.111 76.892C119.199 76.8021 119.285 76.7115 119.371 76.6195C119.371 76.619 119.372 76.6186 119.372 76.6183C119.261 76.3377 119.116 76.0736 118.944 75.8302C116.198 78.5597 112.461 80.2389 108.344 80.2389C104.224 80.2389 100.485 78.5573 97.7384 75.8238C97.5659 76.0664 97.4207 76.33 97.3091 76.6099C97.3098 76.6109 97.3109 76.6118 97.3116 76.6126C97.3965 76.7039 97.4825 76.7942 97.5694 76.8836C97.5792 76.8937 97.5895 76.9035 97.5993 76.9136C97.6776 76.9934 97.7563 77.0727 97.8363 77.1507C97.8524 77.1664 97.8687 77.1817 97.8848 77.1971C97.9591 77.2692 98.0339 77.3408 98.1097 77.4114C98.13 77.4304 98.1505 77.4487 98.171 77.4677C98.243 77.5342 98.3155 77.6003 98.3889 77.6652C98.4127 77.6865 98.4372 77.7072 98.4612 77.7281C98.5316 77.7899 98.6024 77.8514 98.674 77.9117C98.701 77.9347 98.7287 77.9571 98.7558 77.9797C98.8252 78.0373 98.8947 78.0947 98.9651 78.1512C98.9947 78.1752 99.0247 78.1983 99.0546 78.2221C99.1231 78.2764 99.1921 78.3304 99.2618 78.3835C99.2937 78.4081 99.3263 78.4321 99.3585 78.4563C99.4266 78.5075 99.4948 78.5582 99.5636 78.6082C99.5981 78.6332 99.6331 78.6577 99.6678 78.6824C99.7351 78.7307 99.8032 78.7785 99.8715 78.8256C99.9078 78.8506 99.9444 78.8751 99.981 78.8999C100.048 78.9455 100.116 78.9907 100.184 79.0354C100.222 79.0604 100.261 79.0851 100.3 79.1099C100.367 79.1529 100.434 79.1954 100.502 79.2372C100.542 79.262 100.583 79.2865 100.623 79.311C100.69 79.3516 100.758 79.3917 100.825 79.4313C100.867 79.4559 100.909 79.4796 100.951 79.5037C101.018 79.5421 101.086 79.5803 101.154 79.6176C101.197 79.6413 101.24 79.6646 101.283 79.6879C101.351 79.7242 101.418 79.76 101.486 79.7956C101.531 79.8187 101.576 79.8417 101.621 79.8643C101.688 79.8984 101.756 79.9323 101.824 79.9652C101.87 79.9878 101.916 80.0101 101.962 80.032C102.03 80.064 102.098 80.0957 102.166 80.1267C102.213 80.1483 102.261 80.1699 102.309 80.1911C102.376 80.2211 102.444 80.2504 102.512 80.2795C102.561 80.3004 102.61 80.321 102.659 80.3415C102.727 80.3693 102.795 80.3967 102.863 80.4236C102.913 80.4436 102.963 80.4633 103.014 80.4827C103.082 80.5087 103.15 80.5342 103.218 80.5594C103.269 80.5781 103.321 80.5969 103.372 80.6151C103.44 80.6394 103.509 80.6627 103.577 80.686C103.63 80.7035 103.682 80.7213 103.734 80.7384C103.803 80.7607 103.871 80.7821 103.94 80.8035C103.994 80.8201 104.047 80.8367 104.101 80.8528C104.169 80.8732 104.239 80.8926 104.308 80.9123C104.362 80.9275 104.416 80.9431 104.47 80.9578C104.539 80.9763 104.609 80.994 104.679 81.0118C104.734 81.0257 104.788 81.0399 104.843 81.0531C104.913 81.07 104.983 81.0858 105.053 81.1017C105.109 81.1142 105.165 81.1271 105.221 81.1392C105.291 81.154 105.361 81.168 105.432 81.1822C105.488 81.1932 105.544 81.2047 105.6 81.2153C105.671 81.2288 105.743 81.2405 105.814 81.2528C105.871 81.2626 105.927 81.2727 105.984 81.2819C106.056 81.2934 106.128 81.3035 106.2 81.3141C106.257 81.3222 106.313 81.3311 106.37 81.3386C106.443 81.3482 106.517 81.3566 106.591 81.3652C106.647 81.372 106.703 81.3792 106.76 81.3852C106.835 81.3931 106.911 81.3996 106.987 81.4066C107.042 81.4116 107.097 81.4171 107.152 81.4217C107.231 81.4282 107.311 81.4325 107.391 81.4378C107.443 81.4412 107.495 81.4452 107.547 81.4479C107.636 81.4527 107.725 81.4556 107.814 81.4587C107.858 81.4601 107.901 81.4625 107.944 81.4637C108.077 81.4674 108.21 81.4693 108.344 81.4693C108.478 81.4693 108.611 81.4674 108.744 81.464C108.789 81.4625 108.833 81.4601 108.878 81.4585V81.4585Z" fill="#4E56B0"/>
<path d="M108.161 77.2762C110.701 77.2762 112.868 75.6328 113.718 73.3217L112.202 72.8083C111.735 72.6499 111.417 72.2021 111.413 71.6951L111.395 69.6331C110.567 70.4015 109.537 70.8777 108.332 70.8888C107.126 70.8996 106.088 70.4421 105.247 69.6891L105.264 71.6788C105.268 72.1937 104.949 72.6523 104.474 72.8131L102.647 73.4308C103.524 75.6842 105.662 77.2762 108.161 77.2762V77.2762Z" fill="#FFE4D1"/>
<path d="M108.344 51.2072C116.58 51.2072 123.292 57.9272 123.606 66.3381C123.614 66.1339 123.619 65.9292 123.619 65.7231C123.619 57.0269 116.78 49.977 108.344 49.977C99.9079 49.977 93.0693 57.0269 93.0693 65.7231C93.0693 65.9292 93.0742 66.1339 93.0819 66.3381C93.3954 57.9272 100.108 51.2072 108.344 51.2072V51.2072Z" fill="#9FA5FF"/>
<rect x="96.3901" y="95.8463" width="23.9084" height="2.73846" rx="1.36923" fill="#D5DDEA"/>
<rect width="57.5123" height="7.94472" rx="3.97236" transform="matrix(0.69808 0.716019 -0.69808 0.716019 141.913 103.747)" fill="#848B9B"/>
<rect width="39.9198" height="12.3585" rx="6.17927" transform="matrix(0.69808 0.716019 -0.69808 0.716019 153.715 112.762)" fill="#A3ACBD"/>
<path fill-rule="evenodd" clip-rule="evenodd" d="M108.145 123.706C134.077 123.706 155.1 102.144 155.1 75.5455C155.1 48.9469 134.077 27.3846 108.145 27.3846C82.2131 27.3846 61.1909 48.9469 61.1909 75.5455C61.1909 102.144 82.2131 123.706 108.145 123.706ZM108.145 115.172C129.482 115.172 146.779 97.431 146.779 75.5461C146.779 53.6613 129.482 35.9201 108.145 35.9201C86.8087 35.9201 69.512 53.6613 69.512 75.5461C69.512 97.431 86.8087 115.172 108.145 115.172Z" fill="#ADB7C9"/>
<defs>
<filter id="filter0_d" x="0.0921249" y="28.6846" width="116.885" height="131.725" filterUnits="userSpaceOnUse" color-interpolation-filters="sRGB">
<feFlood flood-opacity="0" result="BackgroundImageFix"/>
<feColorMatrix in="SourceAlpha" type="matrix" values="0 0 0 0 0 0 0 0 0 0 0 0 0 0 0 0 0 0 127 0" result="hardAlpha"/>
<feOffset dy="19.9237"/>
<feGaussianBlur stdDeviation="19.9237"/>
<feColorMatrix type="matrix" values="0 0 0 0 0.123611 0 0 0 0 0.218939 0 0 0 0 0.333333 0 0 0 0.15 0"/>
<feBlend mode="normal" in2="BackgroundImageFix" result="effect1_dropShadow"/>
<feBlend mode="normal" in="SourceGraphic" in2="effect1_dropShadow" result="shape"/>
</filter>
<filter id="filter1_d" x="99.7103" y="28.6846" width="116.885" height="131.725" filterUnits="userSpaceOnUse" color-interpolation-filters="sRGB">
<feFlood flood-opacity="0" result="BackgroundImageFix"/>
<feColorMatrix in="SourceAlpha" type="matrix" values="0 0 0 0 0 0 0 0 0 0 0 0 0 0 0 0 0 0 127 0" result="hardAlpha"/>
<feOffset dy="19.9237"/>
<feGaussianBlur stdDeviation="19.9237"/>
<feColorMatrix type="matrix" values="0 0 0 0 0.123611 0 0 0 0 0.218939 0 0 0 0 0.333333 0 0 0 0.15 0"/>
<feBlend mode="normal" in2="BackgroundImageFix" result="effect1_dropShadow"/>
<feBlend mode="normal" in="SourceGraphic" in2="effect1_dropShadow" result="shape"/>
</filter>
<filter id="filter2_d" x="42.596" y="19.0995" width="131.496" height="150.895" filterUnits="userSpaceOnUse" color-interpolation-filters="sRGB">
<feFlood flood-opacity="0" result="BackgroundImageFix"/>
<feColorMatrix in="SourceAlpha" type="matrix" values="0 0 0 0 0 0 0 0 0 0 0 0 0 0 0 0 0 0 127 0" result="hardAlpha"/>
<feOffset dy="19.9237"/>
<feGaussianBlur stdDeviation="19.9237"/>
<feColorMatrix type="matrix" values="0 0 0 0 0.123611 0 0 0 0 0.218939 0 0 0 0 0.333333 0 0 0 0.15 0"/>
<feBlend mode="normal" in2="BackgroundImageFix" result="effect1_dropShadow"/>
<feBlend mode="normal" in="SourceGraphic" in2="effect1_dropShadow" result="shape"/>
</filter>
</defs>
</svg>
