<svg width="134" height="100" viewBox="0 0 134 100" fill="none" xmlns="http://www.w3.org/2000/svg">
<rect x="19.0627" y="93.6411" width="100.36" height="2.23936" rx="1.11968" fill="#EBF0F6"/>
<path d="M11.774 83.3028C11.774 76.955 16.92 71.8091 23.2678 71.8091C29.6156 71.8091 34.7615 76.955 34.7615 83.3028V91.4895C34.7615 93.6054 33.0462 95.3207 30.9303 95.3207H23.5299C17.0373 95.3207 11.774 90.0575 11.774 83.5649V83.3028Z" fill="url(#paint0_linear)"/>
<path d="M19.0626 87.2827L26.9569 79.647L37.004 89.3651L29.1098 97.0008L19.0626 87.2827Z" fill="url(#paint1_linear)"/>
<path d="M28.3398 88.5379C28.3398 89.0926 28.1958 89.6152 27.9078 90.1059C27.6305 90.5859 27.2145 90.9859 26.6598 91.3059C26.1158 91.6152 25.4705 91.7966 24.7238 91.8499V93.1459H23.6998V91.8339C22.6332 91.7379 21.7745 91.4179 21.1238 90.8739C20.4732 90.3192 20.1372 89.5726 20.1158 88.6339H22.5158C22.5798 89.4019 22.9745 89.8659 23.6998 90.0259V86.9699C22.9318 86.7779 22.3132 86.5859 21.8438 86.3939C21.3745 86.2019 20.9692 85.8926 20.6278 85.4659C20.2865 85.0392 20.1158 84.4579 20.1158 83.7219C20.1158 82.7939 20.4465 82.0366 21.1078 81.4499C21.7798 80.8632 22.6438 80.5272 23.6998 80.4419V79.1459H24.7238V80.4419C25.7478 80.5272 26.5638 80.8366 27.1718 81.3699C27.7905 81.9032 28.1372 82.6392 28.2118 83.5779H25.7958C25.7638 83.2686 25.6518 83.0019 25.4598 82.7779C25.2785 82.5432 25.0332 82.3779 24.7238 82.2819V85.3059C25.5238 85.5086 26.1532 85.7059 26.6118 85.8979C27.0812 86.0792 27.4865 86.3832 27.8278 86.8099C28.1692 87.2259 28.3398 87.8019 28.3398 88.5379ZM22.4518 83.6099C22.4518 83.9619 22.5585 84.2499 22.7718 84.4739C22.9852 84.6872 23.2945 84.8632 23.6998 85.0019V82.2339C23.3158 82.2872 23.0118 82.4312 22.7878 82.6659C22.5638 82.9006 22.4518 83.2152 22.4518 83.6099ZM24.7238 90.0579C25.1292 89.9832 25.4438 89.8179 25.6678 89.5619C25.9025 89.3059 26.0198 88.9966 26.0198 88.6339C26.0198 88.2819 25.9078 87.9992 25.6838 87.7859C25.4598 87.5726 25.1398 87.3966 24.7238 87.2579V90.0579Z" fill="white"/>
<path d="M94.4922 10.2317H42.03C38.9444 10.2317 36.4431 12.733 36.4431 15.8186V89.1747C36.4431 92.2603 38.9444 94.7616 42.03 94.7616H94.4922C97.5778 94.7616 100.079 92.2603 100.079 89.1747V15.8186C100.079 12.733 97.5778 10.2317 94.4922 10.2317Z" fill="#CED8E2"/>
<path d="M40.3679 90.8422V85.5241V23.3862H97.8366V90.8422H40.3679Z" fill="#A7AFBA" fill-opacity="0.25"/>
<path d="M39.2466 89.7226V83.8969V15.8289H96.9955V89.7226H39.2466Z" fill="#DEE6F0"/>
<path d="M36.7235 86.0839C37.8449 84.0686 38.3121 80.206 38.4055 78.5266L39.8072 26.4651H95.3135C95.3135 62.9641 92.1364 81.4189 90.5478 86.0839H36.7235Z" fill="#EDF4FA"/>
<g filter="url(#filter0_d)">
<path d="M30.1697 81.4499C37.5141 64.7676 39.1024 31.656 38.9733 16.2421C38.9701 15.8531 39.2841 15.5491 39.6731 15.5491H94.6152C95.0009 15.5491 95.3136 15.8617 95.3136 16.2474V51.2934C95.3136 51.3485 95.3067 51.4047 95.2938 51.4582C89.6676 74.6808 72.9712 81.7929 65.3177 82.4453H30.8188C30.3061 82.4453 29.9631 81.9191 30.1697 81.4499Z" fill="white"/>
</g>
<path d="M45.4148 30.3839L48.7788 33.463L54.3855 28.1445" stroke="url(#paint2_linear)" stroke-width="1.7459" stroke-linecap="round"/>
<path d="M60.2723 28.9849H89.4272" stroke="#CFD7E2" stroke-width="1.7459" stroke-linecap="round"/>
<path d="M60.2714 33.4629H72.6061" stroke="#CFD7E2" stroke-width="1.7459" stroke-linecap="round"/>
<path d="M77.0914 33.4629H89.4262" stroke="#CFD7E2" stroke-width="1.7459" stroke-linecap="round"/>
<path d="M45.4138 47.7377L48.7778 50.8168L54.3845 45.4983" stroke="url(#paint3_linear)" stroke-width="1.7459" stroke-linecap="round"/>
<path d="M60.2721 46.3386H89.4269" stroke="#CFD7E2" stroke-width="1.7459" stroke-linecap="round"/>
<path d="M60.2711 50.8167H72.6059" stroke="#CFD7E2" stroke-width="1.7459" stroke-linecap="round"/>
<path d="M77.0913 50.8167H89.426" stroke="#CFD7E2" stroke-width="1.7459" stroke-linecap="round"/>
<path d="M60.2721 63.6919H89.4269" stroke="#CFD7E2" stroke-width="1.7459" stroke-linecap="round"/>
<path d="M60.2711 68.1704H72.6059" stroke="#CFD7E2" stroke-width="1.7459" stroke-linecap="round"/>
<path d="M77.0913 68.1704H89.426" stroke="#CFD7E2" stroke-width="1.7459" stroke-linecap="round"/>
<ellipse cx="47.6565" cy="65.6512" rx="2.24268" ry="2.23936" fill="url(#paint4_linear)"/>
<path d="M65.3176 82.4452H56.9076C63.075 80.206 75.5779 72.2568 76.2507 58.3737C81.2967 58.9335 92.1737 58.3177 95.3135 51.3762C89.7068 74.6639 72.9801 81.7921 65.3176 82.4452Z" fill="#EAEEF9"/>
<path d="M66.3764 10.7915H54.3762C53.3441 10.7915 52.6685 11.8723 53.1207 12.8001L55.8517 18.4043C56.0857 18.8845 56.5731 19.1891 57.1072 19.1891H80.5643C81.1153 19.1891 81.6148 18.8652 81.8395 18.3621L84.343 12.7579C84.7557 11.834 84.0796 10.7915 83.0677 10.7915H70.6457C70.3659 10.7915 70.0924 10.8756 69.8609 11.0329L69.2959 11.4167C68.8222 11.7385 68.2 11.7385 67.7263 11.4167L67.1613 11.0329C66.9297 10.8756 66.6563 10.7915 66.3764 10.7915Z" fill="#15447A"/>
<path d="M65.7699 9.67188H53.7021C52.6987 9.67188 52.0226 10.6985 52.419 11.6203L55.3102 18.3442C55.5306 18.8569 56.0352 19.1892 56.5933 19.1892H79.9586C80.5323 19.1892 81.0477 18.8384 81.258 18.3046L83.9083 11.5808C84.2695 10.6643 83.594 9.67188 82.6089 9.67188H70.1309C69.8227 9.67188 69.5231 9.77383 69.2789 9.96186L68.8025 10.3286C68.3002 10.7153 67.6006 10.7153 67.0984 10.3286L66.622 9.96186C66.3777 9.77383 66.0782 9.67188 65.7699 9.67188Z" fill="url(#paint5_linear)"/>
<path d="M64.4767 10.5116V9.90235C64.4767 9.03196 64.7929 8.19122 65.3666 7.5366V7.5366C66.0482 6.75879 67.0321 6.31274 68.0663 6.31274H68.1758C69.21 6.31274 70.1939 6.75879 70.8755 7.5366V7.5366C71.4491 8.19122 71.7654 9.03196 71.7654 9.90235V10.5116" stroke="#316094" stroke-width="2.79343"/>
<path d="M19.9038 36.8213C11.8301 42.1958 3.27057 42.4197 0 41.8599C9.41925 55.52 23.5481 49.9776 29.4352 45.4988C26.5197 44.6031 21.8661 39.3406 19.9038 36.8213Z" fill="#DFE8F1"/>
<path d="M6.44788 48.0183C13.7366 52.2171 18.2219 50.2576 19.0629 49.9777C15.2504 49.9777 12.6152 47.7383 11.7742 46.6187C10.2044 47.7383 7.56922 48.1116 6.44788 48.0183Z" fill="#CFD7E2"/>
<ellipse cx="111.573" cy="18.6281" rx="3.36402" ry="3.35905" fill="#EAEEF9"/>
<ellipse cx="112.695" cy="4.63314" rx="1.68201" ry="1.67952" fill="#EAEEF9"/>
<circle r="3.36153" transform="matrix(0.70763 0.706584 -0.70763 0.706584 23.6722 13.4665)" fill="#EAEEF9"/>
<circle r="1.68077" transform="matrix(0.70763 0.706584 -0.70763 0.706584 34.3756 4.3608)" fill="#EAEEF9"/>
<path d="M86.2446 27.5253L88.7646 29.5841L90.3683 27.5253L88.3065 25.6953L86.2446 27.5253Z" fill="#08B59A"/>
<path d="M89.33 26.5029L87.2483 28.5815C86.8153 29.014 86.1182 29.0279 85.6682 28.6131L84.3439 27.3925C83.8768 26.9619 83.8511 26.2327 84.2869 25.7703L86.3549 23.5763C86.7961 23.1082 87.5368 23.097 87.992 23.5515L89.33 24.8875C89.7766 25.3334 89.7766 26.057 89.33 26.5029Z" fill="#172D45"/>
<path d="M97.8938 21.3765L98.2177 24.6116L100.81 24.2881L100.648 21.5383L97.8938 21.3765Z" fill="#08B59A"/>
<path d="M100.801 22.8351L97.8577 22.8351C97.2449 22.8351 96.7414 22.3517 96.7169 21.7397L96.6449 19.9409C96.6195 19.3069 97.1165 18.774 97.7512 18.7548L100.766 18.6635C101.41 18.644 101.942 19.1603 101.942 19.804L101.942 21.6941C101.942 22.3243 101.431 22.8351 100.801 22.8351Z" fill="#172D45"/>
<path d="M110.757 25.2378L108.695 27.7541L110.757 29.3554L112.59 27.2966L110.757 25.2378Z" fill="#08B59A"/>
<path d="M111.783 28.3212L109.701 26.2425C109.267 25.8092 109.253 25.1103 109.67 24.66L110.892 23.3377C111.323 22.8721 112.05 22.8466 112.512 23.2808L114.709 25.3458C115.179 25.7873 115.19 26.5298 114.734 26.9853L113.396 28.3212C112.951 28.7662 112.229 28.7662 111.783 28.3212Z" fill="#172D45"/>
<ellipse cx="99.7599" cy="39.1906" rx="15.3492" ry="15.3254" fill="url(#paint6_linear)"/>
<ellipse cx="99.7608" cy="39.1909" rx="12.6001" ry="12.5805" fill="white"/>
<ellipse cx="99.5317" cy="39.4189" rx="1.83274" ry="1.83003" fill="#D9E1EC"/>
<path d="M97.4696 41.3408L106.633 31.9619" stroke="#FA489C" stroke-width="1.71211" stroke-linecap="round"/>
<line x1="99.6438" y1="27.6386" x2="99.6438" y2="30.1572" stroke="#DAE0EC" stroke-width="1.14141" stroke-linecap="round"/>
<line x1="99.6438" y1="48.224" x2="99.6438" y2="50.7427" stroke="#DAE0EC" stroke-width="1.14141" stroke-linecap="round"/>
<line x1="88.1894" y1="38.8482" x2="90.7134" y2="38.8482" stroke="#DAE0EC" stroke-width="1.14141" stroke-linecap="round"/>
<line x1="108.807" y1="38.8482" x2="111.331" y2="38.8482" stroke="#DAE0EC" stroke-width="1.14141" stroke-linecap="round"/>
<defs>
<filter id="filter0_d" x="16.1415" y="4.37533" width="93.1393" height="94.8305" filterUnits="userSpaceOnUse" color-interpolation-filters="sRGB">
<feFlood flood-opacity="0" result="BackgroundImageFix"/>
<feColorMatrix in="SourceAlpha" type="matrix" values="0 0 0 0 0 0 0 0 0 0 0 0 0 0 0 0 0 0 127 0" result="hardAlpha"/>
<feOffset dy="2.79343"/>
<feGaussianBlur stdDeviation="6.98359"/>
<feColorMatrix type="matrix" values="0 0 0 0 0.262745 0 0 0 0 0.380392 0 0 0 0 0.603922 0 0 0 0.09 0"/>
<feBlend mode="normal" in2="BackgroundImageFix" result="effect1_dropShadow"/>
<feBlend mode="normal" in="SourceGraphic" in2="effect1_dropShadow" result="shape"/>
</filter>
<linearGradient id="paint0_linear" x1="12.8954" y1="77.9669" x2="34.7373" y2="94.2336" gradientUnits="userSpaceOnUse">
<stop stop-color="#FE63A7"/>
<stop offset="1" stop-color="#ED2F87"/>
</linearGradient>
<linearGradient id="paint1_linear" x1="22.6509" y1="83.4648" x2="33.4161" y2="94.2355" gradientUnits="userSpaceOnUse">
<stop stop-opacity="0.08"/>
<stop offset="1" stop-color="#EF368B" stop-opacity="0"/>
</linearGradient>
<linearGradient id="paint2_linear" x1="44.0131" y1="30.9437" x2="55.5067" y2="30.1015" gradientUnits="userSpaceOnUse">
<stop stop-color="#6F86D6"/>
<stop offset="1" stop-color="#3256D6"/>
</linearGradient>
<linearGradient id="paint3_linear" x1="44.0121" y1="48.2975" x2="55.5057" y2="47.4553" gradientUnits="userSpaceOnUse">
<stop stop-color="#6F86D6"/>
<stop offset="1" stop-color="#3256D6"/>
</linearGradient>
<linearGradient id="paint4_linear" x1="45.6326" y1="64.5849" x2="49.8209" y2="67.7799" gradientUnits="userSpaceOnUse">
<stop stop-color="#FE63A7"/>
<stop offset="1" stop-color="#ED2F87"/>
</linearGradient>
<linearGradient id="paint5_linear" x1="83.259" y1="13.8707" x2="51.5812" y2="13.5899" gradientUnits="userSpaceOnUse">
<stop stop-color="#316094"/>
<stop offset="1" stop-color="#1D4B7E"/>
</linearGradient>
<linearGradient id="paint6_linear" x1="84.4108" y1="39.1906" x2="115.109" y2="39.1906" gradientUnits="userSpaceOnUse">
<stop stop-color="#00CDAC"/>
<stop offset="1" stop-color="#8DDAD5"/>
</linearGradient>
</defs>
</svg>
