<svg width="20" height="20" viewBox="0 0 20 20" fill="none" xmlns="http://www.w3.org/2000/svg">
<path d="M14.2575 9.7075L13.7675 10.7675L12.7075 11.2575C12.3175 11.4375 12.3175 11.9875 12.7075 12.1675L13.7675 12.6575L14.2575 13.7075C14.4375 14.0975 14.9875 14.0975 15.1675 13.7075L15.6575 12.6475L16.7075 12.1575C17.0975 11.9775 17.0975 11.4275 16.7075 11.2475L15.6475 10.7575L15.1575 9.7075C14.9875 9.3175 14.4275 9.3175 14.2575 9.7075Z" fill="#F57C00"/>
<path d="M5.21483 1.51036L4.35987 3.35987L2.51036 4.21483C1.82988 4.5289 1.82988 5.48855 2.51036 5.80262L4.35987 6.64013L5.21483 8.48964C5.51145 9.17012 6.48855 9.17012 6.78517 8.48964L7.64013 6.64013L9.48964 5.78517C10.1701 5.4711 10.1701 4.51145 9.48964 4.19738L7.64013 3.34242L6.78517 1.51036C6.48855 0.829881 5.51145 0.829881 5.21483 1.51036Z" fill="#F57C00"/>
<path d="M8.15147 18.7062L8.64308 17.6462L9.70654 17.1562C10.0978 16.9762 10.0978 16.4262 9.70654 16.2462L8.64308 15.7562L8.15147 14.6962C7.97088 14.3062 7.41909 14.3062 7.2385 14.6962L6.74689 15.7562L5.69346 16.2562C5.30218 16.4362 5.30218 16.9862 5.69346 17.1662L6.75692 17.6562L7.24853 18.7162C7.41908 19.0962 7.98092 19.0962 8.15147 18.7062Z" fill="#F57C00"/>
</svg>
