<?xml version="1.0" standalone="no"?>
<!DOCTYPE svg PUBLIC "-//W3C//DTD SVG 1.1//EN" "http://www.w3.org/Graphics/SVG/1.1/DTD/svg11.dtd">
<svg xmlns="http://www.w3.org/2000/svg">
<metadata>Copyright (C) 2021 by original authors @ fontello.com</metadata>
<defs>
<font id="fontello" horiz-adv-x="1000" >
<font-face font-family="fontello" font-weight="400" font-stretch="normal" units-per-em="1000" ascent="850" descent="-150" />
<missing-glyph horiz-adv-x="1000" />
<glyph glyph-name="home-icon" unicode="&#xe800;" d="M600 116v-176c0-14 5-26 15-36 9-9 22-14 35-14h300c13 0 26 5 35 14 10 10 15 22 15 36v442c0 10-2 21-6 30-4 10-10 19-17 26l-420 349c-8 7-17 13-26 17-10 4-20 6-31 6-10 0-21-2-31-6-9-4-18-10-25-17l-421-349c-7-7-13-16-17-26-4-9-6-20-6-30l0-442c0-14 5-26 15-36 9-9 22-14 35-14h300c13 0 26 5 35 14 10 10 15 22 15 36v176c0 26 11 52 29 70 19 19 45 30 71 30 27 0 52-11 71-30 19-18 29-44 29-70z" horiz-adv-x="1000" />

<glyph glyph-name="open-email-icon" unicode="&#xe801;" d="M0 409v-423c0-25 10-49 27-66 18-17 41-27 66-27h814c25 0 48 10 66 27 17 17 27 41 27 66v423c0 14-3 29-10 41-6 13-16 25-27 33l-407 306c-16 12-36 18-56 18-20 0-39-6-56-18l-407-306c-11-8-21-20-27-33-7-12-10-27-10-41h0z m500-172l-292 218 236 177c17 12 36 19 56 19 20 0 40-7 56-19l235-177-291-218z" horiz-adv-x="1000" />

<glyph glyph-name="layer-icon" unicode="&#xe802;" d="M38 575v-1l422-192h0c13-6 26-9 40-9 14 0 28 3 40 9h1l421 192v1c8 3 15 7 19 14 5 7 8 14 8 23 0 8-3 16-8 22-5 7-12 12-19 14l-421 193h-1c-13 6-26 9-40 9-14 0-27-3-40-9h-1l-420-193c-8-2-15-7-20-14-5-6-8-14-8-22 0-9 3-16 8-23 5-7 11-11 19-14z m923-188l-82 38c-129-59-305-140-308-141-45-18-97-18-142 0-2 1-179 81-308 141l-82-38c-8-2-15-7-20-14-5-6-8-14-8-23 0-8 2-16 7-23 5-6 12-11 20-14v0l422-193h0c13-5 26-8 40-8 14 0 28 3 40 8h1l421 193v0c8 3 15 8 20 14 5 7 8 15 8 23 0 8-3 17-8 23-5 7-12 12-20 14h-1z m0-262l-82 38c-129-59-305-140-308-140-45-19-97-19-142 0-2 0-179 81-308 140l-82-38c-8-2-15-7-20-13-5-7-8-15-8-23 0-9 2-17 7-23 5-7 12-12 20-14v-1l422-192h0c13-6 26-9 40-9 14 0 28 3 40 9h1l421 192v1c8 2 15 7 20 14 5 6 8 14 8 22 0 9-3 17-8 23-5 7-12 12-20 14h-1z" horiz-adv-x="1000" />

<glyph glyph-name="edit-icon" unicode="&#xe803;" d="M593 821l-516-522-72-329c-3-16-3-33 2-49 5-16 13-31 25-42 12-12 26-21 42-25 16-5 33-6 49-2l329 71 517 523c18 19 28 44 28 70 0 27-10 52-29 70l-235 235c-9 9-20 17-32 22-12 5-25 7-38 7-13 0-26-3-38-8-12-5-23-12-32-21z m-392-861l-88 88 45 206 250-250-207-44z" horiz-adv-x="1000" />

<glyph glyph-name="archive-icon" unicode="&#xe804;" d="M929 850h-858c-39 0-71-32-71-71v-194c0-40 32-72 71-72h858c39 0 71 32 71 72v194c0 39-32 71-71 71z m-929-929c0-19 8-37 21-50 13-14 32-21 50-21h858c19 0 37 7 50 21 14 13 21 31 21 50v500h-1000v-500z m271 354c0 11 4 22 12 30 8 8 19 13 31 13h372c12 0 23-5 31-13 8-8 12-19 12-30v-6c0-12-4-23-12-31-8-8-19-12-31-12h-372c-12 0-23 4-31 12-8 8-12 19-12 31l0 6z" horiz-adv-x="1000" />

<glyph glyph-name="emoji-icon" unicode="&#xe805;" d="M500 850c-99 0-196-29-278-84-82-55-146-133-184-225-38-91-48-192-28-288 19-97 67-187 136-257 70-70 160-117 257-136 96-20 197-10 288 28 92 38 170 102 225 184 55 82 84 179 84 278 0 133-53 260-146 354-94 93-221 146-354 146z m297-579c-20-63-59-118-113-157-53-39-117-60-183-60-67 0-131 21-184 60-54 38-94 93-114 156-5 18-3 36 6 53 9 16 24 28 41 33 17 6 36 5 53-3 16-8 29-22 36-39 11-34 32-64 61-85 29-21 64-32 100-32 36 0 71 11 100 33 29 21 50 51 61 85 6 18 18 33 35 42 17 8 37 10 55 4 18-5 33-18 42-35 8-17 10-36 4-54l0-1z" horiz-adv-x="1000" />

<glyph glyph-name="wallet-icon" unicode="&#xe806;" d="M900 615c0 53-21 104-58 141-38 37-88 58-141 58h-502c-53 0-103-21-141-58-37-37-58-88-58-141l0-595c0-36 15-70 41-95 25-25 60-40 95-39h773c12 0 24 2 35 6 11 5 21 11 29 20 9 8 15 18 20 29 5 11 7 22 7 34v541c-2 26-13 50-31 68-19 19-43 30-69 31z m-800 0v16c0 11 2 22 6 32 5 10 11 20 18 27 8 8 17 14 28 18 10 5 20 7 31 7h534c11 0 21-2 32-7 10-4 19-10 27-18 7-7 14-17 18-27 4-10 6-21 6-32v-16h-700z m620-457c-20 0-39 6-55 17-16 11-29 26-36 44-8 18-9 38-6 57 4 19 14 37 27 51 14 13 32 23 51 27 19 3 39 2 57-6 18-7 33-20 44-36 11-16 17-35 17-55 0-13-3-26-8-38-5-12-12-23-21-32-9-9-20-16-32-21-12-5-25-8-38-8v0z" horiz-adv-x="1000" />

<glyph glyph-name="arrow-right" unicode="&#xe808;" d="M513 55l220 218-657 3c-10 0-20 2-29 6-9 4-18 9-25 16-7 7-12 16-16 25-4 10-6 20-6 30 0 10 2 20 6 29 4 9 10 17 17 25 7 7 15 12 25 16 9 4 19 6 29 6l656-3-217 219c-7 8-12 16-16 25-4 10-6 20-6 30 0 10 2 20 6 29 4 9 10 17 17 25 14 14 34 22 54 22 20 0 40-9 54-23l357-361c12-11 18-27 18-44 0-17-7-33-18-44l-361-358c-15-14-34-22-54-22-21 0-40 8-54 23-8 7-13 15-17 25-4 9-6 19-6 29 0 10 2 20 6 29 4 10 10 18 17 25z" horiz-adv-x="1000" />

<glyph glyph-name="arrow-left" unicode="&#xe809;" d="M487 645l-220-218 657-3c10 0 20-2 29-6 9-3 18-9 25-16 7-7 13-16 16-25 4-9 6-19 6-29 0-10-2-20-6-30-4-9-9-17-17-24-7-7-15-13-25-17-9-4-19-6-29-6l-656 3 217-219c7-7 12-16 16-25 4-9 6-19 6-29 0-11-2-21-6-30-4-9-10-17-17-25-14-14-34-22-54-22-20 0-40 9-54 23l-357 361c-12 12-18 28-18 44 0 17 7 33 19 44l361 358c14 14 34 22 54 22 20 0 39-8 54-23 7-7 12-15 16-25 4-9 6-19 6-29 0-10-2-20-6-29-4-10-10-18-17-25z" horiz-adv-x="1000" />

<glyph glyph-name="receipt" unicode="&#xe80a;" d="M780 850h-560c-31 0-60-12-81-33-21-22-34-51-34-81v-752c0-14 6-28 16-38l79-80c5-5 10-9 17-12 6-3 13-4 20-4 7 0 14 1 20 4 7 3 12 7 17 12l57 58c5 5 11 9 17 12 7 2 14 4 21 4 7 0 13-2 20-4 6-3 12-7 17-12l57-58c5-5 11-9 17-12 6-3 13-4 20-4 7 0 14 1 20 4 7 3 13 7 17 12l58 58c4 5 10 9 17 12 6 2 13 4 20 4 7 0 14-2 20-4 6-3 12-7 17-12l57-58c5-5 11-9 17-12 7-3 13-4 20-4 7 0 14 1 21 4 6 3 12 7 17 12l78 80c10 10 16 24 16 38v718 1 33c0 15-3 30-9 44-6 13-14 26-25 37-10 10-23 19-37 24-14 6-29 9-44 9z m-473-250h298c14 0 27-5 37-15 10-10 15-24 15-38 0-13-5-27-15-37-10-10-23-15-37-15h-298c-14 0-27 5-37 15-10 10-15 24-15 37 0 14 5 28 15 38 10 10 23 15 37 15z m0-192h152c7 0 14-1 20-4 7-3 13-6 17-11 5-5 9-11 12-17 2-7 4-14 4-21 0-6-2-13-4-20-3-6-7-12-12-17-4-5-10-8-17-11-6-3-13-4-20-4h-152c-14 0-27 5-37 15-10 10-15 24-15 37 0 14 5 28 15 38 10 10 23 15 37 15z" horiz-adv-x="1000" />

<glyph glyph-name="globe" unicode="&#xe80b;" d="M874 190l-19 10c-6 3-10 7-13 11-4 5-6 11-6 17l-7 55c-1 10-5 19-11 27-6 8-14 14-23 17l-86 32c-5 2-9 5-13 8-3 4-6 8-8 13l-38 96c-1 4-2 7-3 11-1 12 2 24 9 33 7 10 18 16 30 18l66 9c7 1 14 4 20 8 7 3 12 8 16 14l31 43c-38 48-87 86-142 113-55 26-116 40-177 40h-7l15-78c1-4 1-9 0-14-1-4-3-9-6-12-3-4-6-8-10-10-4-3-8-5-13-5-4-1-8-1-12 0-11 2-22 0-32-5-10-5-18-14-22-25l-18-50c-3-9-10-16-18-20-8-4-17-5-26-2l-33 9c-10 3-20 3-29-2-7-3-13-8-18-13-5-6-8-13-10-20-2-7-3-15-2-23 1-7 3-14 7-21l37-60c5-8 11-14 19-19 8-4 18-7 27-7h67c5 0 11-1 16-3l68-35c5-3 10-6 13-11 3-5 6-11 6-16l2-16c1-7 4-14 7-20 4-6 9-11 15-15l38-25c10-7 17-17 19-29 3-12 0-24-7-34-1-3-3-5-5-7l-54-56c-7-7-11-15-14-23l-40-151c82-4 164 17 234 61 71 43 126 106 160 182z m-563-203l5 36c2 17-2 34-12 47l-66 96c-6 8-9 18-8 28 1 9 6 18 12 25 3 3 5 6 6 9 2 3 2 7 2 10 0 3 0 7-2 10-1 3-3 6-6 9-1 1-3 3-5 4l-146 85c1-75 22-147 61-210 38-63 94-115 159-149z m189-137c-99 0-196 29-278 84-82 55-146 133-184 225-38 91-48 192-28 289 19 97 67 186 136 256 70 70 160 117 257 136 96 20 197 10 288-28 92-38 170-102 225-184 55-82 84-179 84-278 0-133-53-260-146-354-94-93-221-146-354-146z" horiz-adv-x="1000" />

<glyph glyph-name="quote-icon" unicode="&#xe80e;" d="M281 352h23c64 0 122-25 173-74 51-47 77-107 77-180 0-71-26-130-77-176-51-46-114-69-190-69-82 0-151 33-206 97-54 66-81 158-81 278 0 110 24 213 71 309 48 96 107 172 176 228 70 57 132 85 186 85 36 0 64-11 84-32 20-21 31-48 31-81 0-49-22-85-66-109-60-32-107-70-142-113-35-43-55-98-59-163z m747 0h22c63 0 119-25 170-74 52-47 78-107 78-180 0-70-26-129-78-176-51-48-114-72-189-72-83 0-152 33-206 100-54 67-81 159-81 278 0 86 14 166 42 242 28 76 64 141 108 197 45 56 93 101 144 133 51 33 98 50 138 50 37 0 66-11 85-32 20-20 30-47 30-81 0-50-22-86-66-109-62-34-108-72-140-115-32-41-51-95-57-161z" horiz-adv-x="1298" />

<glyph glyph-name="flag-icon" unicode="&#xe80f;" d="M600 803c-6 27-31 47-59 47h-431c-33 0-60-26-60-59v-882c0-33 27-59 60-59 33 0 60 26 60 59v353h336l14-71c6-27 31-47 59-47h311c33 0 60 27 60 59v471c0 32-27 58-60 58h-276l-14 71z" horiz-adv-x="1000" />

<glyph glyph-name="stars-icon" unicode="&#xe818;" d="M713 365l-25-53-53-25c-19-9-19-36 0-45l53-25 25-52c9-20 36-20 45 0l25 53 52 24c20 9 20 37 0 46l-53 24-24 53c-9 19-37 19-45 0z m-452 410l-43-93-92-43c-34-15-34-63 0-79l92-42 43-92c15-34 63-34 78 0l43 92 93 43c34 15 34 63 0 79l-93 43-43 92c-15 34-63 34-78 0z m147-860l24 53 53 24c20 9 20 37 0 46l-53 24-24 53c-9 20-37 20-46 0l-25-53-52-25c-20-9-20-36 0-45l53-25 24-53c9-19 37-19 46 1z" horiz-adv-x="1000" />

<glyph glyph-name="li--button-icon" unicode="&#xe819;" d="M500 850c-99 0-196-29-278-84-82-55-146-133-184-225-38-91-48-192-28-288 19-97 67-187 136-257 70-70 160-117 257-136 96-20 197-10 288 28 92 38 170 102 225 184 55 82 84 179 84 278 0 133-53 260-146 354-94 93-221 146-354 146z m0-714c-42 0-84 12-119 36-35 23-63 57-79 96-16 39-20 82-12 124 8 41 29 80 59 110 29 30 68 50 109 58 42 8 85 4 124-12 39-16 73-44 96-79 24-35 36-77 36-119 0-57-22-111-62-151-41-41-95-63-152-63z" horiz-adv-x="1000" />

<glyph glyph-name="check-icon" unicode="&#xe81a;" d="M500 850c-276 0-500-224-500-500 0-276 224-500 500-500 276 0 500 224 500 500 0 276-224 500-500 500z m253-394l-270-271c-8-8-19-12-30-12-10 0-21 4-29 12l-136 136c-16 16-16 42 0 59 17 16 43 16 59 0l106-106 242 241c16 16 42 16 59 0 16-16 16-43-1-59z" horiz-adv-x="1000" />

<glyph glyph-name="time-icon" unicode="&#xe822;" d="M702 552c-56 56-129 84-202 84v-286l-202-202c112-111 293-111 404 0 112 112 112 293 0 404z m-202 274c-263 0-476-213-476-476 0-263 213-476 476-476 263 0 476 213 476 476 0 263-213 476-476 476z m0-857c-210 0-381 171-381 381 0 211 171 381 381 381 211 0 381-170 381-381 0-210-170-381-381-381z" horiz-adv-x="1000" />

<glyph glyph-name="search-icon-mobile" unicode="&#xe823;" d="M728 206h-44l-16 15c67 77 101 183 83 296-27 155-155 278-311 297-235 29-433-169-404-404 19-156 142-284 297-311 113-18 219 16 296 83l15-16v-44l237-236c22-23 60-23 82 0 23 23 23 60 0 83l-235 237z m-334 0c-138 0-250 111-250 250 0 138 112 250 250 250 139 0 250-112 250-250 0-139-111-250-250-250z" horiz-adv-x="1000" />

<glyph glyph-name="close-icon" unicode="&#xe824;" d="M950 799c-28 28-73 28-101 0l-349-348-349 349c-28 28-73 28-101 0-28-28-28-73 0-101l349-349-349-349c-28-28-28-73 0-101 28-28 73-28 101 0l349 349 349-349c28-28 73-28 101 0 28 28 28 73 0 101l-349 349 349 349c27 27 27 73 0 100z" horiz-adv-x="1000" />

<glyph glyph-name="zoom-icon" unicode="&#xe867;" d="M308 850h386c161 0 274-111 274-271v-458c0-160-113-271-274-271h-386c-162 0-275 111-275 271v458c0 160 113 271 275 271z m923-159c29 15 63 14 91-4 28-17 45-48 45-81v-512c0-33-17-64-45-81-15-10-32-15-49-15-15 0-29 4-42 11l-99 49c-37 19-59 56-59 98v389c0 41 22 78 59 97l99 49z" horiz-adv-x="1400" />

<glyph glyph-name="icon-link-to" unicode="&#xe868;" d="M900 353h-71c-14 0-26-12-26-26v-322c0-17-14-31-31-31h-617c-18 0-31 14-31 31v617c0 17 13 31 31 31h338c15 0 27 12 27 26v71c0 15-12 26-27 26h-338c-86 0-155-69-155-154v-617c0-86 69-155 155-155h617c85 0 154 69 154 155v322c0 14-12 26-26 26z m74 497h-281c-15 0-27-12-27-26v-71c0-15 12-27 27-27h96l-363-362c-10-11-10-27 0-38l50-50c5-5 12-8 19-8 7 0 14 3 19 8l362 363v-96c0-15 12-27 27-27h71c14 0 26 12 26 27v281c0 14-12 26-26 26z" horiz-adv-x="1000" />
</font>
</defs>
</svg>
