<svg width="16" height="16" viewBox="0 0 16 16" fill="none" xmlns="http://www.w3.org/2000/svg">
<path fill-rule="evenodd" clip-rule="evenodd" d="M14.6668 8.00016C14.6668 11.6802 11.6735 14.6668 8.00016 14.6668L7.81365 14.6643C4.21978 14.5654 1.3335 11.6178 1.3335 8.00016C1.3335 4.32683 4.32016 1.3335 8.00016 1.3335C11.6735 1.3335 14.6668 4.32683 14.6668 8.00016ZM6.68017 5.33349C6.48684 5.53349 6.48684 5.84682 6.68684 6.04015L8.6535 8.00015L6.68684 9.96015C6.48684 10.1535 6.48684 10.4735 6.68017 10.6668C6.88017 10.8668 7.1935 10.8668 7.38684 10.6668L9.7135 8.35349C9.80684 8.26015 9.86017 8.13349 9.86017 8.00015C9.86017 7.86682 9.80684 7.74015 9.7135 7.64682L7.38684 5.33349C7.2935 5.23349 7.16684 5.18682 7.04017 5.18682C6.90684 5.18682 6.78017 5.23349 6.68017 5.33349Z" fill="#3656A1"/>
</svg>
