<svg width="20" height="20" viewBox="0 0 20 20" fill="none" xmlns="http://www.w3.org/2000/svg">
<circle cx="10" cy="10" r="10" fill="white"/>
<path d="M10 0C4.48639 0 0 4.48639 0 10C0 15.5136 4.48639 20 10 20C15.5136 20 20 15.5136 20 10C20 4.48639 15.5136 0 10 0ZM15.0687 7.88116L9.6524 13.2974C9.49005 13.4601 9.27612 13.5413 9.06372 13.5413C8.8501 13.5413 8.63739 13.4601 8.47504 13.2974L5.7663 10.5887C5.44128 10.2637 5.44128 9.73633 5.7663 9.4101C6.09131 9.08386 6.61865 9.08508 6.94489 9.4101L9.06372 11.5286L13.8913 6.70135C14.2163 6.37634 14.7437 6.37634 15.0699 6.70135C15.3961 7.02637 15.3937 7.55493 15.0687 7.88116Z" fill="#F57C00"/>
</svg>
