<svg width="24" height="24" viewBox="0 0 24 24" fill="none" xmlns="http://www.w3.org/2000/svg">
<path d="M18.3001 5.71C17.9101 5.32 17.2801 5.32 16.8901 5.71L12.0001 10.59L7.11009 5.7C6.72009 5.31 6.09009 5.31 5.70009 5.7C5.31009 6.09 5.31009 6.72 5.70009 7.11L10.5901 12L5.70009 16.89C5.31009 17.28 5.31009 17.91 5.70009 18.3C6.09009 18.69 6.72009 18.69 7.11009 18.3L12.0001 13.41L16.8901 18.3C17.2801 18.69 17.9101 18.69 18.3001 18.3C18.6901 17.91 18.6901 17.28 18.3001 16.89L13.4101 12L18.3001 7.11C18.6801 6.73 18.6801 6.09 18.3001 5.71V5.71Z" fill="#424242"/>
</svg>
