<svg width="20" height="20" viewBox="0 0 20 20" fill="none" xmlns="http://www.w3.org/2000/svg">
<path d="M9.99967 1.66699C6.49967 1.66699 3.33301 4.35033 3.33301 8.50033C3.33301 11.1503 5.37467 14.267 9.44967 17.8587C9.76634 18.1337 10.2413 18.1337 10.558 17.8587C14.6247 14.267 16.6663 11.1503 16.6663 8.50033C16.6663 4.35033 13.4997 1.66699 9.99967 1.66699ZM9.99967 10.0003C9.08301 10.0003 8.33301 9.25033 8.33301 8.33366C8.33301 7.41699 9.08301 6.66699 9.99967 6.66699C10.9163 6.66699 11.6663 7.41699 11.6663 8.33366C11.6663 9.25033 10.9163 10.0003 9.99967 10.0003Z" fill="#BDBDBD"/>
</svg>
