<svg width="24" height="24" viewBox="0 0 24 24" fill="none" xmlns="http://www.w3.org/2000/svg">
<path d="M15.5 14H14.71L14.43 13.73C15.63 12.33 16.25 10.42 15.91 8.38999C15.44 5.60999 13.12 3.38998 10.32 3.04998C6.09001 2.52998 2.53002 6.08998 3.05002 10.32C3.39002 13.12 5.61002 15.44 8.39002 15.91C10.42 16.25 12.33 15.63 13.73 14.43L14 14.71V15.5L18.25 19.75C18.66 20.16 19.33 20.16 19.74 19.75C20.15 19.34 20.15 18.67 19.74 18.26L15.5 14ZM9.50001 14C7.01001 14 5.00002 11.99 5.00002 9.49998C5.00002 7.00998 7.01001 4.99998 9.50001 4.99998C11.99 4.99998 14 7.00998 14 9.49998C14 11.99 11.99 14 9.50001 14Z" fill="#424242"/>
</svg>
