<svg width="20" height="20" viewBox="0 0 20 20" fill="none" xmlns="http://www.w3.org/2000/svg">
<path d="M16.0245 13.2083L13.9079 12.9667C13.3995 12.9083 12.8995 13.0833 12.5412 13.4417L11.0079 14.975C8.64955 13.775 6.71621 11.85 5.51621 9.48333L7.05788 7.94167C7.41621 7.58333 7.59121 7.08333 7.53288 6.575L7.29121 4.475C7.19121 3.63333 6.48288 3 5.63288 3H4.19121C3.24955 3 2.46621 3.78333 2.52455 4.725C2.96621 11.8417 8.65788 17.525 15.7662 17.9667C16.7079 18.025 17.4912 17.2417 17.4912 16.3V14.8583C17.4995 14.0167 16.8662 13.3083 16.0245 13.2083Z" fill="#BDBDBD"/>
</svg>
