<svg width="16" height="16" viewBox="0 0 16 16" fill="none" xmlns="http://www.w3.org/2000/svg">
<path fill-rule="evenodd" clip-rule="evenodd" d="M12.2687 3.75533C11.1387 2.624 9.636 2.00067 8.03533 2C4.73667 2 2.05133 4.68467 2.05 7.98467C2.05 9.03933 2.32533 10.0687 2.84867 10.9767L2 14.0773L5.17267 13.2447C6.04733 13.7213 7.03133 13.9727 8.03267 13.9733H8.03533C11.3333 13.9733 14.0187 11.2887 14.02 7.98867C14.02 6.39 13.3987 4.88667 12.2687 3.75533ZM8.03533 12.9633H8.03333C7.14067 12.9627 6.26533 12.7233 5.50133 12.2693L5.32 12.1613L3.43733 12.6553L3.93933 10.82L3.82133 10.632C3.32333 9.84 3.06067 8.92467 3.06067 7.98467C3.062 5.242 5.29333 3.01067 8.03733 3.01067C9.366 3.01133 10.6147 3.52933 11.554 4.46933C12.4927 5.41 13.01 6.65933 13.0093 7.98867C13.008 10.7313 10.7767 12.9633 8.03533 12.9633ZM10.764 9.23733C10.614 9.162 9.87933 8.80067 9.742 8.75067C9.60533 8.70067 9.506 8.676 9.406 8.82533C9.306 8.97467 9.01933 9.31133 8.932 9.41133C8.84467 9.51133 8.75733 9.52333 8.608 9.44867C8.45867 9.374 7.97667 9.216 7.40533 8.70667C6.96067 8.31 6.66067 7.82067 6.57333 7.67067C6.486 7.52067 6.564 7.44 6.63933 7.36533C6.70667 7.29867 6.78867 7.19067 6.86333 7.10333C6.938 7.016 6.96267 6.954 7.01267 6.854C7.06267 6.754 7.038 6.66667 7 6.592C6.96267 6.51667 6.66333 5.78067 6.53867 5.48133C6.418 5.19133 6.29467 5.23 6.20267 5.226C6.116 5.222 6.016 5.22067 5.91667 5.22067C5.81667 5.22067 5.65467 5.258 5.51733 5.40733C5.38 5.55733 4.994 5.91867 4.994 6.65467C4.994 7.39067 5.53 8.102 5.60467 8.202C5.67933 8.302 6.65933 9.812 8.15933 10.46C8.51667 10.614 8.79533 10.706 9.012 10.7753C9.37 10.8893 9.696 10.8727 9.954 10.8347C10.2413 10.792 10.8387 10.4733 10.9633 10.124C11.088 9.77467 11.088 9.47533 11.0507 9.41267C11.0133 9.35 10.9127 9.312 10.764 9.23733Z" fill="white"/>
</svg>
