<svg width="14" height="14" viewBox="0 0 14 14" fill="none" xmlns="http://www.w3.org/2000/svg">
<g clip-path="url(#clip0)">
<path fill-rule="evenodd" clip-rule="evenodd" d="M6.82098 2.87199L3.73998 5.91699L12.934 5.95899C13.0747 5.95952 13.2139 5.98778 13.3436 6.04216C13.4734 6.09654 13.5911 6.17598 13.6901 6.27592C13.7891 6.37587 13.8675 6.49435 13.9206 6.6246C13.9738 6.75485 14.0008 6.89431 14 7.03499C13.9993 7.17559 13.971 7.31468 13.9165 7.44432C13.8621 7.57395 13.7826 7.69158 13.6827 7.79049C13.5828 7.8894 13.4643 7.96764 13.3341 8.02075C13.204 8.07386 13.0646 8.10078 12.924 8.09999L3.73198 8.05899L6.77198 11.135C6.87107 11.2348 6.94952 11.3531 7.00284 11.4832C7.05617 11.6133 7.08333 11.7526 7.08278 11.8932C7.08222 12.0338 7.05395 12.173 6.9996 12.3026C6.94524 12.4323 6.86585 12.55 6.76598 12.649C6.56406 12.8488 6.29109 12.9603 6.00703 12.959C5.72297 12.9576 5.45105 12.8436 5.25098 12.642L0.250982 7.59299C0.087485 7.42683 -0.0033117 7.20253 -0.00143636 6.96942C0.000438978 6.73632 0.0948328 6.5135 0.260982 6.34999L5.31398 1.34999C5.51573 1.15026 5.78854 1.0388 6.07243 1.04011C6.35633 1.04142 6.62809 1.1554 6.82798 1.35699C6.92703 1.45691 7.00542 1.57537 7.05868 1.70559C7.11194 1.83581 7.13901 1.97525 7.13836 2.11594C7.13771 2.25664 7.10935 2.39582 7.05489 2.52555C7.00043 2.65527 6.92095 2.773 6.82098 2.87199Z" fill="#404852"/>
</g>
<defs>
<clipPath id="clip0">
<rect width="14" height="14" fill="white"/>
</clipPath>
</defs>
</svg>
