<svg width="30" height="30" viewBox="0 0 30 30" fill="none" xmlns="http://www.w3.org/2000/svg">
<circle cx="15" cy="15" r="14.5" fill="white" stroke="#DEDEDE"/>
<g opacity="0.52">
<path d="M15 15.4375C15.9508 15.4375 16.7908 15.665 17.4733 15.9625C18.1033 16.2425 18.5 16.8725 18.5 17.555V17.9167C18.5 18.2375 18.2375 18.5 17.9167 18.5H12.0833C11.7625 18.5 11.5 18.2375 11.5 17.9167V17.5608C11.5 16.8725 11.8967 16.2425 12.5267 15.9683C13.2092 15.665 14.0492 15.4375 15 15.4375ZM10.3333 15.5833C10.975 15.5833 11.5 15.0583 11.5 14.4167C11.5 13.775 10.975 13.25 10.3333 13.25C9.69167 13.25 9.16667 13.775 9.16667 14.4167C9.16667 15.0583 9.69167 15.5833 10.3333 15.5833ZM10.9925 16.225C10.7767 16.19 10.5608 16.1667 10.3333 16.1667C9.75583 16.1667 9.2075 16.2892 8.71167 16.505C8.28 16.6917 8 17.1117 8 17.5842V17.9167C8 18.2375 8.2625 18.5 8.58333 18.5H10.625V17.5608C10.625 17.0767 10.7592 16.6217 10.9925 16.225ZM19.6667 15.5833C20.3083 15.5833 20.8333 15.0583 20.8333 14.4167C20.8333 13.775 20.3083 13.25 19.6667 13.25C19.025 13.25 18.5 13.775 18.5 14.4167C18.5 15.0583 19.025 15.5833 19.6667 15.5833ZM22 17.5842C22 17.1117 21.72 16.6917 21.2883 16.505C20.7925 16.2892 20.2442 16.1667 19.6667 16.1667C19.4392 16.1667 19.2233 16.19 19.0075 16.225C19.2408 16.6217 19.375 17.0767 19.375 17.5608V18.5H21.4167C21.7375 18.5 22 18.2375 22 17.9167V17.5842ZM15 11.5C15.9683 11.5 16.75 12.2817 16.75 13.25C16.75 14.2183 15.9683 15 15 15C14.0317 15 13.25 14.2183 13.25 13.25C13.25 12.2817 14.0317 11.5 15 11.5Z" fill="#7A7A7A"/>
</g>
</svg>
