<svg width="30" height="30" viewBox="0 0 30 30" fill="none" xmlns="http://www.w3.org/2000/svg">
<circle cx="15" cy="15" r="14.5" fill="white" stroke="#DEDEDE"/>
<g opacity="0.52">
<path d="M20.6067 13C20.9334 13 21.0667 12.58 20.8001 12.3933L15.7667 8.86665C15.3067 8.54665 14.6934 8.54665 14.2401 8.86665L9.20005 12.3933C8.93339 12.58 9.06672 13 9.39339 13H14.3334V21C14.3334 21.3666 14.6334 21.6666 15.0001 21.6666C15.3667 21.6666 15.6667 21.3666 15.6667 21V13H20.6067Z" fill="#7A7A7A"/>
<path d="M12.3334 17.6666H10.2667L9.88671 15.6533C9.82004 15.2933 9.47338 15.0533 9.10671 15.12C8.74671 15.1866 8.50671 15.5333 8.57338 15.9L9.00004 18.16V21C9.00004 21.3666 9.30004 21.6666 9.66671 21.6666H9.67338C10.04 21.6666 10.34 21.3733 10.34 21.0066L10.3467 19H11.6667V21C11.6667 21.3666 11.9667 21.6666 12.3334 21.6666C12.7 21.6666 13 21.3666 13 21V18.3333C13 17.9666 12.7 17.6666 12.3334 17.6666Z" fill="#7A7A7A"/>
<path d="M20.8933 15.12C20.5333 15.0533 20.1867 15.2933 20.1133 15.6533L19.7333 17.6666H17.6667C17.3 17.6666 17 17.9666 17 18.3333V21C17 21.3666 17.3 21.6666 17.6667 21.6666C18.0333 21.6666 18.3333 21.3666 18.3333 21V19H19.6533L19.6667 21.0066C19.6667 21.3733 19.9667 21.6666 20.3333 21.6666C20.7 21.6666 21 21.3666 21 21V18.16L21.4267 15.9C21.4933 15.54 21.2533 15.1866 20.8933 15.12Z" fill="#7A7A7A"/>
</g>
</svg>
