<svg width="30" height="30" viewBox="0 0 30 30" fill="none" xmlns="http://www.w3.org/2000/svg">
<circle cx="15" cy="15" r="14.5" fill="white" stroke="#DEDEDE"/>
<g opacity="0.52">
<path d="M20.775 10.9167H18.5V9.16668C18.5 8.84584 18.2375 8.58334 17.9167 8.58334C17.5959 8.58334 17.3334 8.84584 17.3334 9.16668V10.9167H15.0584C14.7142 10.9167 14.4459 11.2142 14.475 11.5583L14.545 12.2642C16.6917 12.76 18.5 14.2825 18.5 16.75L18.5117 21.4167H19.5034C19.9934 21.4167 20.3959 21.0375 20.4542 20.5592L21.3525 11.5583C21.3875 11.2142 21.1192 10.9167 20.775 10.9167ZM16.75 20.25H9.16671C8.84587 20.25 8.58337 20.5125 8.58337 20.8333C8.58337 21.1542 8.84587 21.4167 9.16671 21.4167H16.75C17.0709 21.4167 17.3334 21.1542 17.3334 20.8333C17.3334 20.5125 17.0709 20.25 16.75 20.25ZM9.22504 16.75H16.6917C17.0534 16.75 17.3392 16.4233 17.2692 16.0733C16.89 14.1892 14.9242 13.2442 12.9584 13.2442C10.9925 13.2442 9.03254 14.1892 8.64754 16.0733C8.57754 16.4233 8.86921 16.75 9.22504 16.75ZM16.75 17.9167H9.16671C8.84587 17.9167 8.58337 18.1792 8.58337 18.5C8.58337 18.8208 8.84587 19.0833 9.16671 19.0833H16.75C17.0709 19.0833 17.3334 18.8208 17.3334 18.5C17.3334 18.1792 17.0709 17.9167 16.75 17.9167Z" fill="#7A7A7A"/>
</g>
</svg>
