<svg width="30" height="30" viewBox="0 0 30 30" fill="none" xmlns="http://www.w3.org/2000/svg">
<circle cx="15" cy="15" r="14.5" stroke="#DEDEDE"/>
<g opacity="0.52" clip-path="url(#clip0)">
<rect width="11.9997" height="12" transform="translate(9 9)" fill="white"/>
<path d="M20.3538 18.8811L17.2056 13.0566V9.58684C17.2056 9.26029 16.9324 9 16.6062 9H13.3927C13.0662 9 12.7975 9.26029 12.7975 9.58684V13.0566L9.64662 18.8811C9.40631 19.3252 9.4184 19.8644 9.67686 20.2985C9.93531 20.7321 10.4041 21 10.9089 21H19.0897C19.5945 21 20.0644 20.7321 20.3228 20.2985C20.581 19.8644 20.5941 19.3252 20.3538 18.8811ZM15.5198 16.4444C15.8019 16.4444 16.0304 16.6728 16.0304 16.955C16.0304 17.2368 15.8014 17.4655 15.5198 17.4655C15.2379 17.4655 15.0092 17.2368 15.0092 16.955C15.0092 16.6736 15.2376 16.4444 15.5198 16.4444ZM14.0839 13.3742C14.3661 13.3742 14.5945 13.603 14.5945 13.8851C14.5945 14.1669 14.3661 14.3957 14.0839 14.3957C13.8018 14.3957 13.5734 14.1669 13.5734 13.8851C13.5736 13.603 13.8018 13.3742 14.0839 13.3742ZM14.0839 15.1568C14.5409 15.1568 14.9116 15.5276 14.9116 15.9842C14.9116 16.4412 14.5409 16.8117 14.0839 16.8117C13.6267 16.8117 13.2563 16.4412 13.2563 15.9842C13.2563 15.5273 13.6267 15.1568 14.0839 15.1568ZM18.837 19.4017C18.7308 19.5826 18.5365 19.6893 18.3275 19.6893H11.6711C11.4618 19.6893 11.2678 19.5826 11.1616 19.4017C11.0554 19.2208 11.0525 19 11.1542 18.8164L11.9543 17.3783C12.0684 17.1727 12.2935 17.0549 12.5275 17.0772C13.5899 17.1784 14.7841 18.0874 15.8513 18.0469C16.4229 18.025 16.9535 17.8168 17.4588 17.5384C17.7441 17.3806 18.103 17.484 18.2612 17.769L18.8447 18.8159C18.9459 18.9997 18.9433 19.2211 18.837 19.4017Z" fill="#7A7A7A"/>
</g>
<defs>
<clipPath id="clip0">
<rect width="11.9997" height="12" fill="white" transform="translate(9 9)"/>
</clipPath>
</defs>
</svg>
