<svg width="30" height="30" viewBox="0 0 30 30" fill="none" xmlns="http://www.w3.org/2000/svg">
<circle cx="15" cy="15" r="14.5" fill="white" stroke="#DEDEDE"/>
<g opacity="0.52">
<path d="M9.20168 13.8683C9.49918 14.1658 9.97168 14.195 10.2925 13.9266C13.0167 11.6866 16.9717 11.6866 19.7017 13.9208C20.0283 14.1891 20.5067 14.1658 20.8042 13.8683C21.1483 13.5241 21.125 12.9525 20.7458 12.6433C17.415 9.91915 12.5967 9.91915 9.26001 12.6433C8.88084 12.9466 8.85168 13.5183 9.20168 13.8683ZM13.7283 18.395L14.5858 19.2525C14.8133 19.48 15.1808 19.48 15.4083 19.2525L16.2658 18.395C16.54 18.1208 16.4817 17.6483 16.1317 17.4675C15.42 17.1 14.5683 17.1 13.8508 17.4675C13.5183 17.6483 13.4542 18.1208 13.7283 18.395ZM11.5525 16.2191C11.8383 16.505 12.2875 16.5341 12.62 16.295C14.0433 15.2858 15.9567 15.2858 17.38 16.295C17.7125 16.5283 18.1617 16.505 18.4475 16.2191L18.4533 16.2133C18.8033 15.8633 18.78 15.2683 18.3775 14.9825C16.3708 13.53 13.635 13.53 11.6225 14.9825C11.22 15.2741 11.1967 15.8633 11.5525 16.2191Z" fill="#7A7A7A"/>
</g>
</svg>
