<svg width="30" height="30" viewBox="0 0 30 30" fill="none" xmlns="http://www.w3.org/2000/svg">
<circle cx="15" cy="15" r="14.5" fill="white" stroke="#DEDEDE"/>
<g opacity="0.52">
<path d="M15 14.7375C13.9383 13.7458 12.5967 13.0517 11.1033 12.7833C10.3975 12.6608 9.75 13.2208 9.75 13.9383V17.5783C9.75 18.5583 10.17 19.0717 10.7475 19.1475C12.2058 19.3342 13.53 19.935 14.615 20.8217C14.8192 20.9908 15.1517 21.0083 15.3558 20.845C16.4467 19.9525 17.7825 19.34 19.2525 19.1533C19.8008 19.0775 20.25 18.535 20.25 17.975V13.9383C20.25 13.2208 19.6025 12.6608 18.8967 12.7833C17.4033 13.0517 16.0617 13.7458 15 14.7375ZM15 12.6667C15.9683 12.6667 16.75 11.885 16.75 10.9167C16.75 9.94832 15.9683 9.16666 15 9.16666C14.0317 9.16666 13.25 9.94832 13.25 10.9167C13.25 11.885 14.0317 12.6667 15 12.6667Z" fill="#7A7A7A"/>
</g>
</svg>
