<svg width="61" height="47" viewBox="0 0 61 47" fill="none" xmlns="http://www.w3.org/2000/svg">
<path opacity="0.56" d="M13.1849 23.4217H14.2969C17.3151 23.4217 20.0156 24.5706 22.3984 26.8683C24.8342 29.1139 26.0521 31.9339 26.0521 35.3283C26.0521 38.6706 24.8342 41.4383 22.3984 43.6317C20.0156 45.7728 17.0503 46.8433 13.5026 46.8433C9.63715 46.8433 6.40712 45.3289 3.8125 42.3C1.27083 39.2189 0 34.8583 0 29.2183C0 24.0483 1.11198 19.2178 3.33594 14.7267C5.61285 10.1833 8.36632 6.60611 11.5964 3.995C14.8793 1.33167 17.7917 0 20.3333 0C22.0278 0 23.3516 0.496111 24.3047 1.48833C25.2578 2.48056 25.7344 3.76 25.7344 5.32667C25.7344 7.62444 24.7018 9.32167 22.6367 10.4183C19.8303 11.9328 17.6063 13.7083 15.9648 15.745C14.3234 17.7817 13.3967 20.3406 13.1849 23.4217ZM48.2917 23.4217H49.3242C52.2895 23.4217 54.9635 24.5706 57.3464 26.8683C59.7821 29.1139 61 31.9339 61 35.3283C61 38.6183 59.7821 41.3861 57.3464 43.6317C54.9635 45.8772 51.9983 47 48.4505 47C44.5321 47 41.3021 45.4333 38.7604 42.3C36.2188 39.1667 34.9479 34.8061 34.9479 29.2183C34.9479 25.1972 35.6098 21.4111 36.9336 17.86C38.2574 14.3089 39.9518 11.2278 42.0169 8.61667C44.135 5.95333 46.3854 3.86444 48.7682 2.35C51.204 0.783333 53.375 0 55.2812 0C57.0286 0 58.3524 0.496111 59.2526 1.48833C60.2057 2.42833 60.6823 3.70778 60.6823 5.32667C60.6823 7.67667 59.6497 9.37389 57.5846 10.4183C54.6723 12.0372 52.4748 13.8389 50.9922 15.8233C49.5095 17.7556 48.6094 20.2883 48.2917 23.4217Z" fill="#F57C00"/>
</svg>
