<svg width="30" height="30" viewBox="0 0 30 30" fill="none" xmlns="http://www.w3.org/2000/svg">
<circle cx="15" cy="15" r="14.5" fill="white" stroke="#DEDEDE"/>
<g opacity="0.52">
<path d="M14.9999 20.8333C15.6416 20.8333 16.1666 20.3083 16.1666 19.6667H13.8333C13.8333 20.3083 14.3583 20.8333 14.9999 20.8333Z" fill="#7A7A7A"/>
<path d="M13.2501 19.0833H16.7501C17.0709 19.0833 17.3334 18.8208 17.3334 18.5C17.3334 18.1792 17.0709 17.9167 16.7501 17.9167H13.2501C12.9292 17.9167 12.6667 18.1792 12.6667 18.5C12.6667 18.8208 12.9292 19.0833 13.2501 19.0833Z" fill="#7A7A7A"/>
<path d="M15 9.16666C12.585 9.16666 10.625 11.1267 10.625 13.5417C10.625 15.77 12.1767 16.96 12.8242 17.3333H17.1758C17.8233 16.96 19.375 15.77 19.375 13.5417C19.375 11.1267 17.415 9.16666 15 9.16666Z" fill="#7A7A7A"/>
</g>
</svg>
