<svg width="30" height="30" viewBox="0 0 30 30" fill="none" xmlns="http://www.w3.org/2000/svg">
<circle cx="15" cy="15" r="14.5" fill="white" stroke="#DEDEDE"/>
<g opacity="0.52">
<path d="M9.76164 17.1117C9.71497 18.5233 9.94831 19.6433 10.1525 19.8475C10.3566 20.0517 11.4825 20.2908 12.8883 20.2383L9.76164 17.1117Z" fill="#7A7A7A"/>
<path d="M15.63 9.91333C14.2708 10.1583 12.8358 10.695 11.7683 11.7683C10.7008 12.8417 10.1583 14.2708 9.91333 15.63L14.3642 20.0808C15.7292 19.8417 17.1583 19.2992 18.2258 18.2258C19.2933 17.1525 19.8358 15.7233 20.0808 14.3642L15.63 9.91333ZM16.6333 14.1833L14.1833 16.6333C13.9558 16.8608 13.5942 16.8608 13.3667 16.6333C13.1392 16.4058 13.1392 16.0442 13.3667 15.8167L15.8167 13.3667C16.0442 13.1392 16.4058 13.1392 16.6333 13.3667C16.8608 13.5942 16.8608 13.9558 16.6333 14.1833Z" fill="#7A7A7A"/>
<path d="M20.2384 12.8883C20.285 11.4766 20.0517 10.3566 19.8475 10.1525C19.6434 9.94832 18.5175 9.70915 17.1117 9.76165L20.2384 12.8883Z" fill="#7A7A7A"/>
</g>
</svg>
