<svg width="30" height="30" viewBox="0 0 30 30" fill="none" xmlns="http://www.w3.org/2000/svg">
<circle cx="15" cy="15" r="14.5" fill="white" stroke="#DEDEDE"/>
<g opacity="0.52">
<path d="M11.8125 13.2188C11.8125 10.9384 13.3461 9.84933 13.9339 9C13.5489 9.28244 9 10.3896 9 15C9 18.2955 11.7045 21 15 21C19.6099 21 20.712 16.459 21 16.0665C20.2068 16.6153 19.0596 18.1875 16.7578 18.1875C14.0438 18.1875 11.8125 15.9327 11.8125 13.2188Z" fill="#7A7A7A"/>
<path d="M18.7794 10.8536L17.8125 9L16.8659 10.8563L14.7534 11.1671L16.2846 12.655L15.9273 14.7837L17.8125 13.787L19.7307 14.7772L19.3665 12.6502L20.8929 11.1571L18.7794 10.8536Z" fill="#7A7A7A"/>
</g>
</svg>
