<svg width="16" height="16" viewBox="0 0 16 16" fill="none" xmlns="http://www.w3.org/2000/svg">
<g opacity="0.44">
<path d="M10.8266 5.17337C10.0466 4.39337 9.02659 4.00004 7.99992 4.00004V8.00004L5.17325 10.8267C6.73325 12.3867 9.26659 12.3867 10.8333 10.8267C12.3933 9.26671 12.3933 6.73337 10.8266 5.17337ZM7.99992 1.33337C4.31992 1.33337 1.33325 4.32004 1.33325 8.00004C1.33325 11.68 4.31992 14.6667 7.99992 14.6667C11.6799 14.6667 14.6666 11.68 14.6666 8.00004C14.6666 4.32004 11.6799 1.33337 7.99992 1.33337ZM7.99992 13.3334C5.05325 13.3334 2.66659 10.9467 2.66659 8.00004C2.66659 5.05337 5.05325 2.66671 7.99992 2.66671C10.9466 2.66671 13.3333 5.05337 13.3333 8.00004C13.3333 10.9467 10.9466 13.3334 7.99992 13.3334Z" fill="#404852"/>
</g>
</svg>
