<svg width="16" height="16" viewBox="0 0 16 16" fill="none" xmlns="http://www.w3.org/2000/svg">
<g opacity="0.44">
<path d="M10.8267 5.17337C10.0467 4.39337 9.02668 4.00004 8.00001 4.00004V8.00004L5.17334 10.8267C6.73334 12.3867 9.26668 12.3867 10.8333 10.8267C12.3933 9.26671 12.3933 6.73337 10.8267 5.17337ZM8.00001 1.33337C4.32001 1.33337 1.33334 4.32004 1.33334 8.00004C1.33334 11.68 4.32001 14.6667 8.00001 14.6667C11.68 14.6667 14.6667 11.68 14.6667 8.00004C14.6667 4.32004 11.68 1.33337 8.00001 1.33337ZM8.00001 13.3334C5.05334 13.3334 2.66668 10.9467 2.66668 8.00004C2.66668 5.05337 5.05334 2.66671 8.00001 2.66671C10.9467 2.66671 13.3333 5.05337 13.3333 8.00004C13.3333 10.9467 10.9467 13.3334 8.00001 13.3334Z" fill="#404852"/>
</g>
</svg>
