<svg width="32" height="32" viewBox="0 0 32 32" fill="none" xmlns="http://www.w3.org/2000/svg">
<path d="M5 8C5 5.79086 6.79086 4 9 4H23C25.2091 4 27 5.79086 27 8H5Z" fill="url(#paint0_linear)"/>
<path fill-rule="evenodd" clip-rule="evenodd" d="M7 10C4.79086 10 3 11.7909 3 14V24C3 26.2091 4.79086 28 7 28H25C27.2091 28 29 26.2091 29 24V14C29 11.7909 27.2091 10 25 10H7ZM27 14H5V18H27V14Z" fill="url(#paint1_linear)"/>
<path d="M10 6C8.34315 6 7 7.34315 7 9V10.1707C5.83481 10.5825 5 11.6938 5 13V21C5 22.6569 6.34315 24 8 24H24C25.6569 24 27 22.6569 27 21V13C27 11.6938 26.1652 10.5825 25 10.1707V9C25 7.34315 23.6569 6 22 6H10Z" fill="url(#paint2_linear)"/>
<defs>
<linearGradient id="paint0_linear" x1="5" y1="6" x2="27" y2="6" gradientUnits="userSpaceOnUse">
<stop stop-color="#00CDAC"/>
<stop offset="1" stop-color="#8DDAD5"/>
</linearGradient>
<linearGradient id="paint1_linear" x1="-5.56511" y1="-20.375" x2="32.3346" y2="46.2536" gradientUnits="userSpaceOnUse">
<stop stop-color="#22E1FF"/>
<stop offset="0.48" stop-color="#1D8FE1"/>
<stop offset="1" stop-color="#625EB1"/>
</linearGradient>
<linearGradient id="paint2_linear" x1="16" y1="6" x2="16" y2="24" gradientUnits="userSpaceOnUse">
<stop stop-color="white" stop-opacity="0.6"/>
<stop offset="1" stop-color="white" stop-opacity="0.1"/>
</linearGradient>
</defs>
</svg>
