<svg width="13" height="13" viewBox="0 0 13 13" fill="none" xmlns="http://www.w3.org/2000/svg">
<g clip-path="url(#clip0)">
<path d="M11.6969 6.45896H10.7787C10.5886 6.45896 10.4344 6.61311 10.4344 6.80326V10.9894C10.4344 11.2116 10.2536 11.3924 10.0314 11.3924H2.00875C1.7866 11.3924 1.60591 11.2116 1.60591 10.9894V2.96686C1.60591 2.74462 1.7866 2.56379 2.00875 2.56379H6.40921C6.59936 2.56379 6.75352 2.40964 6.75352 2.21949V1.30134C6.75352 1.11119 6.59936 0.957031 6.40921 0.957031H2.00875C0.900632 0.957031 -0.000854492 1.85865 -0.000854492 2.96686V10.9894C-0.000854492 12.0976 0.900678 12.9992 2.00875 12.9992H10.0314C11.1396 12.9992 12.0411 12.0976 12.0411 10.9894V6.80331C12.0412 6.61311 11.887 6.45896 11.6969 6.45896Z" fill="#1959A9"/>
<path d="M12.6553 0H9.00324C8.81309 0 8.65893 0.154157 8.65893 0.344306V1.26246C8.65893 1.45261 8.81309 1.60676 9.00324 1.60676H10.2567L5.53993 6.32344C5.40547 6.4579 5.40547 6.67587 5.53993 6.81038L6.18916 7.45965C6.25375 7.52424 6.34129 7.56051 6.43265 7.56051C6.52396 7.56051 6.61155 7.52424 6.6761 7.45965L11.3929 2.74288V3.9963C11.3929 4.18644 11.547 4.3406 11.7372 4.3406H12.6553C12.8455 4.3406 12.9996 4.18644 12.9996 3.9963V0.344306C12.9996 0.154157 12.8455 0 12.6553 0Z" fill="#1959A9"/>
</g>
<defs>
<clipPath id="clip0">
<rect width="13" height="13" fill="white"/>
</clipPath>
</defs>
</svg>
