<svg width="14" height="10" viewBox="0 0 14 10" fill="none" xmlns="http://www.w3.org/2000/svg">
<path fill-rule="evenodd" clip-rule="evenodd" d="M3.0754 0H6.93677C8.55146 0 9.6788 1.11269 9.6788 2.70728V7.29272C9.6788 8.88731 8.55146 10 6.93677 10H3.0754C1.46072 10 0.333374 8.88731 0.333374 7.29272V2.70728C0.333374 1.11269 1.46072 0 3.0754 0ZM12.3054 1.58605C12.5981 1.43715 12.9414 1.45272 13.2207 1.62869C13.5001 1.80399 13.6667 2.10856 13.6667 2.44155V7.55898C13.6667 7.89265 13.5001 8.19654 13.2207 8.37184C13.0681 8.46727 12.8974 8.516 12.7254 8.516C12.5821 8.516 12.4387 8.48216 12.3047 8.4138L11.3174 7.91567C10.952 7.73022 10.7254 7.35797 10.7254 6.94443V3.05543C10.7254 2.64122 10.952 2.26896 11.3174 2.08487L12.3054 1.58605Z" fill="#1959A9"/>
</svg>
