<svg width="105" height="104" viewBox="0 0 105 104" fill="none" xmlns="http://www.w3.org/2000/svg">
<g opacity="0.16">
<rect width="2.83784" height="2.83784" rx="1.34409" fill="#1959A9"/>
<rect x="11.3513" width="2.83784" height="2.83784" rx="1.34409" fill="#1959A9"/>
<rect x="22.7029" width="2.83784" height="2.83784" rx="1.34409" fill="#1959A9"/>
<rect x="34.054" width="2.83784" height="2.83784" rx="1.34409" fill="#1959A9"/>
<rect x="45.4055" width="2.83784" height="2.83784" rx="1.34409" fill="#1959A9"/>
<rect x="56.7568" width="2.83784" height="2.83784" rx="1.34409" fill="#1959A9"/>
<rect x="68.1082" width="2.83784" height="2.83784" rx="1.34409" fill="#1959A9"/>
<rect x="79.4597" width="2.83784" height="2.83784" rx="1.34409" fill="#1959A9"/>
<rect x="90.8108" width="2.83784" height="2.83784" rx="1.34409" fill="#1959A9"/>
<rect x="102.162" width="2.83784" height="2.83784" rx="1.34409" fill="#1959A9"/>
<rect y="11.3513" width="2.83784" height="2.83784" rx="1.34409" fill="#1959A9"/>
<rect x="11.3513" y="11.3513" width="2.83784" height="2.83784" rx="1.34409" fill="#1959A9"/>
<rect x="22.7029" y="11.3513" width="2.83784" height="2.83784" rx="1.34409" fill="#1959A9"/>
<rect x="34.054" y="11.3513" width="2.83784" height="2.83784" rx="1.34409" fill="#1959A9"/>
<rect x="45.4055" y="11.3513" width="2.83784" height="2.83784" rx="1.34409" fill="#1959A9"/>
<rect x="56.7568" y="11.3513" width="2.83784" height="2.83784" rx="1.34409" fill="#1959A9"/>
<rect x="68.1082" y="11.3513" width="2.83784" height="2.83784" rx="1.34409" fill="#1959A9"/>
<rect x="79.4597" y="11.3513" width="2.83784" height="2.83784" rx="1.34409" fill="#1959A9"/>
<rect x="90.8108" y="11.3513" width="2.83784" height="2.83784" rx="1.34409" fill="#1959A9"/>
<rect x="102.162" y="11.3513" width="2.83784" height="2.83784" rx="1.34409" fill="#1959A9"/>
<rect y="22.7028" width="2.83784" height="2.83784" rx="1.34409" fill="#1959A9"/>
<rect x="11.3513" y="22.7028" width="2.83784" height="2.83784" rx="1.34409" fill="#1959A9"/>
<rect x="22.7029" y="22.7028" width="2.83784" height="2.83784" rx="1.34409" fill="#1959A9"/>
<rect x="34.054" y="22.7028" width="2.83784" height="2.83784" rx="1.34409" fill="#1959A9"/>
<rect x="45.4055" y="22.7028" width="2.83784" height="2.83784" rx="1.34409" fill="#1959A9"/>
<rect x="56.7568" y="22.7028" width="2.83784" height="2.83784" rx="1.34409" fill="#1959A9"/>
<rect x="68.1082" y="22.7028" width="2.83784" height="2.83784" rx="1.34409" fill="#1959A9"/>
<rect x="79.4597" y="22.7028" width="2.83784" height="2.83784" rx="1.34409" fill="#1959A9"/>
<rect x="90.8108" y="22.7028" width="2.83784" height="2.83784" rx="1.34409" fill="#1959A9"/>
<rect x="102.162" y="22.7028" width="2.83784" height="2.83784" rx="1.34409" fill="#1959A9"/>
<rect y="34.0541" width="2.83784" height="2.83784" rx="1.34409" fill="#1959A9"/>
<rect x="11.3513" y="34.0541" width="2.83784" height="2.83784" rx="1.34409" fill="#1959A9"/>
<rect x="22.7029" y="34.0541" width="2.83784" height="2.83784" rx="1.34409" fill="#1959A9"/>
<rect x="34.054" y="34.0541" width="2.83784" height="2.83784" rx="1.34409" fill="#1959A9"/>
<rect x="45.4055" y="34.0541" width="2.83784" height="2.83784" rx="1.34409" fill="#1959A9"/>
<rect x="56.7568" y="34.0541" width="2.83784" height="2.83784" rx="1.34409" fill="#1959A9"/>
<rect x="68.1082" y="34.0541" width="2.83784" height="2.83784" rx="1.34409" fill="#1959A9"/>
<rect x="79.4597" y="34.0541" width="2.83784" height="2.83784" rx="1.34409" fill="#1959A9"/>
<rect x="90.8108" y="34.0541" width="2.83784" height="2.83784" rx="1.34409" fill="#1959A9"/>
<rect x="102.162" y="34.0541" width="2.83784" height="2.83784" rx="1.34409" fill="#1959A9"/>
<rect y="45.4054" width="2.83784" height="2.83784" rx="1.34409" fill="#1959A9"/>
<rect x="11.3513" y="45.4054" width="2.83784" height="2.83784" rx="1.34409" fill="#1959A9"/>
<rect x="22.7029" y="45.4054" width="2.83784" height="2.83784" rx="1.34409" fill="#1959A9"/>
<rect x="34.054" y="45.4054" width="2.83784" height="2.83784" rx="1.34409" fill="#1959A9"/>
<rect x="45.4055" y="45.4054" width="2.83784" height="2.83784" rx="1.34409" fill="#1959A9"/>
<rect x="56.7568" y="45.4054" width="2.83784" height="2.83784" rx="1.34409" fill="#1959A9"/>
<rect x="68.1082" y="45.4054" width="2.83784" height="2.83784" rx="1.34409" fill="#1959A9"/>
<rect x="79.4597" y="45.4054" width="2.83784" height="2.83784" rx="1.34409" fill="#1959A9"/>
<rect x="90.8108" y="45.4054" width="2.83784" height="2.83784" rx="1.34409" fill="#1959A9"/>
<rect x="102.162" y="45.4054" width="2.83784" height="2.83784" rx="1.34409" fill="#1959A9"/>
<rect y="56.7567" width="2.83784" height="2.83784" rx="1.34409" fill="#1959A9"/>
<rect x="11.3513" y="56.7567" width="2.83784" height="2.83784" rx="1.34409" fill="#1959A9"/>
<rect x="22.7029" y="56.7567" width="2.83784" height="2.83784" rx="1.34409" fill="#1959A9"/>
<rect x="34.054" y="56.7567" width="2.83784" height="2.83784" rx="1.34409" fill="#1959A9"/>
<rect x="45.4055" y="56.7567" width="2.83784" height="2.83784" rx="1.34409" fill="#1959A9"/>
<rect x="56.7568" y="56.7567" width="2.83784" height="2.83784" rx="1.34409" fill="#1959A9"/>
<rect x="68.1082" y="56.7567" width="2.83784" height="2.83784" rx="1.34409" fill="#1959A9"/>
<rect x="79.4597" y="56.7567" width="2.83784" height="2.83784" rx="1.34409" fill="#1959A9"/>
<rect x="90.8108" y="56.7567" width="2.83784" height="2.83784" rx="1.34409" fill="#1959A9"/>
<rect x="102.162" y="56.7567" width="2.83784" height="2.83784" rx="1.34409" fill="#1959A9"/>
<rect y="68.1082" width="2.83784" height="2.83784" rx="1.34409" fill="#1959A9"/>
<rect y="79.0562" width="2.83784" height="2.83784" rx="1.34409" fill="#1959A9"/>
<rect y="90.004" width="2.83784" height="2.83784" rx="1.34409" fill="#1959A9"/>
<rect y="100.952" width="2.83784" height="2.83784" rx="1.34409" fill="#1959A9"/>
<rect x="11.3513" y="68.1082" width="2.83784" height="2.83784" rx="1.34409" fill="#1959A9"/>
<rect x="11.3513" y="79.0562" width="2.83784" height="2.83784" rx="1.34409" fill="#1959A9"/>
<rect x="11.3513" y="90.004" width="2.83784" height="2.83784" rx="1.34409" fill="#1959A9"/>
<rect x="11.3513" y="100.952" width="2.83784" height="2.83784" rx="1.34409" fill="#1959A9"/>
<rect x="22.7029" y="68.1082" width="2.83784" height="2.83784" rx="1.34409" fill="#1959A9"/>
<rect x="22.7029" y="79.0562" width="2.83784" height="2.83784" rx="1.34409" fill="#1959A9"/>
<rect x="22.7029" y="90.004" width="2.83784" height="2.83784" rx="1.34409" fill="#1959A9"/>
<rect x="22.7029" y="100.952" width="2.83784" height="2.83784" rx="1.34409" fill="#1959A9"/>
<rect x="34.054" y="68.1082" width="2.83784" height="2.83784" rx="1.34409" fill="#1959A9"/>
<rect x="34.054" y="79.0562" width="2.83784" height="2.83784" rx="1.34409" fill="#1959A9"/>
<rect x="34.054" y="90.004" width="2.83784" height="2.83784" rx="1.34409" fill="#1959A9"/>
<rect x="34.054" y="100.952" width="2.83784" height="2.83784" rx="1.34409" fill="#1959A9"/>
<rect x="45.4055" y="68.1082" width="2.83784" height="2.83784" rx="1.34409" fill="#1959A9"/>
<rect x="45.4055" y="79.0562" width="2.83784" height="2.83784" rx="1.34409" fill="#1959A9"/>
<rect x="45.4055" y="90.004" width="2.83784" height="2.83784" rx="1.34409" fill="#1959A9"/>
<rect x="45.4055" y="100.952" width="2.83784" height="2.83784" rx="1.34409" fill="#1959A9"/>
<rect x="56.7568" y="68.1082" width="2.83784" height="2.83784" rx="1.34409" fill="#1959A9"/>
<rect x="56.7568" y="79.0562" width="2.83784" height="2.83784" rx="1.34409" fill="#1959A9"/>
<rect x="56.7568" y="90.004" width="2.83784" height="2.83784" rx="1.34409" fill="#1959A9"/>
<rect x="56.7568" y="100.952" width="2.83784" height="2.83784" rx="1.34409" fill="#1959A9"/>
<rect x="68.1082" y="68.1082" width="2.83784" height="2.83784" rx="1.34409" fill="#1959A9"/>
<rect x="68.1082" y="79.0562" width="2.83784" height="2.83784" rx="1.34409" fill="#1959A9"/>
<rect x="68.1082" y="90.004" width="2.83784" height="2.83784" rx="1.34409" fill="#1959A9"/>
<rect x="68.1082" y="100.952" width="2.83784" height="2.83784" rx="1.34409" fill="#1959A9"/>
<rect x="79.4597" y="68.1082" width="2.83784" height="2.83784" rx="1.34409" fill="#1959A9"/>
<rect x="79.4597" y="79.0562" width="2.83784" height="2.83784" rx="1.34409" fill="#1959A9"/>
<rect x="79.4597" y="90.004" width="2.83784" height="2.83784" rx="1.34409" fill="#1959A9"/>
<rect x="79.4597" y="100.952" width="2.83784" height="2.83784" rx="1.34409" fill="#1959A9"/>
<rect x="90.8108" y="68.1082" width="2.83784" height="2.83784" rx="1.34409" fill="#1959A9"/>
<rect x="90.8108" y="79.0562" width="2.83784" height="2.83784" rx="1.34409" fill="#1959A9"/>
<rect x="90.8108" y="90.004" width="2.83784" height="2.83784" rx="1.34409" fill="#1959A9"/>
<rect x="90.8108" y="100.952" width="2.83784" height="2.83784" rx="1.34409" fill="#1959A9"/>
<rect x="102.162" y="68.1082" width="2.83784" height="2.83784" rx="1.34409" fill="#1959A9"/>
<rect x="102.162" y="79.0562" width="2.83784" height="2.83784" rx="1.34409" fill="#1959A9"/>
<rect x="102.162" y="90.004" width="2.83784" height="2.83784" rx="1.34409" fill="#1959A9"/>
<rect x="102.162" y="100.952" width="2.83784" height="2.83784" rx="1.34409" fill="#1959A9"/>
</g>
</svg>
