<svg width="495" height="302" viewBox="0 0 495 302" fill="none" xmlns="http://www.w3.org/2000/svg">
<circle opacity="0.08" cx="4.5" cy="278" r="4" fill="white"/>
<circle opacity="0.08" cx="44.5" cy="278" r="4" fill="white"/>
<circle opacity="0.08" cx="24.5" cy="258" r="4" fill="white"/>
<circle opacity="0.08" cx="84.5" cy="278" r="4" fill="white"/>
<circle opacity="0.08" cx="104.5" cy="278" r="4" fill="white"/>
<circle opacity="0.08" cx="4.5" cy="258" r="4" fill="white"/>
<circle opacity="0.08" cx="64.5" cy="278" r="4" fill="white"/>
<circle opacity="0.08" cx="4.5" cy="237" r="4" fill="white"/>
<circle opacity="0.08" cx="4.5" cy="298" r="4" fill="white"/>
<circle opacity="0.08" cx="24.5" cy="237" r="4" fill="white"/>
<circle opacity="0.08" cx="24.5" cy="298" r="4" fill="white"/>
<circle opacity="0.08" cx="44.5" cy="237" r="4" fill="white"/>
<circle opacity="0.08" cx="44.5" cy="298" r="4" fill="white"/>
<circle opacity="0.08" cx="44.5" cy="258" r="4" fill="white"/>
<circle opacity="0.08" cx="64.5" cy="237" r="4" fill="white"/>
<circle opacity="0.08" cx="64.5" cy="298" r="4" fill="white"/>
<circle opacity="0.08" cx="64.5" cy="258" r="4" fill="white"/>
<circle opacity="0.08" cx="84.5" cy="237" r="4" fill="white"/>
<circle opacity="0.08" cx="84.5" cy="298" r="4" fill="white"/>
<circle opacity="0.08" cx="84.5" cy="258" r="4" fill="white"/>
<circle opacity="0.08" cx="104.5" cy="257" r="4" fill="white"/>
<circle opacity="0.08" cx="104.5" cy="237" r="4" fill="white"/>
<circle opacity="0.08" cx="104.5" cy="298" r="4" fill="white"/>
<circle opacity="0.08" cx="24.5" cy="278" r="4" fill="white"/>
<rect opacity="0.08" x="427.13" y="34.2352" width="45.6471" height="61.1345" rx="4.36975" stroke="white" stroke-width="3.2605"/>
<rect opacity="0.08" x="447.508" y="1.63025" width="45.6471" height="61.1345" rx="4.36975" stroke="white" stroke-width="3.2605"/>
</svg>
