<svg width="28" height="28" viewBox="0 0 28 28" fill="none" xmlns="http://www.w3.org/2000/svg">
<path d="M19.8333 12.8333C20.23 12.8333 20.615 12.88 21 12.9383V8.84332C21 7.90999 20.4517 7.06999 19.6 6.70832L13.1833 3.90832C12.5883 3.65165 11.9117 3.65165 11.3167 3.90832L4.9 6.70832C4.04833 7.08165 3.5 7.92165 3.5 8.84332V13.0433C3.5 18.34 7.23333 23.2983 12.25 24.5C12.8917 24.3483 13.51 24.1267 14.1167 23.8583C13.3117 22.715 12.8333 21.3267 12.8333 19.8333C12.8333 15.9717 15.9717 12.8333 19.8333 12.8333Z" fill="white"/>
<path d="M19.8337 15.1665C17.2553 15.1665 15.167 17.2548 15.167 19.8332C15.167 22.4115 17.2553 24.4998 19.8337 24.4998C22.412 24.4998 24.5003 22.4115 24.5003 19.8332C24.5003 17.2548 22.412 15.1665 19.8337 15.1665ZM19.8337 16.7765C20.557 16.7765 21.1403 17.3715 21.1403 18.0832C21.1403 18.7948 20.5453 19.3898 19.8337 19.3898C19.122 19.3898 18.527 18.7948 18.527 18.0832C18.527 17.3715 19.1103 16.7765 19.8337 16.7765ZM19.8337 23.0415C18.7487 23.0415 17.8037 22.5048 17.2203 21.6765C17.2787 20.8365 18.982 20.4165 19.8337 20.4165C20.6853 20.4165 22.3887 20.8365 22.447 21.6765C21.8637 22.5048 20.9187 23.0415 19.8337 23.0415Z" fill="white"/>
</svg>
