<svg width="32" height="32" viewBox="0 0 32 32" fill="none" xmlns="http://www.w3.org/2000/svg">
<circle cx="16" cy="16" r="16" fill="#3360BB"/>
<path d="M18.9167 17.6667H18.2583L18.025 17.4417C19.025 16.275 19.5417 14.6834 19.2583 12.9917C18.8667 10.675 16.9333 8.82503 14.6 8.5417C11.075 8.10837 8.10833 11.075 8.54166 14.6C8.82499 16.9334 10.675 18.8667 12.9917 19.2584C14.6833 19.5417 16.275 19.025 17.4417 18.025L17.6667 18.2584V18.9167L21.2083 22.4584C21.55 22.8 22.1083 22.8 22.45 22.4584C22.7917 22.1167 22.7917 21.5584 22.45 21.2167L18.9167 17.6667ZM13.9167 17.6667C11.8417 17.6667 10.1667 15.9917 10.1667 13.9167C10.1667 11.8417 11.8417 10.1667 13.9167 10.1667C15.9917 10.1667 17.6667 11.8417 17.6667 13.9167C17.6667 15.9917 15.9917 17.6667 13.9167 17.6667Z" fill="white"/>
</svg>
